0
SECTION
2
HEADER
9
$ACADVER
1
AC1006
9
$INSBASE
10
0.0
20
0.0
30
0.0
9
$EXTMIN
10
0.0
20
0.0
9
$EXTMAX
10
0.0
20
0.0
0
ENDSEC
0
SECTION
2
TABLES
0
TABLE
2
LTYPE
70
1
0
LTYPE
2
CONTINUOUS
70
64
3
Solid line
72
65
73
0
40
0.0
0
ENDTAB
0
TABLE
2
LAYER
70
5
0
LAYER
2
PYDXF
70
64
62
7
6
continuous
0
LAYER
2
TEXT
70
64
62
2
6
continuous
0
LAYER
2
CAM
70
64
62
1
6
continuous
0
LAYER
2
ROLLER
70
64
62
5
6
continuous
0
LAYER
2
PRESSURE
70
64
62
3
6
continuous
0
ENDTAB
0
TABLE
2
STYLE
70
1
0
STYLE
2
STANDARD
70
0
40
0
41
40
50
50
71
0
42
1
3
ARIAL.TTF
4

0
ENDTAB
0
TABLE
2
VIEW
70
0
0
ENDTAB
0
ENDSEC
0
SECTION
2
BLOCKS
0
ENDSEC
0
SECTION
2
ENTITIES
0
TEXT
8
text
10
20.0
20
0.7
40
0.1
1
pitch=1.66666666667
0
TEXT
8
text
10
20.0
20
0.5
40
0.1
1
pin diameter=5.0
0
TEXT
8
text
10
20.0
20
0.3
40
0.1
1
eccentricity=1.0
0
TEXT
8
text
10
20.0
20
0.1
40
0.1
1
# of teeth=9
0
TEXT
8
text
10
20.0
20
-0.1
40
0.1
1
pressure angle limit=50.0
0
TEXT
8
text
10
20.0
20
-0.3
40
0.1
1
pressure angle offset=0.2
0
TEXT
8
text
10
20.0
20
-0.5
40
0.1
1
min angle=13.0
0
TEXT
8
text
10
20.0
20
-0.7
40
0.1
1
max angle=112.0
0
CIRCLE
8
pressure
10
-1.0
20
0
40
11.8351339587
0
CIRCLE
8
pressure
10
-1.0
20
0
40
13.1569360035
0
LINE
8
cam
10
12.3
20
0.0
11
12.2951201035
21
0.166909318088
0
LINE
8
cam
10
12.2951201035
20
0.166909318088
11
12.2805704956
21
0.332483736402
0
LINE
8
cam
10
12.2805704956
20
0.332483736402
11
12.2566191841
21
0.495416090576
0
LINE
8
cam
10
12.2566191841
20
0.495416090576
11
12.2237053981
21
0.654454231277
0
LINE
8
cam
10
12.2237053981
20
0.654454231277
11
12.1824284207
21
0.80842740441
0
LINE
8
cam
10
12.1824284207
20
0.80842740441
11
12.1335319586
21
0.956271313213
0
LINE
8
cam
10
12.1335319586
20
0.956271313213
11
12.0778840265
21
1.09705148326
0
LINE
8
cam
10
12.0778840265
20
1.09705148326
11
12.0164522632
21
1.22998460906
0
LINE
8
cam
10
12.0164522632
20
1.22998460906
11
11.9502745035
21
1.35445764266
0
LINE
8
cam
10
11.9502745035
20
1.35445764266
11
11.880424262
21
1.47004450044
0
LINE
8
cam
10
11.880424262
20
1.47004450044
11
12.0064724395
21
1.60095383687
0
LINE
8
cam
10
12.0064724395
20
1.60095383687
11
11.9322250302
21
1.69994010967
0
LINE
8
cam
10
11.9322250302
20
1.69994010967
11
11.857305884
21
1.78989637584
0
LINE
8
cam
10
11.857305884
20
1.78989637584
11
11.7824552712
21
1.87127609746
0
LINE
8
cam
10
11.7824552712
20
1.87127609746
11
11.7081585932
21
1.94478595858
0
LINE
8
cam
10
11.7081585932
20
1.94478595858
11
11.6345438201
21
2.0114068853
0
LINE
8
cam
10
11.6345438201
20
2.0114068853
11
11.5612480201
21
2.07243010483
0
LINE
8
cam
10
11.5612480201
20
2.07243010483
11
11.4872384067
21
2.12952298041
0
LINE
8
cam
10
11.4872384067
20
2.12952298041
11
11.4105667387
21
2.18485219738
0
LINE
8
cam
10
11.4105667387
20
2.18485219738
11
11.3280291615
21
2.24131686107
0
LINE
8
cam
10
11.3280291615
20
2.24131686107
11
11.2347045609
21
2.30299266853
0
LINE
8
cam
10
11.2347045609
20
2.30299266853
11
11.1233827916
21
2.37597925865
0
LINE
8
cam
10
11.1233827916
20
2.37597925865
11
10.9840675018
21
2.46998932134
0
LINE
8
cam
10
10.9840675018
20
2.46998932134
11
10.8043298511
21
2.60112725715
0
LINE
8
cam
10
10.8043298511
20
2.60112725715
11
10.5729026864
21
2.79570686505
0
LINE
8
cam
10
10.5729026864
20
2.79570686505
11
10.098636629
21
3.03827741548
0
LINE
8
cam
10
10.098636629
20
3.03827741548
11
9.80626512847
21
3.45803731003
0
LINE
8
cam
10
9.80626512847
20
3.45803731003
11
9.57699006739
21
3.98816368476
0
LINE
8
cam
10
9.57699006739
20
3.98816368476
11
9.46767662712
21
4.53454510496
0
LINE
8
cam
10
9.46767662712
20
4.53454510496
11
9.46178277313
21
4.99952894382
0
LINE
8
cam
10
9.46178277313
20
4.99952894382
11
9.68436939031
21
5.44169401488
0
LINE
8
cam
10
9.68436939031
20
5.44169401488
11
9.73895634344
21
5.69942332169
0
LINE
8
cam
10
9.73895634344
20
5.69942332169
11
9.78960031586
21
5.88823560809
0
LINE
8
cam
10
9.78960031586
20
5.88823560809
11
9.83226366624
21
6.03256469793
0
LINE
8
cam
10
9.83226366624
20
6.03256469793
11
9.86751888579
21
6.14964083302
0
LINE
8
cam
10
9.86751888579
20
6.14964083302
11
9.8970042497
21
6.25107898288
0
LINE
8
cam
10
9.8970042497
20
6.25107898288
11
9.92215591748
21
6.34468683328
0
LINE
8
cam
10
9.92215591748
20
6.34468683328
11
9.94387335648
21
6.43575937931
0
LINE
8
cam
10
9.94387335648
20
6.43575937931
11
9.96251649491
21
6.52790712663
0
LINE
8
cam
10
9.96251649491
20
6.52790712663
11
9.97800194514
21
6.62357191412
0
LINE
8
cam
10
9.97800194514
20
6.62357191412
11
9.98991578623
21
6.72435049351
0
LINE
8
cam
10
9.98991578623
20
6.72435049351
11
9.99761682355
21
6.83120267616
0
LINE
8
cam
10
9.99761682355
20
6.83120267616
11
10.0003242763
21
6.94459038233
0
LINE
8
cam
10
10.0003242763
20
6.94459038233
11
9.99719034398
21
7.06457515074
0
LINE
8
cam
10
9.99719034398
20
7.06457515074
11
9.98735975988
21
7.19089053487
0
LINE
8
cam
10
9.98735975988
20
7.19089053487
11
9.80367601829
21
7.21195788986
0
LINE
8
cam
10
9.80367601829
20
7.21195788986
11
9.77917397359
21
7.34749399342
0
LINE
8
cam
10
9.77917397359
20
7.34749399342
11
9.74588598022
21
7.48704208387
0
LINE
8
cam
10
9.74588598022
20
7.48704208387
11
9.70332681763
21
7.62952783438
0
LINE
8
cam
10
9.70332681763
20
7.62952783438
11
9.65116644982
21
7.77377237557
0
LINE
8
cam
10
9.65116644982
20
7.77377237557
11
9.5892432676
21
7.91852660592
0
LINE
8
cam
10
9.5892432676
20
7.91852660592
11
9.5175720632
21
8.06250414192
0
LINE
8
cam
10
9.5175720632
20
8.06250414192
11
9.43634705202
21
8.20441293646
0
LINE
8
cam
10
9.43634705202
20
8.20441293646
11
9.3459402192
21
8.3429854338
0
LINE
8
cam
10
9.3459402192
20
8.3429854338
11
9.2468952545
21
8.47700702591
0
LINE
8
cam
10
9.2468952545
20
8.47700702591
11
9.1399173403
21
8.60534251219
0
LINE
8
cam
10
9.1399173403
20
8.60534251219
11
9.02585906624
21
8.72696022869
0
LINE
8
cam
10
9.02585906624
20
8.72696022869
11
8.90570275519
21
8.84095349766
0
LINE
8
cam
10
8.90570275519
20
8.84095349766
11
8.78053949437
21
8.94655904706
0
LINE
8
cam
10
8.78053949437
20
8.94655904706
11
8.65154516644
21
9.04317205734
0
LINE
8
cam
10
8.65154516644
20
9.04317205734
11
8.51995376402
21
9.13035750677
0
LINE
8
cam
10
8.51995376402
20
9.13035750677
11
8.38702824035
21
9.2078575011
0
LINE
8
cam
10
8.38702824035
20
9.2078575011
11
8.25402909056
21
9.27559428611
0
LINE
8
cam
10
8.25402909056
20
9.27559428611
11
8.12218075899
21
9.33366864692
0
LINE
8
cam
10
8.12218075899
20
9.33366864692
11
7.99263581206
21
9.38235339075
0
LINE
8
cam
10
7.99263581206
20
9.38235339075
11
8.00349799626
21
9.56773242161
0
LINE
8
cam
10
8.00349799626
20
9.56773242161
11
7.88028237302
21
9.60024865715
0
LINE
8
cam
10
7.88028237302
20
9.60024865715
11
7.7620755849
21
9.62498702058
0
LINE
8
cam
10
7.7620755849
20
9.62498702058
11
7.64932034451
21
9.64273551771
0
LINE
8
cam
10
7.64932034451
20
9.64273551771
11
7.5421429532
21
9.65433636666
0
LINE
8
cam
10
7.5421429532
20
9.65433636666
11
7.44027395076
21
9.66064084464
0
LINE
8
cam
10
7.44027395076
20
9.66064084464
11
7.34294315518
21
9.66245569172
0
LINE
8
cam
10
7.34294315518
20
9.66245569172
11
7.24873343762
21
9.66048163818
0
LINE
8
cam
10
7.24873343762
20
9.66048163818
11
7.15536748006
21
9.65524779781
0
LINE
8
cam
10
7.15536748006
20
9.65524779781
11
7.05938528306
21
9.64705434356
0
LINE
8
cam
10
7.05938528306
20
9.64705434356
11
6.95564472857
21
9.63595842428
0
LINE
8
cam
10
6.95564472857
20
9.63595842428
11
6.83654468872
21
9.62189528811
0
LINE
8
cam
10
6.83654468872
20
9.62189528811
11
6.69085617343
21
9.60516621291
0
LINE
8
cam
10
6.69085617343
20
9.60516621291
11
6.50218088078
21
9.58784237216
0
LINE
8
cam
10
6.50218088078
20
9.58784237216
11
6.24782131913
21
9.57720918602
0
LINE
8
cam
10
6.24782131913
20
9.57720918602
11
5.78475689177
21
9.43026284701
0
LINE
8
cam
10
5.78475689177
20
9.43026284701
11
5.33854837766
21
9.50657938707
0
LINE
8
cam
10
5.33854837766
20
9.50657938707
11
4.82216506691
21
9.69484398476
0
LINE
8
cam
10
4.82216506691
20
9.69484398476
11
4.33055139333
21
10.0024685324
0
LINE
8
cam
10
4.33055139333
20
10.0024685324
11
3.95296196525
21
10.3630005302
0
LINE
8
cam
10
3.95296196525
20
10.3630005302
11
3.78448023067
21
10.878275113
0
LINE
8
cam
10
3.78448023067
20
10.878275113
11
3.6250284478
21
11.14754302
0
LINE
8
cam
10
3.6250284478
20
11.14754302
11
3.52256741281
21
11.3534820216
0
LINE
8
cam
10
3.52256741281
20
11.3534820216
11
3.45171617896
21
11.511347418
0
LINE
8
cam
10
3.45171617896
20
11.511347418
11
3.39787271958
21
11.6364835312
0
LINE
8
cam
10
3.39787271958
20
11.6364835312
11
3.35272374496
21
11.7408293767
0
LINE
8
cam
10
3.35272374496
20
11.7408293767
11
3.31126426499
21
11.8328837228
0
LINE
8
cam
10
3.31126426499
20
11.8328837228
11
3.27020368194
21
11.918452072
0
LINE
8
cam
10
3.27020368194
20
11.918452072
11
3.2271700911
21
12.0013741124
0
LINE
8
cam
10
3.2271700911
20
12.0013741124
11
3.18032288755
21
12.0840752397
0
LINE
8
cam
10
3.18032288755
20
12.0840752397
11
3.12816744668
21
12.1679571956
0
LINE
8
cam
10
3.12816744668
20
12.1679571956
11
3.06946917463
21
12.253671781
0
LINE
8
cam
10
3.06946917463
20
12.253671781
11
3.0032162123
21
12.3413154677
0
LINE
8
cam
10
3.0032162123
20
12.3413154677
11
2.92860545777
21
12.4305716847
0
LINE
8
cam
10
2.92860545777
20
12.4305716847
11
2.8450390077
21
12.5208185174
0
LINE
8
cam
10
2.8450390077
20
12.5208185174
11
2.69509053638
21
12.4195178184
0
LINE
8
cam
10
2.69509053638
20
12.4195178184
11
2.59443814624
21
12.5085401715
0
LINE
8
cam
10
2.59443814624
20
12.5085401715
11
2.48438304181
21
12.5956129846
0
LINE
8
cam
10
2.48438304181
20
12.5956129846
11
2.36513677061
21
12.6796072615
0
LINE
8
cam
10
2.36513677061
20
12.6796072615
11
2.23710215866
21
12.7593922726
0
LINE
8
cam
10
2.23710215866
20
12.7593922726
11
2.10086321617
21
12.8338729887
0
LINE
8
cam
10
2.10086321617
20
12.8338729887
11
1.95717180087
21
12.9020228678
0
LINE
8
cam
10
1.95717180087
20
12.9020228678
11
1.80693120873
21
12.9629123371
0
LINE
8
cam
10
1.80693120873
20
12.9629123371
11
1.65117695072
21
13.015733119
0
LINE
8
cam
10
1.65117695072
20
13.015733119
11
1.49105503996
21
13.0598184344
0
LINE
8
cam
10
1.49105503996
20
13.0598184344
11
1.32779816197
21
13.0946590482
0
LINE
8
cam
10
1.32779816197
20
13.0946590482
11
1.16270013716
21
13.119915084
0
LINE
8
cam
10
1.16270013716
20
13.119915084
11
0.997089109274
21
13.1354235273
0
LINE
8
cam
10
0.997089109274
20
13.1354235273
11
0.832299906974
21
13.1412013332
0
LINE
8
cam
10
0.832299906974
20
13.1412013332
11
0.669646028719
21
13.1374440603
0
LINE
8
cam
10
0.669646028719
20
13.1374440603
11
0.510391690797
21
13.1245199638
0
LINE
8
cam
10
0.510391690797
20
13.1245199638
11
0.355724354631
21
13.1029594722
0
LINE
8
cam
10
0.355724354631
20
13.1029594722
11
0.206728108023
21
13.0734399635
0
LINE
8
cam
10
0.206728108023
20
13.0734399635
11
0.0643582116434
21
13.036765711
0
LINE
8
cam
10
0.0643582116434
20
13.036765711
11
-0.0705829714534
21
12.9938427936
0
LINE
8
cam
10
-0.0705829714534
20
12.9938427936
11
-0.197468582136
21
12.9456486323
0
LINE
8
cam
10
-0.197468582136
20
12.9456486323
11
-0.305271148969
21
13.0929146388
0
LINE
8
cam
10
-0.305271148969
20
13.0929146388
11
-0.416629513374
21
13.0372878692
0
LINE
8
cam
10
-0.416629513374
20
13.0372878692
11
-0.519193215468
21
12.9793325187
0
LINE
8
cam
10
-0.519193215468
20
12.9793325187
11
-0.613249509437
21
12.9198742642
0
LINE
8
cam
10
-0.613249509437
20
12.9198742642
11
-0.699375783766
21
12.8595412383
0
LINE
8
cam
10
-0.699375783766
20
12.8595412383
11
-0.778476518379
21
12.7986692092
0
LINE
8
cam
10
-0.778476518379
20
12.7986692092
11
-0.851839065814
21
12.7371799976
0
LINE
8
cam
10
-0.851839065814
20
12.7371799976
11
-0.92122423137
21
12.6744217931
0
LINE
8
cam
10
-0.92122423137
20
12.6744217931
11
-0.989020494476
21
12.6089557713
0
LINE
8
cam
10
-0.989020494476
20
12.6089557713
11
-1.05851475855
21
12.5382706175
0
LINE
8
cam
10
-1.05851475855
20
12.5382706175
11
-1.1343771326
21
12.4584137086
0
LINE
8
cam
10
-1.1343771326
20
12.4584137086
11
-1.22353571024
21
12.363573263
0
LINE
8
cam
10
-1.22353571024
20
12.363573263
11
-1.33673033337
21
12.2458172515
0
LINE
8
cam
10
-1.33673033337
20
12.2458172515
11
-1.49107002872
21
12.0957304395
0
LINE
8
cam
10
-1.49107002872
20
12.0957304395
11
-1.71322807373
21
11.906057092
0
LINE
8
cam
10
-1.71322807373
20
11.906057092
11
-2.02148630158
21
11.4832676161
0
LINE
8
cam
10
-2.02148630158
20
11.4832676161
11
-2.47129046426
21
11.2637862949
0
LINE
8
cam
10
-2.47129046426
20
11.2637862949
11
-3.02651172632
21
11.1177940356
0
LINE
8
cam
10
-3.02651172632
20
11.1177940356
11
-3.58977906871
21
11.0920599837
0
LINE
8
cam
10
-3.58977906871
20
11.0920599837
11
-4.06202989746
21
11.1602719681
0
LINE
8
cam
10
-4.06202989746
20
11.1602719681
11
-4.47105242467
21
11.4553620064
0
LINE
8
cam
10
-4.47105242467
20
11.4553620064
11
-4.72474256581
21
11.5552759498
0
LINE
8
cam
10
-4.72474256581
20
11.5552759498
11
-4.90797538411
21
11.6398002326
0
LINE
8
cam
10
-4.90797538411
20
11.6398002326
11
-5.04645633953
21
11.7084537828
0
LINE
8
cam
10
-5.04645633953
20
11.7084537828
11
-5.1578353934
21
11.7646490744
0
LINE
8
cam
10
-5.1578353934
20
11.7646490744
11
-5.253790704
21
11.8120791286
0
LINE
8
cam
10
-5.253790704
20
11.8120791286
11
-5.34209730587
21
11.8536228568
0
LINE
8
cam
10
-5.34209730587
20
11.8536228568
11
-5.42803023845
21
11.8911877079
0
LINE
8
cam
10
-5.42803023845
20
11.8911877079
11
-5.5152277395
21
11.9258375245
0
LINE
8
cam
10
-5.5152277395
20
11.9258375245
11
-5.60621092005
21
11.9579764962
0
LINE
8
cam
10
-5.60621092005
20
11.9579764962
11
-5.70269945467
21
11.9875193867
0
LINE
8
cam
10
-5.70269945467
20
11.9875193867
11
-5.80580830773
21
12.0140326566
0
LINE
8
cam
10
-5.80580830773
20
12.0140326566
11
-5.91617509762
21
12.0368477553
0
LINE
8
cam
10
-5.91617509762
20
12.0368477553
11
-6.03404684227
21
12.0551517132
0
LINE
8
cam
10
-6.03404684227
20
12.0551517132
11
-6.15934286036
21
12.0680600595
0
LINE
8
cam
10
-6.15934286036
20
12.0680600595
11
-6.21142495382
21
11.8914949193
0
LINE
8
cam
10
-6.21142495382
20
11.8914949193
11
-6.34849478705
21
11.8917386301
0
LINE
8
cam
10
-6.34849478705
20
11.8917386301
11
-6.49114010902
21
11.8841076608
0
LINE
8
cam
10
-6.49114010902
20
11.8841076608
11
-6.63840357285
21
11.8679240657
0
LINE
8
cam
10
-6.63840357285
20
11.8679240657
11
-6.78919439877
21
11.8426421095
0
LINE
8
cam
10
-6.78919439877
20
11.8426421095
11
-6.94231991834
21
11.807867893
0
LINE
8
cam
10
-6.94231991834
20
11.807867893
11
-7.0965166844
21
11.763373513
0
LINE
8
cam
10
-7.0965166844
20
11.763373513
11
-7.25048114105
21
11.709106084
0
LINE
8
cam
10
-7.25048114105
20
11.709106084
11
-7.40289968977
21
11.6451918744
0
LINE
8
cam
10
-7.40289968977
20
11.6451918744
11
-7.55247788332
21
11.5719357801
0
LINE
8
cam
10
-7.55247788332
20
11.5719357801
11
-7.69796841329
21
11.4898163441
0
LINE
8
cam
10
-7.69796841329
20
11.4898163441
11
-7.8381975182
21
11.399476534
0
LINE
8
cam
10
-7.8381975182
20
11.399476534
11
-7.97208941982
21
11.3017104933
0
LINE
8
cam
10
-7.97208941982
20
11.3017104933
11
-8.09868839141
21
11.1974464982
0
LINE
8
cam
10
-8.09868839141
20
11.1974464982
11
-8.21717806808
21
11.0877263469
0
LINE
8
cam
10
-8.21717806808
20
11.0877263469
11
-8.32689762402
21
10.9736814086
0
LINE
8
cam
10
-8.32689762402
20
10.9736814086
11
-8.42735446112
21
10.8565055286
0
LINE
8
cam
10
-8.42735446112
20
10.8565055286
11
-8.51823307589
21
10.7374249368
0
LINE
8
cam
10
-8.51823307589
20
10.7374249368
11
-8.59939979375
21
10.6176652172
0
LINE
8
cam
10
-8.59939979375
20
10.6176652172
11
-8.67090308063
21
10.4984152442
0
LINE
8
cam
10
-8.67090308063
20
10.4984152442
11
-8.85244818137
21
10.5411771765
0
LINE
8
cam
10
-8.85244818137
20
10.5411771765
11
-8.90685186518
21
10.4251279324
0
LINE
8
cam
10
-8.90685186518
20
10.4251279324
11
-8.95265623297
21
10.3125816276
0
LINE
8
cam
10
-8.95265623297
20
10.3125816276
11
-8.99054672635
21
10.2041401675
0
LINE
8
cam
10
-8.99054672635
20
10.2041401675
11
-9.02132022793
21
10.100111627
0
LINE
8
cam
10
-9.02132022793
20
10.100111627
11
-9.04585489942
21
10.000426563
0
LINE
8
cam
10
-9.04585489942
20
10.000426563
11
-9.06507594791
21
9.90452893172
0
LINE
8
cam
10
-9.06507594791
20
9.90452893172
11
-9.07992026803
21
9.8112270878
0
LINE
8
cam
10
-9.07992026803
20
9.8112270878
11
-9.09130734969
21
9.71848142451
0
LINE
8
cam
10
-9.09130734969
20
9.71848142451
11
-9.10013421906
21
9.62309117503
0
LINE
8
cam
10
-9.10013421906
20
9.62309117503
11
-9.10733641045
21
9.52022240064
0
LINE
8
cam
10
-9.10733641045
20
9.52022240064
11
-9.11411331622
21
9.40269612548
0
LINE
8
cam
10
-9.11411331622
20
9.40269612548
11
-9.12254440397
21
9.25995853485
0
LINE
8
cam
10
-9.12254440397
20
9.25995853485
11
-9.13709210574
21
9.07680791075
0
LINE
8
cam
10
-9.13709210574
20
9.07680791075
11
-9.16791736407
21
8.83268770338
0
LINE
8
cam
10
-9.16791736407
20
8.83268770338
11
-9.23688020103
21
8.50478705
0
LINE
8
cam
10
-9.23688020103
20
8.50478705
11
-9.23902443294
21
7.94418571441
0
LINE
8
cam
10
-9.23902443294
20
7.94418571441
11
-9.49950201592
21
7.46979649756
0
LINE
8
cam
10
-9.49950201592
20
7.46979649756
11
-9.87828172525
21
7.02910124313
0
LINE
8
cam
10
-9.87828172525
20
7.02910124313
11
-10.3001395937
21
6.70500173355
0
LINE
8
cam
10
-10.3001395937
20
6.70500173355
11
-10.8445638027
21
6.61730865494
0
LINE
8
cam
10
-10.8445638027
20
6.61730865494
11
-11.1464140604
21
6.49999042648
0
LINE
8
cam
10
-11.1464140604
20
6.49999042648
11
-11.3741201411
21
6.43118922468
0
LINE
8
cam
10
-11.3741201411
20
6.43118922468
11
-11.546813443
21
6.38701817203
0
LINE
8
cam
10
-11.546813443
20
6.38701817203
11
-11.6825741732
21
6.35486462995
0
LINE
8
cam
10
-11.6825741732
20
6.35486462995
11
-11.795097599
21
6.32817358121
0
LINE
8
cam
10
-11.795097599
20
6.32817358121
11
-11.8940127546
21
6.30328745331
0
LINE
8
cam
10
-11.8940127546
20
6.30328745331
11
-11.9858893422
21
6.27788032918
0
LINE
8
cam
10
-11.9858893422
20
6.27788032918
11
-12.0751191063
21
6.25023912544
0
LINE
8
cam
10
-12.0751191063
20
6.25023912544
11
-12.164551663
21
6.21894924167
0
LINE
8
cam
10
-12.164551663
20
6.21894924167
11
-12.2559296748
21
6.18276681965
0
LINE
8
cam
10
-12.2559296748
20
6.18276681965
11
-12.3501854538
21
6.14057576173
0
LINE
8
cam
10
-12.3501854538
20
6.14057576173
11
-12.4476469238
21
6.09138228044
0
LINE
8
cam
10
-12.4476469238
20
6.09138228044
11
-12.5481852091
21
6.03432490467
0
LINE
8
cam
10
-12.5481852091
20
6.03432490467
11
-12.6513245798
21
5.96868949369
0
LINE
8
cam
10
-12.6513245798
20
5.96868949369
11
-12.7563278562
21
5.89392425853
0
LINE
8
cam
10
-12.7563278562
20
5.89392425853
11
-12.6826503543
21
5.72168423691
0
LINE
8
cam
10
-12.6826503543
20
5.72168423691
11
-12.7875987928
21
5.62949048259
0
LINE
8
cam
10
-12.7875987928
20
5.62949048259
11
-12.8912415867
21
5.52769993801
0
LINE
8
cam
10
-12.8912415867
20
5.52769993801
11
-12.9923971301
21
5.41649215833
0
LINE
8
cam
10
-12.9923971301
20
5.41649215833
11
-13.089883428
21
5.29623191297
0
LINE
8
cam
10
-13.089883428
20
5.29623191297
11
-13.1825531276
21
5.16746217935
0
LINE
8
cam
10
-13.1825531276
20
5.16746217935
11
-13.26932482
21
5.03089333495
0
LINE
8
cam
10
-13.26932482
20
5.03089333495
11
-13.3492107354
21
4.88738882316
0
LINE
8
cam
10
-13.3492107354
20
4.88738882316
11
-13.4213408165
21
4.73794761332
0
LINE
8
cam
10
-13.4213408165
20
4.73794761332
11
-13.4849830785
21
4.58368381215
0
LINE
8
cam
10
-13.4849830785
20
4.58368381215
11
-13.539560117
21
4.4258038145
0
LINE
8
cam
10
-13.539560117
20
4.4258038145
11
-13.5846616078
21
4.26558140364
0
LINE
8
cam
10
-13.5846616078
20
4.26558140364
11
-13.6200526394
21
4.10433122635
0
LINE
8
cam
10
-13.6200526394
20
4.10433122635
11
-13.6456777225
21
3.94338107283
0
LINE
8
cam
10
-13.6456777225
20
3.94338107283
11
-13.6616603309
21
3.78404338398
0
LINE
8
cam
10
-13.6616603309
20
3.78404338398
11
-13.6682978313
21
3.62758638701
0
LINE
8
cam
10
-13.6682978313
20
3.62758638701
11
-13.6660516513
21
3.47520521913
0
LINE
8
cam
10
-13.6660516513
20
3.47520521913
11
-13.6555325114
21
3.32799333289
0
LINE
8
cam
10
-13.6555325114
20
3.32799333289
11
-13.6374804887
21
3.18691437596
0
LINE
8
cam
10
-13.6374804887
20
3.18691437596
11
-13.6127395803
21
3.05277458731
0
LINE
8
cam
10
-13.6127395803
20
3.05277458731
11
-13.7770275394
21
2.97149964026
0
LINE
8
cam
10
-13.7770275394
20
2.97149964026
11
-13.7420646171
21
2.8512600534
0
LINE
8
cam
10
-13.7420646171
20
2.8512600534
11
-13.7031796989
21
2.73927472742
0
LINE
8
cam
10
-13.7031796989
20
2.73927472742
11
-13.6612472336
21
2.63543707753
0
LINE
8
cam
10
-13.6612472336
20
2.63543707753
11
-13.6170060305
21
2.53932542471
0
LINE
8
cam
10
-13.6170060305
20
2.53932542471
11
-13.5709744468
21
2.45015198137
0
LINE
8
cam
10
-13.5709744468
20
2.45015198137
11
-13.5233432744
21
2.36669007986
0
LINE
8
cam
10
-13.5233432744
20
2.36669007986
11
-13.4738381959
21
2.28716300336
0
LINE
8
cam
10
-13.4738381959
20
2.28716300336
11
-13.4215415968
21
2.20906521518
0
LINE
8
cam
10
-13.4215415968
20
2.20906521518
11
-13.3646642729
21
2.12886414126
0
LINE
8
cam
10
-13.3646642729
20
2.12886414126
11
-13.3002699326
21
2.04149048436
0
LINE
8
cam
10
-13.3002699326
20
2.04149048436
11
-13.2240062793
21
1.9394587804
0
LINE
8
cam
10
-13.2240062793
20
1.9394587804
11
-13.1300630359
21
1.81137670142
0
LINE
8
cam
10
-13.1300630359
20
1.81137670142
11
-13.0120561773
21
1.63962536711
0
LINE
8
cam
10
-13.0120561773
20
1.63962536711
11
-12.8666750836
21
1.39774106398
0
LINE
8
cam
10
-12.8666750836
20
1.39774106398
11
-12.504210179
21
1.03362342682
0
LINE
8
cam
10
-12.504210179
20
1.03362342682
11
-12.3601730208
21
0.566314796621
0
LINE
8
cam
10
-12.3601730208
20
0.566314796621
11
-12.3
21
6.40201325112e-15
0
LINE
8
cam
10
-12.3
20
6.40201325112e-15
11
-12.3601730208
21
-0.566314796621
0
LINE
8
cam
10
-12.3601730208
20
-0.566314796621
11
-12.504210179
21
-1.03362342682
0
LINE
8
cam
10
-12.504210179
20
-1.03362342682
11
-12.8666750836
21
-1.39774106398
0
LINE
8
cam
10
-12.8666750836
20
-1.39774106398
11
-13.0120561773
21
-1.63962536711
0
LINE
8
cam
10
-13.0120561773
20
-1.63962536711
11
-13.1300630359
21
-1.81137670142
0
LINE
8
cam
10
-13.1300630359
20
-1.81137670142
11
-13.2240062793
21
-1.9394587804
0
LINE
8
cam
10
-13.2240062793
20
-1.9394587804
11
-13.3002699326
21
-2.04149048436
0
LINE
8
cam
10
-13.3002699326
20
-2.04149048436
11
-13.3646642729
21
-2.12886414126
0
LINE
8
cam
10
-13.3646642729
20
-2.12886414126
11
-13.4215415968
21
-2.20906521518
0
LINE
8
cam
10
-13.4215415968
20
-2.20906521518
11
-13.4738381959
21
-2.28716300336
0
LINE
8
cam
10
-13.4738381959
20
-2.28716300336
11
-13.5233432744
21
-2.36669007986
0
LINE
8
cam
10
-13.5233432744
20
-2.36669007986
11
-13.5709744468
21
-2.45015198137
0
LINE
8
cam
10
-13.5709744468
20
-2.45015198137
11
-13.6170060305
21
-2.53932542471
0
LINE
8
cam
10
-13.6170060305
20
-2.53932542471
11
-13.6612472336
21
-2.63543707753
0
LINE
8
cam
10
-13.6612472336
20
-2.63543707753
11
-13.7031796989
21
-2.73927472742
0
LINE
8
cam
10
-13.7031796989
20
-2.73927472742
11
-13.7420646171
21
-2.8512600534
0
LINE
8
cam
10
-13.7420646171
20
-2.8512600534
11
-13.7770275394
21
-2.97149964026
0
LINE
8
cam
10
-13.7770275394
20
-2.97149964026
11
-13.6127395803
21
-3.05277458731
0
LINE
8
cam
10
-13.6127395803
20
-3.05277458731
11
-13.6374804887
21
-3.18691437596
0
LINE
8
cam
10
-13.6374804887
20
-3.18691437596
11
-13.6555325114
21
-3.32799333289
0
LINE
8
cam
10
-13.6555325114
20
-3.32799333289
11
-13.6660516513
21
-3.47520521913
0
LINE
8
cam
10
-13.6660516513
20
-3.47520521913
11
-13.6682978313
21
-3.62758638701
0
LINE
8
cam
10
-13.6682978313
20
-3.62758638701
11
-13.6616603309
21
-3.78404338398
0
LINE
8
cam
10
-13.6616603309
20
-3.78404338398
11
-13.6456777225
21
-3.94338107283
0
LINE
8
cam
10
-13.6456777225
20
-3.94338107283
11
-13.6200526394
21
-4.10433122635
0
LINE
8
cam
10
-13.6200526394
20
-4.10433122635
11
-13.5846616078
21
-4.26558140364
0
LINE
8
cam
10
-13.5846616078
20
-4.26558140364
11
-13.539560117
21
-4.4258038145
0
LINE
8
cam
10
-13.539560117
20
-4.4258038145
11
-13.4849830785
21
-4.58368381215
0
LINE
8
cam
10
-13.4849830785
20
-4.58368381215
11
-13.4213408165
21
-4.73794761332
0
LINE
8
cam
10
-13.4213408165
20
-4.73794761332
11
-13.3492107354
21
-4.88738882316
0
LINE
8
cam
10
-13.3492107354
20
-4.88738882316
11
-13.26932482
21
-5.03089333495
0
LINE
8
cam
10
-13.26932482
20
-5.03089333495
11
-13.1825531276
21
-5.16746217935
0
LINE
8
cam
10
-13.1825531276
20
-5.16746217935
11
-13.089883428
21
-5.29623191297
0
LINE
8
cam
10
-13.089883428
20
-5.29623191297
11
-12.9923971301
21
-5.41649215833
0
LINE
8
cam
10
-12.9923971301
20
-5.41649215833
11
-12.8912415867
21
-5.52769993801
0
LINE
8
cam
10
-12.8912415867
20
-5.52769993801
11
-12.7875987928
21
-5.62949048259
0
LINE
8
cam
10
-12.7875987928
20
-5.62949048259
11
-12.6826503543
21
-5.72168423691
0
LINE
8
cam
10
-12.6826503543
20
-5.72168423691
11
-12.7563278562
21
-5.89392425853
0
LINE
8
cam
10
-12.7563278562
20
-5.89392425853
11
-12.6513245798
21
-5.96868949369
0
LINE
8
cam
10
-12.6513245798
20
-5.96868949369
11
-12.5481852091
21
-6.03432490467
0
LINE
8
cam
10
-12.5481852091
20
-6.03432490467
11
-12.4476469238
21
-6.09138228044
0
LINE
8
cam
10
-12.4476469238
20
-6.09138228044
11
-12.3501854538
21
-6.14057576173
0
LINE
8
cam
10
-12.3501854538
20
-6.14057576173
11
-12.2559296748
21
-6.18276681965
0
LINE
8
cam
10
-12.2559296748
20
-6.18276681965
11
-12.164551663
21
-6.21894924167
0
LINE
8
cam
10
-12.164551663
20
-6.21894924167
11
-12.0751191063
21
-6.25023912544
0
LINE
8
cam
10
-12.0751191063
20
-6.25023912544
11
-11.9858893422
21
-6.27788032918
0
LINE
8
cam
10
-11.9858893422
20
-6.27788032918
11
-11.8940127546
21
-6.30328745331
0
LINE
8
cam
10
-11.8940127546
20
-6.30328745331
11
-11.795097599
21
-6.32817358121
0
LINE
8
cam
10
-11.795097599
20
-6.32817358121
11
-11.6825741732
21
-6.35486462995
0
LINE
8
cam
10
-11.6825741732
20
-6.35486462995
11
-11.546813443
21
-6.38701817203
0
LINE
8
cam
10
-11.546813443
20
-6.38701817203
11
-11.3741201411
21
-6.43118922468
0
LINE
8
cam
10
-11.3741201411
20
-6.43118922468
11
-11.1464140604
21
-6.49999042648
0
LINE
8
cam
10
-11.1464140604
20
-6.49999042648
11
-10.8445638027
21
-6.61730865494
0
LINE
8
cam
10
-10.8445638027
20
-6.61730865494
11
-10.3001395937
21
-6.70500173355
0
LINE
8
cam
10
-10.3001395937
20
-6.70500173355
11
-9.87828172525
21
-7.02910124313
0
LINE
8
cam
10
-9.87828172525
20
-7.02910124313
11
-9.49950201592
21
-7.46979649756
0
LINE
8
cam
10
-9.49950201592
20
-7.46979649756
11
-9.23902443294
21
-7.94418571441
0
LINE
8
cam
10
-9.23902443294
20
-7.94418571441
11
-9.23688020103
21
-8.50478705
0
LINE
8
cam
10
-9.23688020103
20
-8.50478705
11
-9.16791736407
21
-8.83268770338
0
LINE
8
cam
10
-9.16791736407
20
-8.83268770338
11
-9.13709210574
21
-9.07680791075
0
LINE
8
cam
10
-9.13709210574
20
-9.07680791075
11
-9.12254440397
21
-9.25995853485
0
LINE
8
cam
10
-9.12254440397
20
-9.25995853485
11
-9.11411331622
21
-9.40269612548
0
LINE
8
cam
10
-9.11411331622
20
-9.40269612548
11
-9.10733641045
21
-9.52022240064
0
LINE
8
cam
10
-9.10733641045
20
-9.52022240064
11
-9.10013421906
21
-9.62309117503
0
LINE
8
cam
10
-9.10013421906
20
-9.62309117503
11
-9.09130734969
21
-9.71848142451
0
LINE
8
cam
10
-9.09130734969
20
-9.71848142451
11
-9.07992026803
21
-9.8112270878
0
LINE
8
cam
10
-9.07992026803
20
-9.8112270878
11
-9.06507594791
21
-9.90452893172
0
LINE
8
cam
10
-9.06507594791
20
-9.90452893172
11
-9.04585489942
21
-10.000426563
0
LINE
8
cam
10
-9.04585489942
20
-10.000426563
11
-9.02132022793
21
-10.100111627
0
LINE
8
cam
10
-9.02132022793
20
-10.100111627
11
-8.99054672635
21
-10.2041401675
0
LINE
8
cam
10
-8.99054672635
20
-10.2041401675
11
-8.95265623297
21
-10.3125816276
0
LINE
8
cam
10
-8.95265623297
20
-10.3125816276
11
-8.90685186518
21
-10.4251279324
0
LINE
8
cam
10
-8.90685186518
20
-10.4251279324
11
-8.85244818137
21
-10.5411771765
0
LINE
8
cam
10
-8.85244818137
20
-10.5411771765
11
-8.67090308063
21
-10.4984152442
0
LINE
8
cam
10
-8.67090308063
20
-10.4984152442
11
-8.59939979375
21
-10.6176652172
0
LINE
8
cam
10
-8.59939979375
20
-10.6176652172
11
-8.51823307589
21
-10.7374249368
0
LINE
8
cam
10
-8.51823307589
20
-10.7374249368
11
-8.42735446112
21
-10.8565055286
0
LINE
8
cam
10
-8.42735446112
20
-10.8565055286
11
-8.32689762402
21
-10.9736814086
0
LINE
8
cam
10
-8.32689762402
20
-10.9736814086
11
-8.21717806808
21
-11.0877263469
0
LINE
8
cam
10
-8.21717806808
20
-11.0877263469
11
-8.09868839141
21
-11.1974464982
0
LINE
8
cam
10
-8.09868839141
20
-11.1974464982
11
-7.97208941982
21
-11.3017104933
0
LINE
8
cam
10
-7.97208941982
20
-11.3017104933
11
-7.8381975182
21
-11.399476534
0
LINE
8
cam
10
-7.8381975182
20
-11.399476534
11
-7.69796841329
21
-11.4898163441
0
LINE
8
cam
10
-7.69796841329
20
-11.4898163441
11
-7.55247788332
21
-11.5719357801
0
LINE
8
cam
10
-7.55247788332
20
-11.5719357801
11
-7.40289968977
21
-11.6451918744
0
LINE
8
cam
10
-7.40289968977
20
-11.6451918744
11
-7.25048114105
21
-11.709106084
0
LINE
8
cam
10
-7.25048114105
20
-11.709106084
11
-7.0965166844
21
-11.763373513
0
LINE
8
cam
10
-7.0965166844
20
-11.763373513
11
-6.94231991834
21
-11.807867893
0
LINE
8
cam
10
-6.94231991834
20
-11.807867893
11
-6.78919439877
21
-11.8426421095
0
LINE
8
cam
10
-6.78919439877
20
-11.8426421095
11
-6.63840357285
21
-11.8679240657
0
LINE
8
cam
10
-6.63840357285
20
-11.8679240657
11
-6.49114010902
21
-11.8841076608
0
LINE
8
cam
10
-6.49114010902
20
-11.8841076608
11
-6.34849478705
21
-11.8917386301
0
LINE
8
cam
10
-6.34849478705
20
-11.8917386301
11
-6.21142495382
21
-11.8914949193
0
LINE
8
cam
10
-6.21142495382
20
-11.8914949193
11
-6.15934286036
21
-12.0680600595
0
LINE
8
cam
10
-6.15934286036
20
-12.0680600595
11
-6.03404684227
21
-12.0551517132
0
LINE
8
cam
10
-6.03404684227
20
-12.0551517132
11
-5.91617509762
21
-12.0368477553
0
LINE
8
cam
10
-5.91617509762
20
-12.0368477553
11
-5.80580830773
21
-12.0140326566
0
LINE
8
cam
10
-5.80580830773
20
-12.0140326566
11
-5.70269945467
21
-11.9875193867
0
LINE
8
cam
10
-5.70269945467
20
-11.9875193867
11
-5.60621092005
21
-11.9579764962
0
LINE
8
cam
10
-5.60621092005
20
-11.9579764962
11
-5.5152277395
21
-11.9258375245
0
LINE
8
cam
10
-5.5152277395
20
-11.9258375245
11
-5.42803023845
21
-11.8911877079
0
LINE
8
cam
10
-5.42803023845
20
-11.8911877079
11
-5.34209730587
21
-11.8536228568
0
LINE
8
cam
10
-5.34209730587
20
-11.8536228568
11
-5.253790704
21
-11.8120791286
0
LINE
8
cam
10
-5.253790704
20
-11.8120791286
11
-5.1578353934
21
-11.7646490744
0
LINE
8
cam
10
-5.1578353934
20
-11.7646490744
11
-5.04645633953
21
-11.7084537828
0
LINE
8
cam
10
-5.04645633953
20
-11.7084537828
11
-4.90797538411
21
-11.6398002326
0
LINE
8
cam
10
-4.90797538411
20
-11.6398002326
11
-4.72474256581
21
-11.5552759498
0
LINE
8
cam
10
-4.72474256581
20
-11.5552759498
11
-4.47105242467
21
-11.4553620064
0
LINE
8
cam
10
-4.47105242467
20
-11.4553620064
11
-4.06202989746
21
-11.1602719681
0
LINE
8
cam
10
-4.06202989746
20
-11.1602719681
11
-3.58977906871
21
-11.0920599837
0
LINE
8
cam
10
-3.58977906871
20
-11.0920599837
11
-3.02651172632
21
-11.1177940356
0
LINE
8
cam
10
-3.02651172632
20
-11.1177940356
11
-2.47129046426
21
-11.2637862949
0
LINE
8
cam
10
-2.47129046426
20
-11.2637862949
11
-2.02148630158
21
-11.4832676161
0
LINE
8
cam
10
-2.02148630158
20
-11.4832676161
11
-1.71322807373
21
-11.906057092
0
LINE
8
cam
10
-1.71322807373
20
-11.906057092
11
-1.49107002872
21
-12.0957304395
0
LINE
8
cam
10
-1.49107002872
20
-12.0957304395
11
-1.33673033337
21
-12.2458172515
0
LINE
8
cam
10
-1.33673033337
20
-12.2458172515
11
-1.22353571024
21
-12.363573263
0
LINE
8
cam
10
-1.22353571024
20
-12.363573263
11
-1.1343771326
21
-12.4584137086
0
LINE
8
cam
10
-1.1343771326
20
-12.4584137086
11
-1.05851475855
21
-12.5382706175
0
LINE
8
cam
10
-1.05851475855
20
-12.5382706175
11
-0.989020494476
21
-12.6089557713
0
LINE
8
cam
10
-0.989020494476
20
-12.6089557713
11
-0.92122423137
21
-12.6744217931
0
LINE
8
cam
10
-0.92122423137
20
-12.6744217931
11
-0.851839065814
21
-12.7371799976
0
LINE
8
cam
10
-0.851839065814
20
-12.7371799976
11
-0.778476518379
21
-12.7986692092
0
LINE
8
cam
10
-0.778476518379
20
-12.7986692092
11
-0.699375783766
21
-12.8595412383
0
LINE
8
cam
10
-0.699375783766
20
-12.8595412383
11
-0.613249509437
21
-12.9198742642
0
LINE
8
cam
10
-0.613249509437
20
-12.9198742642
11
-0.519193215468
21
-12.9793325187
0
LINE
8
cam
10
-0.519193215468
20
-12.9793325187
11
-0.416629513374
21
-13.0372878692
0
LINE
8
cam
10
-0.416629513374
20
-13.0372878692
11
-0.305271148969
21
-13.0929146388
0
LINE
8
cam
10
-0.305271148969
20
-13.0929146388
11
-0.197468582136
21
-12.9456486323
0
LINE
8
cam
10
-0.197468582136
20
-12.9456486323
11
-0.0705829714534
21
-12.9938427936
0
LINE
8
cam
10
-0.0705829714534
20
-12.9938427936
11
0.0643582116434
21
-13.036765711
0
LINE
8
cam
10
0.0643582116434
20
-13.036765711
11
0.206728108023
21
-13.0734399635
0
LINE
8
cam
10
0.206728108023
20
-13.0734399635
11
0.355724354631
21
-13.1029594722
0
LINE
8
cam
10
0.355724354631
20
-13.1029594722
11
0.510391690797
21
-13.1245199638
0
LINE
8
cam
10
0.510391690797
20
-13.1245199638
11
0.669646028719
21
-13.1374440603
0
LINE
8
cam
10
0.669646028719
20
-13.1374440603
11
0.832299906974
21
-13.1412013332
0
LINE
8
cam
10
0.832299906974
20
-13.1412013332
11
0.997089109274
21
-13.1354235273
0
LINE
8
cam
10
0.997089109274
20
-13.1354235273
11
1.16270013716
21
-13.119915084
0
LINE
8
cam
10
1.16270013716
20
-13.119915084
11
1.32779816197
21
-13.0946590482
0
LINE
8
cam
10
1.32779816197
20
-13.0946590482
11
1.49105503996
21
-13.0598184344
0
LINE
8
cam
10
1.49105503996
20
-13.0598184344
11
1.65117695072
21
-13.015733119
0
LINE
8
cam
10
1.65117695072
20
-13.015733119
11
1.80693120873
21
-12.9629123371
0
LINE
8
cam
10
1.80693120873
20
-12.9629123371
11
1.95717180087
21
-12.9020228678
0
LINE
8
cam
10
1.95717180087
20
-12.9020228678
11
2.10086321617
21
-12.8338729887
0
LINE
8
cam
10
2.10086321617
20
-12.8338729887
11
2.23710215866
21
-12.7593922726
0
LINE
8
cam
10
2.23710215866
20
-12.7593922726
11
2.36513677061
21
-12.6796072615
0
LINE
8
cam
10
2.36513677061
20
-12.6796072615
11
2.48438304181
21
-12.5956129846
0
LINE
8
cam
10
2.48438304181
20
-12.5956129846
11
2.59443814624
21
-12.5085401715
0
LINE
8
cam
10
2.59443814624
20
-12.5085401715
11
2.69509053638
21
-12.4195178184
0
LINE
8
cam
10
2.69509053638
20
-12.4195178184
11
2.8450390077
21
-12.5208185174
0
LINE
8
cam
10
2.8450390077
20
-12.5208185174
11
2.92860545777
21
-12.4305716847
0
LINE
8
cam
10
2.92860545777
20
-12.4305716847
11
3.0032162123
21
-12.3413154677
0
LINE
8
cam
10
3.0032162123
20
-12.3413154677
11
3.06946917463
21
-12.253671781
0
LINE
8
cam
10
3.06946917463
20
-12.253671781
11
3.12816744668
21
-12.1679571956
0
LINE
8
cam
10
3.12816744668
20
-12.1679571956
11
3.18032288755
21
-12.0840752397
0
LINE
8
cam
10
3.18032288755
20
-12.0840752397
11
3.2271700911
21
-12.0013741124
0
LINE
8
cam
10
3.2271700911
20
-12.0013741124
11
3.27020368194
21
-11.918452072
0
LINE
8
cam
10
3.27020368194
20
-11.918452072
11
3.31126426499
21
-11.8328837228
0
LINE
8
cam
10
3.31126426499
20
-11.8328837228
11
3.35272374496
21
-11.7408293767
0
LINE
8
cam
10
3.35272374496
20
-11.7408293767
11
3.39787271958
21
-11.6364835312
0
LINE
8
cam
10
3.39787271958
20
-11.6364835312
11
3.45171617896
21
-11.511347418
0
LINE
8
cam
10
3.45171617896
20
-11.511347418
11
3.52256741281
21
-11.3534820216
0
LINE
8
cam
10
3.52256741281
20
-11.3534820216
11
3.6250284478
21
-11.14754302
0
LINE
8
cam
10
3.6250284478
20
-11.14754302
11
3.78448023067
21
-10.878275113
0
LINE
8
cam
10
3.78448023067
20
-10.878275113
11
3.95296196525
21
-10.3630005302
0
LINE
8
cam
10
3.95296196525
20
-10.3630005302
11
4.33055139333
21
-10.0024685324
0
LINE
8
cam
10
4.33055139333
20
-10.0024685324
11
4.82216506691
21
-9.69484398476
0
LINE
8
cam
10
4.82216506691
20
-9.69484398476
11
5.33854837766
21
-9.50657938707
0
LINE
8
cam
10
5.33854837766
20
-9.50657938707
11
5.78475689177
21
-9.43026284701
0
LINE
8
cam
10
5.78475689177
20
-9.43026284701
11
6.24782131913
21
-9.57720918602
0
LINE
8
cam
10
6.24782131913
20
-9.57720918602
11
6.50218088078
21
-9.58784237216
0
LINE
8
cam
10
6.50218088078
20
-9.58784237216
11
6.69085617343
21
-9.60516621291
0
LINE
8
cam
10
6.69085617343
20
-9.60516621291
11
6.83654468872
21
-9.62189528811
0
LINE
8
cam
10
6.83654468872
20
-9.62189528811
11
6.95564472857
21
-9.63595842428
0
LINE
8
cam
10
6.95564472857
20
-9.63595842428
11
7.05938528306
21
-9.64705434356
0
LINE
8
cam
10
7.05938528306
20
-9.64705434356
11
7.15536748006
21
-9.65524779781
0
LINE
8
cam
10
7.15536748006
20
-9.65524779781
11
7.24873343762
21
-9.66048163818
0
LINE
8
cam
10
7.24873343762
20
-9.66048163818
11
7.34294315518
21
-9.66245569172
0
LINE
8
cam
10
7.34294315518
20
-9.66245569172
11
7.44027395076
21
-9.66064084464
0
LINE
8
cam
10
7.44027395076
20
-9.66064084464
11
7.5421429532
21
-9.65433636666
0
LINE
8
cam
10
7.5421429532
20
-9.65433636666
11
7.64932034451
21
-9.64273551771
0
LINE
8
cam
10
7.64932034451
20
-9.64273551771
11
7.7620755849
21
-9.62498702058
0
LINE
8
cam
10
7.7620755849
20
-9.62498702058
11
7.88028237302
21
-9.60024865715
0
LINE
8
cam
10
7.88028237302
20
-9.60024865715
11
8.00349799626
21
-9.56773242161
0
LINE
8
cam
10
8.00349799626
20
-9.56773242161
11
7.99263581206
21
-9.38235339075
0
LINE
8
cam
10
7.99263581206
20
-9.38235339075
11
8.12218075899
21
-9.33366864692
0
LINE
8
cam
10
8.12218075899
20
-9.33366864692
11
8.25402909056
21
-9.27559428611
0
LINE
8
cam
10
8.25402909056
20
-9.27559428611
11
8.38702824035
21
-9.2078575011
0
LINE
8
cam
10
8.38702824035
20
-9.2078575011
11
8.51995376402
21
-9.13035750677
0
LINE
8
cam
10
8.51995376402
20
-9.13035750677
11
8.65154516644
21
-9.04317205734
0
LINE
8
cam
10
8.65154516644
20
-9.04317205734
11
8.78053949437
21
-8.94655904706
0
LINE
8
cam
10
8.78053949437
20
-8.94655904706
11
8.90570275519
21
-8.84095349766
0
LINE
8
cam
10
8.90570275519
20
-8.84095349766
11
9.02585906624
21
-8.72696022869
0
LINE
8
cam
10
9.02585906624
20
-8.72696022869
11
9.1399173403
21
-8.60534251219
0
LINE
8
cam
10
9.1399173403
20
-8.60534251219
11
9.2468952545
21
-8.47700702591
0
LINE
8
cam
10
9.2468952545
20
-8.47700702591
11
9.3459402192
21
-8.3429854338
0
LINE
8
cam
10
9.3459402192
20
-8.3429854338
11
9.43634705202
21
-8.20441293646
0
LINE
8
cam
10
9.43634705202
20
-8.20441293646
11
9.5175720632
21
-8.06250414192
0
LINE
8
cam
10
9.5175720632
20
-8.06250414192
11
9.5892432676
21
-7.91852660592
0
LINE
8
cam
10
9.5892432676
20
-7.91852660592
11
9.65116644982
21
-7.77377237557
0
LINE
8
cam
10
9.65116644982
20
-7.77377237557
11
9.70332681763
21
-7.62952783438
0
LINE
8
cam
10
9.70332681763
20
-7.62952783438
11
9.74588598022
21
-7.48704208387
0
LINE
8
cam
10
9.74588598022
20
-7.48704208387
11
9.77917397359
21
-7.34749399342
0
LINE
8
cam
10
9.77917397359
20
-7.34749399342
11
9.80367601829
21
-7.21195788986
0
LINE
8
cam
10
9.80367601829
20
-7.21195788986
11
9.98735975988
21
-7.19089053487
0
LINE
8
cam
10
9.98735975988
20
-7.19089053487
11
9.99719034398
21
-7.06457515074
0
LINE
8
cam
10
9.99719034398
20
-7.06457515074
11
10.0003242763
21
-6.94459038233
0
LINE
8
cam
10
10.0003242763
20
-6.94459038233
11
9.99761682355
21
-6.83120267616
0
LINE
8
cam
10
9.99761682355
20
-6.83120267616
11
9.98991578623
21
-6.72435049351
0
LINE
8
cam
10
9.98991578623
20
-6.72435049351
11
9.97800194514
21
-6.62357191412
0
LINE
8
cam
10
9.97800194514
20
-6.62357191412
11
9.96251649491
21
-6.52790712663
0
LINE
8
cam
10
9.96251649491
20
-6.52790712663
11
9.94387335648
21
-6.43575937931
0
LINE
8
cam
10
9.94387335648
20
-6.43575937931
11
9.92215591748
21
-6.34468683328
0
LINE
8
cam
10
9.92215591748
20
-6.34468683328
11
9.8970042497
21
-6.25107898288
0
LINE
8
cam
10
9.8970042497
20
-6.25107898288
11
9.86751888579
21
-6.14964083302
0
LINE
8
cam
10
9.86751888579
20
-6.14964083302
11
9.83226366624
21
-6.03256469793
0
LINE
8
cam
10
9.83226366624
20
-6.03256469793
11
9.78960031586
21
-5.88823560809
0
LINE
8
cam
10
9.78960031586
20
-5.88823560809
11
9.73895634344
21
-5.69942332169
0
LINE
8
cam
10
9.73895634344
20
-5.69942332169
11
9.68436939031
21
-5.44169401488
0
LINE
8
cam
10
9.68436939031
20
-5.44169401488
11
9.46178277313
21
-4.99952894382
0
LINE
8
cam
10
9.46178277313
20
-4.99952894382
11
9.46767662712
21
-4.53454510496
0
LINE
8
cam
10
9.46767662712
20
-4.53454510496
11
9.57699006739
21
-3.98816368476
0
LINE
8
cam
10
9.57699006739
20
-3.98816368476
11
9.80626512847
21
-3.45803731003
0
LINE
8
cam
10
9.80626512847
20
-3.45803731003
11
10.098636629
21
-3.03827741548
0
LINE
8
cam
10
10.098636629
20
-3.03827741548
11
10.5729026864
21
-2.79570686505
0
LINE
8
cam
10
10.5729026864
20
-2.79570686505
11
10.8043298511
21
-2.60112725715
0
LINE
8
cam
10
10.8043298511
20
-2.60112725715
11
10.9840675018
21
-2.46998932134
0
LINE
8
cam
10
10.9840675018
20
-2.46998932134
11
11.1233827916
21
-2.37597925865
0
LINE
8
cam
10
11.1233827916
20
-2.37597925865
11
11.2347045609
21
-2.30299266853
0
LINE
8
cam
10
11.2347045609
20
-2.30299266853
11
11.3280291615
21
-2.24131686107
0
LINE
8
cam
10
11.3280291615
20
-2.24131686107
11
11.4105667387
21
-2.18485219738
0
LINE
8
cam
10
11.4105667387
20
-2.18485219738
11
11.4872384067
21
-2.12952298041
0
LINE
8
cam
10
11.4872384067
20
-2.12952298041
11
11.5612480201
21
-2.07243010483
0
LINE
8
cam
10
11.5612480201
20
-2.07243010483
11
11.6345438201
21
-2.0114068853
0
LINE
8
cam
10
11.6345438201
20
-2.0114068853
11
11.7081585932
21
-1.94478595858
0
LINE
8
cam
10
11.7081585932
20
-1.94478595858
11
11.7824552712
21
-1.87127609746
0
LINE
8
cam
10
11.7824552712
20
-1.87127609746
11
11.857305884
21
-1.78989637584
0
LINE
8
cam
10
11.857305884
20
-1.78989637584
11
11.9322250302
21
-1.69994010967
0
LINE
8
cam
10
11.9322250302
20
-1.69994010967
11
12.0064724395
21
-1.60095383687
0
LINE
8
cam
10
12.0064724395
20
-1.60095383687
11
11.880424262
21
-1.47004450044
0
LINE
8
cam
10
11.880424262
20
-1.47004450044
11
11.9502745035
21
-1.35445764266
0
LINE
8
cam
10
11.9502745035
20
-1.35445764266
11
12.0164522632
21
-1.22998460906
0
LINE
8
cam
10
12.0164522632
20
-1.22998460906
11
12.0778840265
21
-1.09705148326
0
LINE
8
cam
10
12.0778840265
20
-1.09705148326
11
12.1335319586
21
-0.956271313213
0
LINE
8
cam
10
12.1335319586
20
-0.956271313213
11
12.1824284207
21
-0.80842740441
0
LINE
8
cam
10
12.1824284207
20
-0.80842740441
11
12.2237053981
21
-0.654454231277
0
LINE
8
cam
10
12.2237053981
20
-0.654454231277
11
12.2566191841
21
-0.495416090576
0
LINE
8
cam
10
12.2566191841
20
-0.495416090576
11
12.2805704956
21
-0.332483736402
0
LINE
8
cam
10
12.2805704956
20
-0.332483736402
11
12.2951201035
21
-0.166909318088
0
LINE
8
cam
10
12.2951201035
20
-0.166909318088
11
12.3
21
-3.24153761639e-15
0
CIRCLE
8
cam
10
-1.0
20
0
40
2.5
0
CIRCLE
8
roller
10
15.0
20
0.0
40
2.5
0
CIRCLE
8
roller
10
12.1352549156
20
8.81677878439
40
2.5
0
CIRCLE
8
roller
10
4.63525491562
20
14.2658477444
40
2.5
0
CIRCLE
8
roller
10
-4.63525491562
20
14.2658477444
40
2.5
0
CIRCLE
8
roller
10
-12.1352549156
20
8.81677878439
40
2.5
0
CIRCLE
8
roller
10
-15.0
20
1.83690953073e-15
40
2.5
0
CIRCLE
8
roller
10
-12.1352549156
20
-8.81677878439
40
2.5
0
CIRCLE
8
roller
10
-4.63525491562
20
-14.2658477444
40
2.5
0
CIRCLE
8
roller
10
4.63525491562
20
-14.2658477444
40
2.5
0
CIRCLE
8
roller
10
12.1352549156
20
-8.81677878439
40
2.5
0
CIRCLE
8
roller
10
0
20
0
40
2.5
0
ENDSEC
0
EOF
