0
SECTION
2
HEADER
9
$ACADVER
1
AC1006
9
$INSBASE
10
0.0
20
0.0
30
0.0
9
$EXTMIN
10
0.0
20
0.0
9
$EXTMAX
10
0.0
20
0.0
0
ENDSEC
0
SECTION
2
TABLES
0
TABLE
2
LTYPE
70
1
0
LTYPE
2
CONTINUOUS
70
64
3
Solid line
72
65
73
0
40
0.0
0
ENDTAB
0
TABLE
2
LAYER
70
5
0
LAYER
2
PYDXF
70
64
62
7
6
continuous
0
LAYER
2
TEXT
70
64
62
2
6
continuous
0
LAYER
2
CAM
70
64
62
1
6
continuous
0
LAYER
2
ROLLER
70
64
62
5
6
continuous
0
LAYER
2
PRESSURE
70
64
62
3
6
continuous
0
ENDTAB
0
TABLE
2
STYLE
70
1
0
STYLE
2
STANDARD
70
0
40
0
41
40
50
50
71
0
42
1
3
ARIAL.TTF
4

0
ENDTAB
0
TABLE
2
VIEW
70
0
0
ENDTAB
0
ENDSEC
0
SECTION
2
BLOCKS
0
ENDSEC
0
SECTION
2
ENTITIES
0
TEXT
8
text
10
35.0
20
0.7
40
0.1
1
pitch=3.33333333333
0
TEXT
8
text
10
35.0
20
0.5
40
0.1
1
pin diameter=5.0
0
TEXT
8
text
10
35.0
20
0.3
40
0.1
1
eccentricity=1.0
0
TEXT
8
text
10
35.0
20
0.1
40
0.1
1
# of teeth=9
0
TEXT
8
text
10
35.0
20
-0.1
40
0.1
1
pressure angle limit=50.0
0
TEXT
8
text
10
35.0
20
-0.3
40
0.1
1
pressure angle offset=0.2
0
TEXT
8
text
10
35.0
20
-0.5
40
0.1
1
min angle=13.0
0
TEXT
8
text
10
35.0
20
-0.7
40
0.1
1
max angle=112.0
0
CIRCLE
8
pressure
10
-1.0
20
0
40
26.8153955881
0
CIRCLE
8
pressure
10
-1.0
20
0
40
28.1559267535
0
LINE
8
cam
10
27.3
20
0.0
11
27.2918481192
21
0.397487923079
0
LINE
8
cam
10
27.2918481192
20
0.397487923079
11
27.2674858011
21
0.793456527131
0
LINE
8
cam
10
27.2674858011
20
0.793456527131
11
27.2271908654
21
1.18641706254
0
LINE
8
cam
10
27.2271908654
20
1.18641706254
11
27.1714191963
21
1.57494153722
0
LINE
8
cam
10
27.1714191963
20
1.57494153722
11
27.1007941203
21
1.95769215597
0
LINE
8
cam
10
27.1007941203
20
1.95769215597
11
27.0160917382
21
2.33344967094
0
LINE
8
cam
10
27.0160917382
20
2.33344967094
11
26.9182224197
21
2.70114034478
0
LINE
8
cam
10
26.9182224197
20
2.70114034478
11
26.8082087433
21
3.05986128255
0
LINE
8
cam
10
26.8082087433
20
3.05986128255
11
26.8856613584
21
3.43334384935
0
LINE
8
cam
10
26.8856613584
20
3.43334384935
11
26.7544210074
21
3.77472860945
0
LINE
8
cam
10
26.7544210074
20
3.77472860945
11
26.6144873671
21
4.10563208604
0
LINE
8
cam
10
26.6144873671
20
4.10563208604
11
26.4670574271
21
4.42605086968
0
LINE
8
cam
10
26.4670574271
20
4.42605086968
11
26.313294068
21
4.73625272987
0
LINE
8
cam
10
26.313294068
20
4.73625272987
11
26.1542959594
21
5.03679119555
0
LINE
8
cam
10
26.1542959594
20
5.03679119555
11
25.9910711151
21
5.32851838668
0
LINE
8
cam
10
25.9910711151
20
5.32851838668
11
25.8245171883
21
5.6125955837
0
LINE
8
cam
10
25.8245171883
20
5.6125955837
11
25.6554127329
21
5.8905001342
0
LINE
8
cam
10
25.6554127329
20
5.8905001342
11
25.4844249825
21
6.16402567538
0
LINE
8
cam
10
25.4844249825
20
6.16402567538
11
25.3121408933
21
6.43526996519
0
LINE
8
cam
10
25.3121408933
20
6.43526996519
11
25.1391284805
21
6.70660062003
0
LINE
8
cam
10
25.1391284805
20
6.70660062003
11
24.9660333378
21
6.98058398713
0
LINE
8
cam
10
24.9660333378
20
6.98058398713
11
24.6011885668
21
7.20567143243
0
LINE
8
cam
10
24.6011885668
20
7.20567143243
11
24.431508334
21
7.49042086978
0
LINE
8
cam
10
24.431508334
20
7.49042086978
11
24.2655405607
21
7.78498574551
0
LINE
8
cam
10
24.2655405607
20
7.78498574551
11
24.1054934041
21
8.09067935598
0
LINE
8
cam
10
24.1054934041
20
8.09067935598
11
23.9539793
21
8.40771177344
0
LINE
8
cam
10
23.9539793
20
8.40771177344
11
23.8137091916
21
8.73498159657
0
LINE
8
cam
10
23.8137091916
20
8.73498159657
11
23.6870357606
21
9.07013188837
0
LINE
8
cam
10
23.6870357606
20
9.07013188837
11
23.5754815602
21
9.40993153501
0
LINE
8
cam
10
23.5754815602
20
9.40993153501
11
23.4794278625
21
9.75090291593
0
LINE
8
cam
10
23.4794278625
20
9.75090291593
11
23.3980775746
21
10.0899925819
0
LINE
8
cam
10
23.3980775746
20
10.0899925819
11
23.3296754919
21
10.4250658262
0
LINE
8
cam
10
23.3296754919
20
10.4250658262
11
23.2718641052
21
10.7551068022
0
LINE
8
cam
10
23.2718641052
20
10.7551068022
11
23.4039089015
21
11.1633389705
0
LINE
8
cam
10
23.4039089015
20
11.1633389705
11
23.3584803677
21
11.4862950062
0
LINE
8
cam
10
23.3584803677
20
11.4862950062
11
23.3159731768
21
11.8063236064
0
LINE
8
cam
10
23.3159731768
20
11.8063236064
11
23.274130065
21
12.1249589171
0
LINE
8
cam
10
23.274130065
20
12.1249589171
11
23.2308932897
21
12.4437246459
0
LINE
8
cam
10
23.2308932897
20
12.4437246459
11
23.1843800006
21
12.7639831048
0
LINE
8
cam
10
23.1843800006
20
12.7639831048
11
23.1328543104
21
13.0868431356
0
LINE
8
cam
10
23.1328543104
20
13.0868431356
11
23.0747059865
21
13.4131122889
0
LINE
8
cam
10
23.0747059865
20
13.4131122889
11
23.0084389548
21
13.7432796944
0
LINE
8
cam
10
23.0084389548
20
13.7432796944
11
22.9326691707
21
14.0775191166
0
LINE
8
cam
10
22.9326691707
20
14.0775191166
11
22.8461298594
21
14.4157048278
0
LINE
8
cam
10
22.8461298594
20
14.4157048278
11
22.7476817398
21
14.7574354352
0
LINE
8
cam
10
22.7476817398
20
14.7574354352
11
22.6363260078
21
15.1020625803
0
LINE
8
cam
10
22.6363260078
20
15.1020625803
11
22.5112182189
21
15.4487225818
0
LINE
8
cam
10
22.5112182189
20
15.4487225818
11
22.2059792467
21
15.6843754888
0
LINE
8
cam
10
22.2059792467
20
15.6843754888
11
22.0530134731
21
16.0296329125
0
LINE
8
cam
10
22.0530134731
20
16.0296329125
11
21.8848647574
21
16.3733652071
0
LINE
8
cam
10
21.8848647574
20
16.3733652071
11
21.7014168265
21
16.714193107
0
LINE
8
cam
10
21.7014168265
20
16.714193107
11
21.5027499111
21
17.0506936312
0
LINE
8
cam
10
21.5027499111
20
17.0506936312
11
21.2891396992
21
17.3814332542
0
LINE
8
cam
10
21.2891396992
20
17.3814332542
11
21.0610524791
21
17.704999877
0
LINE
8
cam
10
21.0610524791
20
17.704999877
11
20.8191364551
21
18.0200332327
0
LINE
8
cam
10
20.8191364551
20
18.0200332327
11
20.5642093035
21
18.3252533665
0
LINE
8
cam
10
20.5642093035
20
18.3252533665
11
20.2972421044
21
18.619486843
0
LINE
8
cam
10
20.2972421044
20
18.619486843
11
20.019339845
21
18.901690354
0
LINE
8
cam
10
20.019339845
20
18.901690354
11
19.7317187379
21
19.1709714307
0
LINE
8
cam
10
19.7317187379
20
19.1709714307
11
19.4356806379
21
19.4266060089
0
LINE
8
cam
10
19.4356806379
20
19.4266060089
11
19.1325848734
21
19.6680526418
0
LINE
8
cam
10
19.1325848734
20
19.6680526418
11
18.8238178313
21
19.8949632286
0
LINE
8
cam
10
18.8238178313
20
19.8949632286
11
18.5107606589
21
20.1071901977
0
LINE
8
cam
10
18.5107606589
20
20.1071901977
11
18.332148286
21
20.4501284527
0
LINE
8
cam
10
18.332148286
20
20.4501284527
11
18.0125908813
21
20.635110058
0
LINE
8
cam
10
18.0125908813
20
20.635110058
11
17.6925267144
21
20.8061318156
0
LINE
8
cam
10
17.6925267144
20
20.8061318156
11
17.3729714115
21
20.9638538418
0
LINE
8
cam
10
17.3729714115
20
20.9638538418
11
17.0547592025
21
21.109126533
0
LINE
8
cam
10
17.0547592025
20
21.109126533
11
16.738509108
21
21.2429824287
0
LINE
8
cam
10
16.738509108
20
21.2429824287
11
16.4245939903
21
21.3666282978
0
LINE
8
cam
10
16.4245939903
20
21.3666282978
11
16.1131145837
21
21.4814389193
0
LINE
8
cam
10
16.1131145837
20
21.4814389193
11
15.8038817672
21
21.5889542043
0
LINE
8
cam
10
15.8038817672
20
21.5889542043
11
15.4964120538
21
21.6908812078
0
LINE
8
cam
10
15.4964120538
20
21.6908812078
11
15.1899436046
21
21.7891018558
0
LINE
8
cam
10
15.1899436046
20
21.7891018558
11
14.8834828759
21
21.8856853188
0
LINE
8
cam
10
14.8834828759
20
21.8856853188
11
14.5758945088
21
21.9829001161
0
LINE
8
cam
10
14.5758945088
20
21.9829001161
11
14.2660473839
21
22.0832145357
0
LINE
8
cam
10
14.2660473839
20
22.0832145357
11
13.8412567678
21
22.0234095794
0
LINE
8
cam
10
13.8412567678
20
22.0234095794
11
13.5266578554
21
22.1365519967
0
LINE
8
cam
10
13.5266578554
20
22.1365519967
11
13.2088486893
21
22.2607270079
0
LINE
8
cam
10
13.2088486893
20
22.2607270079
11
12.8891247703
21
22.3981447952
0
LINE
8
cam
10
12.8891247703
20
22.3981447952
11
12.5697897394
21
22.5502682766
0
LINE
8
cam
10
12.5697897394
20
22.5502682766
11
12.2539288135
21
22.7174858033
0
LINE
8
cam
10
12.2539288135
20
22.7174858033
11
11.9449086152
21
22.8989531211
0
LINE
8
cam
10
11.9449086152
20
22.8989531211
11
11.6457272032
21
23.0927132351
0
LINE
8
cam
10
11.6457272032
20
23.0927132351
11
11.3584292635
21
23.2960881168
0
LINE
8
cam
10
11.3584292635
20
23.2960881168
11
11.0837772785
21
23.5062062936
0
LINE
8
cam
10
11.0837772785
20
23.5062062936
11
10.8212426985
21
23.7204782431
0
LINE
8
cam
10
10.8212426985
20
23.7204782431
11
10.5692447495
21
23.9368857197
0
LINE
8
cam
10
10.5692447495
20
23.9368857197
11
10.4104074744
21
24.3351385735
0
LINE
8
cam
10
10.4104074744
20
24.3351385735
11
10.1701865848
21
24.5532225659
0
LINE
8
cam
10
10.1701865848
20
24.5532225659
11
9.93286607026
21
24.7707942964
0
LINE
8
cam
10
9.93286607026
20
24.7707942964
11
9.69578845381
21
24.9876504417
0
LINE
8
cam
10
9.69578845381
20
24.9876504417
11
9.45649685871
21
25.2036441961
0
LINE
8
cam
10
9.45649685871
20
25.2036441961
11
9.21279275711
21
25.4185730467
0
LINE
8
cam
10
9.21279275711
20
25.4185730467
11
8.96276163022
21
25.632108165
0
LINE
8
cam
10
8.96276163022
20
25.632108165
11
8.70478089668
21
25.8437584107
0
LINE
8
cam
10
8.70478089668
20
25.8437584107
11
8.43751897263
21
26.0528603292
0
LINE
8
cam
10
8.43751897263
20
26.0528603292
11
8.159930267
21
26.2585863478
0
LINE
8
cam
10
8.159930267
20
26.2585863478
11
7.8712483338
21
26.4599649895
0
LINE
8
cam
10
7.8712483338
20
26.4599649895
11
7.57097793867
21
26.6559085389
0
LINE
8
cam
10
7.57097793867
20
26.6559085389
11
7.25888606008
21
26.8452449062
0
LINE
8
cam
10
7.25888606008
20
26.8452449062
11
6.87865011891
21
26.8348513239
0
LINE
8
cam
10
6.87865011891
20
26.8348513239
11
6.54573356794
21
27.0065663017
0
LINE
8
cam
10
6.54573356794
20
27.0065663017
11
6.20180806513
21
27.1680120712
0
LINE
8
cam
10
6.20180806513
20
27.1680120712
11
5.84756315783
21
27.318017561
0
LINE
8
cam
10
5.84756315783
20
27.318017561
11
5.48387832849
21
27.4554894519
0
LINE
8
cam
10
5.48387832849
20
27.4554894519
11
5.11180213386
21
27.5794386362
0
LINE
8
cam
10
5.11180213386
20
27.5794386362
11
4.73252910383
21
27.6890034981
0
LINE
8
cam
10
4.73252910383
20
27.6890034981
11
4.34737458299
21
27.7834696887
0
LINE
8
cam
10
4.34737458299
20
27.7834696887
11
3.95774776578
21
27.8622861321
0
LINE
8
cam
10
3.95774776578
20
27.8622861321
11
3.56512322997
21
27.925077053
0
LINE
8
cam
10
3.56512322997
20
27.925077053
11
3.17101131178
21
27.9716498716
0
LINE
8
cam
10
3.17101131178
20
27.9716498716
11
2.7769276914
21
28.001998866
0
LINE
8
cam
10
2.7769276914
20
28.001998866
11
2.38436256879
21
28.0163045563
0
LINE
8
cam
10
2.38436256879
20
28.0163045563
11
1.99474980781
21
28.0149288264
0
LINE
8
cam
10
1.99474980781
20
28.0149288264
11
1.60943641124
21
27.9984058587
0
LINE
8
cam
10
1.60943641124
20
27.9984058587
11
1.22965266106
21
27.967429029
0
LINE
8
cam
10
1.22965266106
20
27.967429029
11
0.856483217975
21
27.9228339864
0
LINE
8
cam
10
0.856483217975
20
27.9228339864
11
0.501524364487
21
28.0652926121
0
LINE
8
cam
10
0.501524364487
20
28.0652926121
11
0.141581374774
21
27.9965516016
0
LINE
8
cam
10
0.141581374774
20
27.9965516016
11
-0.2095885422
21
27.9173004637
0
LINE
8
cam
10
-0.2095885422
20
27.9173004637
11
-0.551745136012
21
27.8287141715
0
LINE
8
cam
10
-0.551745136012
20
27.8287141715
11
-0.884918840299
21
27.7319843122
0
LINE
8
cam
10
-0.884918840299
20
27.7319843122
11
-1.20943058496
21
27.6282917549
0
LINE
8
cam
10
-1.20943058496
20
27.6282917549
11
-1.52590932431
21
27.518782339
0
LINE
8
cam
10
-1.52590932431
20
27.518782339
11
-1.8353063245
21
27.4045484363
0
LINE
8
cam
10
-1.8353063245
20
27.4045484363
11
-2.13890424824
21
27.2866201888
0
LINE
8
cam
10
-2.13890424824
20
27.2866201888
11
-2.43831734646
21
27.1659712579
0
LINE
8
cam
10
-2.43831734646
20
27.1659712579
11
-2.73547633886
21
27.0435446938
0
LINE
8
cam
10
-2.73547633886
20
27.0435446938
11
-3.03258769936
21
26.9203043047
0
LINE
8
cam
10
-3.03258769936
20
26.9203043047
11
-3.3320524536
21
26.7973142952
0
LINE
8
cam
10
-3.3320524536
20
26.7973142952
11
-3.61665611182
21
26.4768125362
0
LINE
8
cam
10
-3.61665611182
20
26.4768125362
11
-3.92563801043
21
26.3586933099
0
LINE
8
cam
10
-3.92563801043
20
26.3586933099
11
-4.24348200105
21
26.2456894059
0
LINE
8
cam
10
-4.24348200105
20
26.2456894059
11
-4.57120870465
21
26.1401668741
0
LINE
8
cam
10
-4.57120870465
20
26.1401668741
11
-4.90871157339
21
26.0447258084
0
LINE
8
cam
10
-4.90871157339
20
26.0447258084
11
-5.25457998208
21
25.961880105
0
LINE
8
cam
10
-5.25457998208
20
25.961880105
11
-5.60619767248
21
25.8936227896
0
LINE
8
cam
10
-5.60619767248
20
25.8936227896
11
-5.96016694107
21
25.8410144526
0
LINE
8
cam
10
-5.96016694107
20
25.8410144526
11
-6.31296660751
21
25.8039574518
0
LINE
8
cam
10
-6.31296660751
20
25.8039574518
11
-6.66163134998
21
25.7812454011
0
LINE
8
cam
10
-6.66163134998
20
25.7812454011
11
-7.00423217768
21
25.7708473326
0
LINE
8
cam
10
-7.00423217768
20
25.7708473326
11
-7.34004665198
21
25.770291211
0
LINE
8
cam
10
-7.34004665198
20
25.770291211
11
-7.71954535179
21
25.9706309028
0
LINE
8
cam
10
-7.71954535179
20
25.9706309028
11
-8.04597279548
21
25.9815793312
0
LINE
8
cam
10
-8.04597279548
20
25.9815793312
11
-8.36880445438
21
25.9951277749
0
LINE
8
cam
10
-8.36880445438
20
25.9951277749
11
-8.6899361697
21
26.009295142
0
LINE
8
cam
10
-8.6899361697
20
26.009295142
11
-9.01123917066
21
26.0223004037
0
LINE
8
cam
10
-9.01123917066
20
26.0223004037
11
-9.33440822883
21
26.0325122233
0
LINE
8
cam
10
-9.33440822883
20
26.0325122233
11
-9.66087013125
21
26.0384041727
0
LINE
8
cam
10
-9.66087013125
20
26.0384041727
11
-9.99173632048
21
26.0385237428
0
LINE
8
cam
10
-9.99173632048
20
26.0385237428
11
-10.3277854272
21
26.0314764601
0
LINE
8
cam
10
-10.3277854272
20
26.0314764601
11
-10.6694650179
21
26.0159230604
0
LINE
8
cam
10
-10.6694650179
20
26.0159230604
11
-11.0169053101
21
25.9905865161
0
LINE
8
cam
10
-11.0169053101
20
25.9905865161
11
-11.3699402455
21
25.9542656881
0
LINE
8
cam
10
-11.3699402455
20
25.9542656881
11
-11.7281331107
21
25.9058528167
0
LINE
8
cam
10
-11.7281331107
20
25.9058528167
11
-12.0908050395
21
25.8443526233
0
LINE
8
cam
10
-12.0908050395
20
25.8443526233
11
-12.3758127185
21
25.5861501159
0
LINE
8
cam
10
-12.3758127185
20
25.5861501159
11
-12.7421829433
21
25.497122686
0
LINE
8
cam
10
-12.7421829433
20
25.497122686
11
-13.1098301807
21
25.3929286181
0
LINE
8
cam
10
-13.1098301807
20
25.3929286181
11
-13.4774269235
21
25.2731936988
0
LINE
8
cam
10
-13.4774269235
20
25.2731936988
11
-13.8435648235
21
25.1377288785
0
LINE
8
cam
10
-13.8435648235
20
25.1377288785
11
-14.206787577
21
24.9865354323
0
LINE
8
cam
10
-14.206787577
20
24.9865354323
11
-14.5656233283
21
24.8198061741
0
LINE
8
cam
10
-14.5656233283
20
24.8198061741
11
-14.9186162372
21
24.6379226343
0
LINE
8
cam
10
-14.9186162372
20
24.6379226343
11
-15.2643568434
21
24.4414481964
0
LINE
8
cam
10
-15.2643568434
20
24.4414481964
11
-15.6015108621
21
24.2311172589
0
LINE
8
cam
10
-15.6015108621
20
24.2311172589
11
-15.9288460544
21
24.0078205506
0
LINE
8
cam
10
-15.9288460544
20
24.0078205506
11
-16.2452568344
21
23.7725867841
0
LINE
8
cam
10
-16.2452568344
20
23.7725867841
11
-16.5497863114
21
23.5265608766
0
LINE
8
cam
10
-16.5497863114
20
23.5265608766
11
-16.8416455064
21
23.2709790102
0
LINE
8
cam
10
-16.8416455064
20
23.2709790102
11
-17.1202295443
21
23.0071408381
0
LINE
8
cam
10
-17.1202295443
20
23.0071408381
11
-17.3851306911
21
22.7363791813
0
LINE
8
cam
10
-17.3851306911
20
22.7363791813
11
-17.7551895093
21
22.6207421406
0
LINE
8
cam
10
-17.7551895093
20
22.6207421406
11
-17.9943888337
21
22.3385599732
0
LINE
8
cam
10
-17.9943888337
20
22.3385599732
11
-18.2198893223
21
22.053323342
0
LINE
8
cam
10
-18.2198893223
20
22.053323342
11
-18.4321402931
21
21.7661610387
0
LINE
8
cam
10
-18.4321402931
20
21.7661610387
11
-18.6318101303
21
21.4780602157
0
LINE
8
cam
10
-18.6318101303
20
21.4780602157
11
-18.8197842356
21
21.1898314646
0
LINE
8
cam
10
-18.8197842356
20
21.1898314646
11
-18.9971625875
21
20.9020765469
0
LINE
8
cam
10
-18.9971625875
20
20.9020765469
11
-19.165257982
21
20.6151610129
0
LINE
8
cam
10
-19.165257982
20
20.6151610129
11
-19.3255960256
21
20.3291950589
0
LINE
8
cam
10
-19.3255960256
20
20.3291950589
11
-19.4799176135
21
20.044027574
0
LINE
8
cam
10
-19.4799176135
20
20.044027574
11
-19.6301836104
21
19.7592604583
0
LINE
8
cam
10
-19.6301836104
20
19.7592604583
11
-19.7785792701
21
19.4742927168
0
LINE
8
cam
10
-19.7785792701
20
19.4742927168
11
-19.9275119393
21
19.1884057763
0
LINE
8
cam
10
-19.9275119393
20
19.1884057763
11
-20.0795893811
21
18.9009010834
0
LINE
8
cam
10
-20.0795893811
20
18.9009010834
11
-20.0938165122
21
18.4722327149
0
LINE
8
cam
10
-20.0938165122
20
18.4722327149
11
-20.2587482899
21
18.1822615602
0
LINE
8
cam
10
-20.2587482899
20
18.1822615602
11
-20.4348450247
21
17.8909166924
0
LINE
8
cam
10
-20.4348450247
20
17.8909166924
11
-20.624137576
21
17.5997562504
0
LINE
8
cam
10
-20.624137576
20
17.5997562504
11
-20.8277843955
21
17.3112158353
0
LINE
8
cam
10
-20.8277843955
20
17.3112158353
11
-21.045773272
21
17.0283585149
0
LINE
8
cam
10
-21.045773272
20
17.0283585149
11
-21.2768227236
21
16.7543766657
0
LINE
8
cam
10
-21.2768227236
20
16.7543766657
11
-21.5185790468
21
16.4919736922
0
LINE
8
cam
10
-21.5185790468
20
16.4919736922
11
-21.7680816957
21
16.2428337428
0
LINE
8
cam
10
-21.7680816957
20
16.2428337428
11
-22.0223402461
21
16.0073546015
0
LINE
8
cam
10
-22.0223402461
20
16.0073546015
11
-22.2788239397
21
15.784690483
0
LINE
8
cam
10
-22.2788239397
20
15.784690483
11
-22.5357324924
21
15.5730207988
0
LINE
8
cam
10
-22.5357324924
20
15.5730207988
11
-22.9554700517
21
15.4851791969
0
LINE
8
cam
10
-22.9554700517
20
15.4851791969
11
-23.212076523
21
15.2859998567
0
LINE
8
cam
10
-23.212076523
20
15.2859998567
11
-23.4676540895
21
15.0898924191
0
LINE
8
cam
10
-23.4676540895
20
15.0898924191
11
-23.7224520138
21
14.8941854262
0
LINE
8
cam
10
-23.7224520138
20
14.8941854262
11
-23.9767569132
21
14.6964083358
0
LINE
8
cam
10
-23.9767569132
20
14.6964083358
11
-24.2307666357
21
14.4943327077
0
LINE
8
cam
10
-24.2307666357
20
14.4943327077
11
-24.4845115111
21
14.285987162
0
LINE
8
cam
10
-24.4845115111
20
14.285987162
11
-24.7378139063
21
14.0696597639
0
LINE
8
cam
10
-24.7378139063
20
14.0696597639
11
-24.9902759788
21
13.8438956076
0
LINE
8
cam
10
-24.9902759788
20
13.8438956076
11
-25.2412869044
21
13.6074933197
0
LINE
8
cam
10
-25.2412869044
20
13.6074933197
11
-25.4900428815
21
13.3595017838
0
LINE
8
cam
10
-25.4900428815
20
13.3595017838
11
-25.735575098
21
13.099217128
0
LINE
8
cam
10
-25.735575098
20
13.099217128
11
-25.9767823185
21
12.826179465
0
LINE
8
cam
10
-25.9767823185
20
12.826179465
11
-26.0333930678
21
12.4511015675
0
LINE
8
cam
10
-26.0333930678
20
12.4511015675
11
-26.2611415352
21
12.1544837224
0
LINE
8
cam
10
-26.2611415352
20
12.1544837224
11
-26.4808312576
21
11.8452010676
0
LINE
8
cam
10
-26.4808312576
20
11.8452010676
11
-26.6911863105
21
11.5237061734
0
LINE
8
cam
10
-26.6911863105
20
11.5237061734
11
-26.890970909
21
11.1906537614
0
LINE
8
cam
10
-26.890970909
20
11.1906537614
11
-27.0790193676
21
10.8468850644
0
LINE
8
cam
10
-27.0790193676
20
10.8468850644
11
-27.2542633612
21
10.4934094212
0
LINE
8
cam
10
-27.2542633612
20
10.4934094212
11
-27.4157561289
21
10.1313832184
0
LINE
8
cam
10
-27.4157561289
20
10.1313832184
11
-27.5626933098
21
9.76208637274
0
LINE
8
cam
10
-27.5626933098
20
9.76208637274
11
-27.694430149
21
9.38689661237
0
LINE
8
cam
10
-27.694430149
20
9.38689661237
11
-27.8104948556
21
9.00726186274
0
LINE
8
cam
10
-27.8104948556
20
9.00726186274
11
-27.9105979452
21
8.62467108039
0
LINE
8
cam
10
-27.9105979452
20
8.62467108039
11
-27.9946374501
21
8.24062389911
0
LINE
8
cam
10
-27.9946374501
20
8.24062389911
11
-28.0626999391
21
7.85659946283
0
LINE
8
cam
10
-28.0626999391
20
7.85659946283
11
-28.1150573527
21
7.47402481701
0
LINE
8
cam
10
-28.1150573527
20
7.47402481701
11
-28.1521597305
21
7.0942432152
0
LINE
8
cam
10
-28.1521597305
20
7.0942432152
11
-28.1746239907
21
6.71848267292
0
LINE
8
cam
10
-28.1746239907
20
6.71848267292
11
-28.3779792162
21
6.39330546623
0
LINE
8
cam
10
-28.3779792162
20
6.39330546623
11
-28.3741705839
21
6.02617465306
0
LINE
8
cam
10
-28.3741705839
20
6.02617465306
11
-28.358369096
21
5.66579445352
0
LINE
8
cam
10
-28.358369096
20
5.66579445352
11
-28.3316816244
21
5.31263320944
0
LINE
8
cam
10
-28.3316816244
20
5.31263320944
11
-28.2952810829
21
4.96689840446
0
LINE
8
cam
10
-28.2952810829
20
4.96689840446
11
-28.2503827965
21
4.62851215484
0
LINE
8
cam
10
-28.2503827965
20
4.62851215484
11
-28.1982231998
21
4.29708936234
0
LINE
8
cam
10
-28.1982231998
20
4.29708936234
11
-28.1400434258
21
3.97191987267
0
LINE
8
cam
10
-28.1400434258
20
3.97191987267
11
-28.0770811039
21
3.65195707227
0
LINE
8
cam
10
-28.0770811039
20
3.65195707227
11
-28.0105744197
21
3.33581714491
0
LINE
8
cam
10
-28.0105744197
20
3.33581714491
11
-27.9417828542
21
3.02179591949
0
LINE
8
cam
10
-27.9417828542
20
3.02179591949
11
-27.8720283082
21
2.70791391627
0
LINE
8
cam
10
-27.8720283082
20
2.70791391627
11
-27.8027573004
21
2.39200431529
0
LINE
8
cam
10
-27.8027573004
20
2.39200431529
11
-27.7356179351
21
2.07186131442
0
LINE
8
cam
10
-27.7356179351
20
2.07186131442
11
-27.4729598702
21
1.73240356298
0
LINE
8
cam
10
-27.4729598702
20
1.73240356298
11
-27.4160144222
21
1.40068437589
0
LINE
8
cam
10
-27.4160144222
20
1.40068437589
11
-27.3678674021
21
1.06054530066
0
LINE
8
cam
10
-27.3678674021
20
1.06054530066
11
-27.3310719071
21
0.71240469174
0
LINE
8
cam
10
-27.3310719071
20
0.71240469174
11
-27.3079134584
21
0.357949735912
0
LINE
8
cam
10
-27.3079134584
20
0.357949735912
11
-27.3
21
3.22071471055e-15
0
LINE
8
cam
10
-27.3
20
3.22071471055e-15
11
-27.3079134584
21
-0.357949735912
0
LINE
8
cam
10
-27.3079134584
20
-0.357949735912
11
-27.3310719071
21
-0.71240469174
0
LINE
8
cam
10
-27.3310719071
20
-0.71240469174
11
-27.3678674021
21
-1.06054530066
0
LINE
8
cam
10
-27.3678674021
20
-1.06054530066
11
-27.4160144222
21
-1.40068437589
0
LINE
8
cam
10
-27.4160144222
20
-1.40068437589
11
-27.4729598702
21
-1.73240356298
0
LINE
8
cam
10
-27.4729598702
20
-1.73240356298
11
-27.7356179351
21
-2.07186131442
0
LINE
8
cam
10
-27.7356179351
20
-2.07186131442
11
-27.8027573004
21
-2.39200431529
0
LINE
8
cam
10
-27.8027573004
20
-2.39200431529
11
-27.8720283082
21
-2.70791391627
0
LINE
8
cam
10
-27.8720283082
20
-2.70791391627
11
-27.9417828542
21
-3.02179591949
0
LINE
8
cam
10
-27.9417828542
20
-3.02179591949
11
-28.0105744197
21
-3.33581714491
0
LINE
8
cam
10
-28.0105744197
20
-3.33581714491
11
-28.0770811039
21
-3.65195707227
0
LINE
8
cam
10
-28.0770811039
20
-3.65195707227
11
-28.1400434258
21
-3.97191987267
0
LINE
8
cam
10
-28.1400434258
20
-3.97191987267
11
-28.1982231998
21
-4.29708936234
0
LINE
8
cam
10
-28.1982231998
20
-4.29708936234
11
-28.2503827965
21
-4.62851215484
0
LINE
8
cam
10
-28.2503827965
20
-4.62851215484
11
-28.2952810829
21
-4.96689840446
0
LINE
8
cam
10
-28.2952810829
20
-4.96689840446
11
-28.3316816244
21
-5.31263320944
0
LINE
8
cam
10
-28.3316816244
20
-5.31263320944
11
-28.358369096
21
-5.66579445352
0
LINE
8
cam
10
-28.358369096
20
-5.66579445352
11
-28.3741705839
21
-6.02617465306
0
LINE
8
cam
10
-28.3741705839
20
-6.02617465306
11
-28.3779792162
21
-6.39330546623
0
LINE
8
cam
10
-28.3779792162
20
-6.39330546623
11
-28.1746239907
21
-6.71848267292
0
LINE
8
cam
10
-28.1746239907
20
-6.71848267292
11
-28.1521597305
21
-7.0942432152
0
LINE
8
cam
10
-28.1521597305
20
-7.0942432152
11
-28.1150573527
21
-7.47402481701
0
LINE
8
cam
10
-28.1150573527
20
-7.47402481701
11
-28.0626999391
21
-7.85659946283
0
LINE
8
cam
10
-28.0626999391
20
-7.85659946283
11
-27.9946374501
21
-8.24062389911
0
LINE
8
cam
10
-27.9946374501
20
-8.24062389911
11
-27.9105979452
21
-8.62467108039
0
LINE
8
cam
10
-27.9105979452
20
-8.62467108039
11
-27.8104948556
21
-9.00726186274
0
LINE
8
cam
10
-27.8104948556
20
-9.00726186274
11
-27.694430149
21
-9.38689661237
0
LINE
8
cam
10
-27.694430149
20
-9.38689661237
11
-27.5626933098
21
-9.76208637274
0
LINE
8
cam
10
-27.5626933098
20
-9.76208637274
11
-27.4157561289
21
-10.1313832184
0
LINE
8
cam
10
-27.4157561289
20
-10.1313832184
11
-27.2542633612
21
-10.4934094212
0
LINE
8
cam
10
-27.2542633612
20
-10.4934094212
11
-27.0790193676
21
-10.8468850644
0
LINE
8
cam
10
-27.0790193676
20
-10.8468850644
11
-26.890970909
21
-11.1906537614
0
LINE
8
cam
10
-26.890970909
20
-11.1906537614
11
-26.6911863105
21
-11.5237061734
0
LINE
8
cam
10
-26.6911863105
20
-11.5237061734
11
-26.4808312576
21
-11.8452010676
0
LINE
8
cam
10
-26.4808312576
20
-11.8452010676
11
-26.2611415352
21
-12.1544837224
0
LINE
8
cam
10
-26.2611415352
20
-12.1544837224
11
-26.0333930678
21
-12.4511015675
0
LINE
8
cam
10
-26.0333930678
20
-12.4511015675
11
-25.9767823185
21
-12.826179465
0
LINE
8
cam
10
-25.9767823185
20
-12.826179465
11
-25.735575098
21
-13.099217128
0
LINE
8
cam
10
-25.735575098
20
-13.099217128
11
-25.4900428815
21
-13.3595017838
0
LINE
8
cam
10
-25.4900428815
20
-13.3595017838
11
-25.2412869044
21
-13.6074933197
0
LINE
8
cam
10
-25.2412869044
20
-13.6074933197
11
-24.9902759788
21
-13.8438956076
0
LINE
8
cam
10
-24.9902759788
20
-13.8438956076
11
-24.7378139063
21
-14.0696597639
0
LINE
8
cam
10
-24.7378139063
20
-14.0696597639
11
-24.4845115111
21
-14.285987162
0
LINE
8
cam
10
-24.4845115111
20
-14.285987162
11
-24.2307666357
21
-14.4943327077
0
LINE
8
cam
10
-24.2307666357
20
-14.4943327077
11
-23.9767569132
21
-14.6964083358
0
LINE
8
cam
10
-23.9767569132
20
-14.6964083358
11
-23.7224520138
21
-14.8941854262
0
LINE
8
cam
10
-23.7224520138
20
-14.8941854262
11
-23.4676540895
21
-15.0898924191
0
LINE
8
cam
10
-23.4676540895
20
-15.0898924191
11
-23.212076523
21
-15.2859998567
0
LINE
8
cam
10
-23.212076523
20
-15.2859998567
11
-22.9554700517
21
-15.4851791969
0
LINE
8
cam
10
-22.9554700517
20
-15.4851791969
11
-22.5357324924
21
-15.5730207988
0
LINE
8
cam
10
-22.5357324924
20
-15.5730207988
11
-22.2788239397
21
-15.784690483
0
LINE
8
cam
10
-22.2788239397
20
-15.784690483
11
-22.0223402461
21
-16.0073546015
0
LINE
8
cam
10
-22.0223402461
20
-16.0073546015
11
-21.7680816957
21
-16.2428337428
0
LINE
8
cam
10
-21.7680816957
20
-16.2428337428
11
-21.5185790468
21
-16.4919736922
0
LINE
8
cam
10
-21.5185790468
20
-16.4919736922
11
-21.2768227236
21
-16.7543766657
0
LINE
8
cam
10
-21.2768227236
20
-16.7543766657
11
-21.045773272
21
-17.0283585149
0
LINE
8
cam
10
-21.045773272
20
-17.0283585149
11
-20.8277843955
21
-17.3112158353
0
LINE
8
cam
10
-20.8277843955
20
-17.3112158353
11
-20.624137576
21
-17.5997562504
0
LINE
8
cam
10
-20.624137576
20
-17.5997562504
11
-20.4348450247
21
-17.8909166924
0
LINE
8
cam
10
-20.4348450247
20
-17.8909166924
11
-20.2587482899
21
-18.1822615602
0
LINE
8
cam
10
-20.2587482899
20
-18.1822615602
11
-20.0938165122
21
-18.4722327149
0
LINE
8
cam
10
-20.0938165122
20
-18.4722327149
11
-20.0795893811
21
-18.9009010834
0
LINE
8
cam
10
-20.0795893811
20
-18.9009010834
11
-19.9275119393
21
-19.1884057763
0
LINE
8
cam
10
-19.9275119393
20
-19.1884057763
11
-19.7785792701
21
-19.4742927168
0
LINE
8
cam
10
-19.7785792701
20
-19.4742927168
11
-19.6301836104
21
-19.7592604583
0
LINE
8
cam
10
-19.6301836104
20
-19.7592604583
11
-19.4799176135
21
-20.044027574
0
LINE
8
cam
10
-19.4799176135
20
-20.044027574
11
-19.3255960256
21
-20.3291950589
0
LINE
8
cam
10
-19.3255960256
20
-20.3291950589
11
-19.165257982
21
-20.6151610129
0
LINE
8
cam
10
-19.165257982
20
-20.6151610129
11
-18.9971625875
21
-20.9020765469
0
LINE
8
cam
10
-18.9971625875
20
-20.9020765469
11
-18.8197842356
21
-21.1898314646
0
LINE
8
cam
10
-18.8197842356
20
-21.1898314646
11
-18.6318101303
21
-21.4780602157
0
LINE
8
cam
10
-18.6318101303
20
-21.4780602157
11
-18.4321402931
21
-21.7661610387
0
LINE
8
cam
10
-18.4321402931
20
-21.7661610387
11
-18.2198893223
21
-22.053323342
0
LINE
8
cam
10
-18.2198893223
20
-22.053323342
11
-17.9943888337
21
-22.3385599732
0
LINE
8
cam
10
-17.9943888337
20
-22.3385599732
11
-17.7551895093
21
-22.6207421406
0
LINE
8
cam
10
-17.7551895093
20
-22.6207421406
11
-17.3851306911
21
-22.7363791813
0
LINE
8
cam
10
-17.3851306911
20
-22.7363791813
11
-17.1202295443
21
-23.0071408381
0
LINE
8
cam
10
-17.1202295443
20
-23.0071408381
11
-16.8416455064
21
-23.2709790102
0
LINE
8
cam
10
-16.8416455064
20
-23.2709790102
11
-16.5497863114
21
-23.5265608766
0
LINE
8
cam
10
-16.5497863114
20
-23.5265608766
11
-16.2452568344
21
-23.7725867841
0
LINE
8
cam
10
-16.2452568344
20
-23.7725867841
11
-15.9288460544
21
-24.0078205506
0
LINE
8
cam
10
-15.9288460544
20
-24.0078205506
11
-15.6015108621
21
-24.2311172589
0
LINE
8
cam
10
-15.6015108621
20
-24.2311172589
11
-15.2643568434
21
-24.4414481964
0
LINE
8
cam
10
-15.2643568434
20
-24.4414481964
11
-14.9186162372
21
-24.6379226343
0
LINE
8
cam
10
-14.9186162372
20
-24.6379226343
11
-14.5656233283
21
-24.8198061741
0
LINE
8
cam
10
-14.5656233283
20
-24.8198061741
11
-14.206787577
21
-24.9865354323
0
LINE
8
cam
10
-14.206787577
20
-24.9865354323
11
-13.8435648235
21
-25.1377288785
0
LINE
8
cam
10
-13.8435648235
20
-25.1377288785
11
-13.4774269235
21
-25.2731936988
0
LINE
8
cam
10
-13.4774269235
20
-25.2731936988
11
-13.1098301807
21
-25.3929286181
0
LINE
8
cam
10
-13.1098301807
20
-25.3929286181
11
-12.7421829433
21
-25.497122686
0
LINE
8
cam
10
-12.7421829433
20
-25.497122686
11
-12.3758127185
21
-25.5861501159
0
LINE
8
cam
10
-12.3758127185
20
-25.5861501159
11
-12.0908050395
21
-25.8443526233
0
LINE
8
cam
10
-12.0908050395
20
-25.8443526233
11
-11.7281331107
21
-25.9058528167
0
LINE
8
cam
10
-11.7281331107
20
-25.9058528167
11
-11.3699402455
21
-25.9542656881
0
LINE
8
cam
10
-11.3699402455
20
-25.9542656881
11
-11.0169053101
21
-25.9905865161
0
LINE
8
cam
10
-11.0169053101
20
-25.9905865161
11
-10.6694650179
21
-26.0159230604
0
LINE
8
cam
10
-10.6694650179
20
-26.0159230604
11
-10.3277854272
21
-26.0314764601
0
LINE
8
cam
10
-10.3277854272
20
-26.0314764601
11
-9.99173632048
21
-26.0385237428
0
LINE
8
cam
10
-9.99173632048
20
-26.0385237428
11
-9.66087013125
21
-26.0384041727
0
LINE
8
cam
10
-9.66087013125
20
-26.0384041727
11
-9.33440822883
21
-26.0325122233
0
LINE
8
cam
10
-9.33440822883
20
-26.0325122233
11
-9.01123917066
21
-26.0223004037
0
LINE
8
cam
10
-9.01123917066
20
-26.0223004037
11
-8.6899361697
21
-26.009295142
0
LINE
8
cam
10
-8.6899361697
20
-26.009295142
11
-8.36880445438
21
-25.9951277749
0
LINE
8
cam
10
-8.36880445438
20
-25.9951277749
11
-8.04597279548
21
-25.9815793312
0
LINE
8
cam
10
-8.04597279548
20
-25.9815793312
11
-7.71954535179
21
-25.9706309028
0
LINE
8
cam
10
-7.71954535179
20
-25.9706309028
11
-7.34004665198
21
-25.770291211
0
LINE
8
cam
10
-7.34004665198
20
-25.770291211
11
-7.00423217768
21
-25.7708473326
0
LINE
8
cam
10
-7.00423217768
20
-25.7708473326
11
-6.66163134998
21
-25.7812454011
0
LINE
8
cam
10
-6.66163134998
20
-25.7812454011
11
-6.31296660751
21
-25.8039574518
0
LINE
8
cam
10
-6.31296660751
20
-25.8039574518
11
-5.96016694107
21
-25.8410144526
0
LINE
8
cam
10
-5.96016694107
20
-25.8410144526
11
-5.60619767248
21
-25.8936227896
0
LINE
8
cam
10
-5.60619767248
20
-25.8936227896
11
-5.25457998208
21
-25.961880105
0
LINE
8
cam
10
-5.25457998208
20
-25.961880105
11
-4.90871157339
21
-26.0447258084
0
LINE
8
cam
10
-4.90871157339
20
-26.0447258084
11
-4.57120870465
21
-26.1401668741
0
LINE
8
cam
10
-4.57120870465
20
-26.1401668741
11
-4.24348200105
21
-26.2456894059
0
LINE
8
cam
10
-4.24348200105
20
-26.2456894059
11
-3.92563801043
21
-26.3586933099
0
LINE
8
cam
10
-3.92563801043
20
-26.3586933099
11
-3.61665611182
21
-26.4768125362
0
LINE
8
cam
10
-3.61665611182
20
-26.4768125362
11
-3.3320524536
21
-26.7973142952
0
LINE
8
cam
10
-3.3320524536
20
-26.7973142952
11
-3.03258769936
21
-26.9203043047
0
LINE
8
cam
10
-3.03258769936
20
-26.9203043047
11
-2.73547633886
21
-27.0435446938
0
LINE
8
cam
10
-2.73547633886
20
-27.0435446938
11
-2.43831734646
21
-27.1659712579
0
LINE
8
cam
10
-2.43831734646
20
-27.1659712579
11
-2.13890424824
21
-27.2866201888
0
LINE
8
cam
10
-2.13890424824
20
-27.2866201888
11
-1.8353063245
21
-27.4045484363
0
LINE
8
cam
10
-1.8353063245
20
-27.4045484363
11
-1.52590932431
21
-27.518782339
0
LINE
8
cam
10
-1.52590932431
20
-27.518782339
11
-1.20943058496
21
-27.6282917549
0
LINE
8
cam
10
-1.20943058496
20
-27.6282917549
11
-0.884918840299
21
-27.7319843122
0
LINE
8
cam
10
-0.884918840299
20
-27.7319843122
11
-0.551745136012
21
-27.8287141715
0
LINE
8
cam
10
-0.551745136012
20
-27.8287141715
11
-0.2095885422
21
-27.9173004637
0
LINE
8
cam
10
-0.2095885422
20
-27.9173004637
11
0.141581374774
21
-27.9965516016
0
LINE
8
cam
10
0.141581374774
20
-27.9965516016
11
0.501524364487
21
-28.0652926121
0
LINE
8
cam
10
0.501524364487
20
-28.0652926121
11
0.856483217975
21
-27.9228339864
0
LINE
8
cam
10
0.856483217975
20
-27.9228339864
11
1.22965266106
21
-27.967429029
0
LINE
8
cam
10
1.22965266106
20
-27.967429029
11
1.60943641124
21
-27.9984058587
0
LINE
8
cam
10
1.60943641124
20
-27.9984058587
11
1.99474980781
21
-28.0149288264
0
LINE
8
cam
10
1.99474980781
20
-28.0149288264
11
2.38436256879
21
-28.0163045563
0
LINE
8
cam
10
2.38436256879
20
-28.0163045563
11
2.7769276914
21
-28.001998866
0
LINE
8
cam
10
2.7769276914
20
-28.001998866
11
3.17101131178
21
-27.9716498716
0
LINE
8
cam
10
3.17101131178
20
-27.9716498716
11
3.56512322997
21
-27.925077053
0
LINE
8
cam
10
3.56512322997
20
-27.925077053
11
3.95774776578
21
-27.8622861321
0
LINE
8
cam
10
3.95774776578
20
-27.8622861321
11
4.34737458299
21
-27.7834696887
0
LINE
8
cam
10
4.34737458299
20
-27.7834696887
11
4.73252910383
21
-27.6890034981
0
LINE
8
cam
10
4.73252910383
20
-27.6890034981
11
5.11180213386
21
-27.5794386362
0
LINE
8
cam
10
5.11180213386
20
-27.5794386362
11
5.48387832849
21
-27.4554894519
0
LINE
8
cam
10
5.48387832849
20
-27.4554894519
11
5.84756315783
21
-27.318017561
0
LINE
8
cam
10
5.84756315783
20
-27.318017561
11
6.20180806513
21
-27.1680120712
0
LINE
8
cam
10
6.20180806513
20
-27.1680120712
11
6.54573356794
21
-27.0065663017
0
LINE
8
cam
10
6.54573356794
20
-27.0065663017
11
6.87865011891
21
-26.8348513239
0
LINE
8
cam
10
6.87865011891
20
-26.8348513239
11
7.25888606008
21
-26.8452449062
0
LINE
8
cam
10
7.25888606008
20
-26.8452449062
11
7.57097793867
21
-26.6559085389
0
LINE
8
cam
10
7.57097793867
20
-26.6559085389
11
7.8712483338
21
-26.4599649895
0
LINE
8
cam
10
7.8712483338
20
-26.4599649895
11
8.159930267
21
-26.2585863478
0
LINE
8
cam
10
8.159930267
20
-26.2585863478
11
8.43751897263
21
-26.0528603292
0
LINE
8
cam
10
8.43751897263
20
-26.0528603292
11
8.70478089668
21
-25.8437584107
0
LINE
8
cam
10
8.70478089668
20
-25.8437584107
11
8.96276163022
21
-25.632108165
0
LINE
8
cam
10
8.96276163022
20
-25.632108165
11
9.21279275711
21
-25.4185730467
0
LINE
8
cam
10
9.21279275711
20
-25.4185730467
11
9.45649685871
21
-25.2036441961
0
LINE
8
cam
10
9.45649685871
20
-25.2036441961
11
9.69578845381
21
-24.9876504417
0
LINE
8
cam
10
9.69578845381
20
-24.9876504417
11
9.93286607026
21
-24.7707942964
0
LINE
8
cam
10
9.93286607026
20
-24.7707942964
11
10.1701865848
21
-24.5532225659
0
LINE
8
cam
10
10.1701865848
20
-24.5532225659
11
10.4104074744
21
-24.3351385735
0
LINE
8
cam
10
10.4104074744
20
-24.3351385735
11
10.5692447495
21
-23.9368857197
0
LINE
8
cam
10
10.5692447495
20
-23.9368857197
11
10.8212426985
21
-23.7204782431
0
LINE
8
cam
10
10.8212426985
20
-23.7204782431
11
11.0837772785
21
-23.5062062936
0
LINE
8
cam
10
11.0837772785
20
-23.5062062936
11
11.3584292635
21
-23.2960881168
0
LINE
8
cam
10
11.3584292635
20
-23.2960881168
11
11.6457272032
21
-23.0927132351
0
LINE
8
cam
10
11.6457272032
20
-23.0927132351
11
11.9449086152
21
-22.8989531211
0
LINE
8
cam
10
11.9449086152
20
-22.8989531211
11
12.2539288135
21
-22.7174858033
0
LINE
8
cam
10
12.2539288135
20
-22.7174858033
11
12.5697897394
21
-22.5502682766
0
LINE
8
cam
10
12.5697897394
20
-22.5502682766
11
12.8891247703
21
-22.3981447952
0
LINE
8
cam
10
12.8891247703
20
-22.3981447952
11
13.2088486893
21
-22.2607270079
0
LINE
8
cam
10
13.2088486893
20
-22.2607270079
11
13.5266578554
21
-22.1365519967
0
LINE
8
cam
10
13.5266578554
20
-22.1365519967
11
13.8412567678
21
-22.0234095794
0
LINE
8
cam
10
13.8412567678
20
-22.0234095794
11
14.2660473839
21
-22.0832145357
0
LINE
8
cam
10
14.2660473839
20
-22.0832145357
11
14.5758945088
21
-21.9829001161
0
LINE
8
cam
10
14.5758945088
20
-21.9829001161
11
14.8834828759
21
-21.8856853188
0
LINE
8
cam
10
14.8834828759
20
-21.8856853188
11
15.1899436046
21
-21.7891018558
0
LINE
8
cam
10
15.1899436046
20
-21.7891018558
11
15.4964120538
21
-21.6908812078
0
LINE
8
cam
10
15.4964120538
20
-21.6908812078
11
15.8038817672
21
-21.5889542043
0
LINE
8
cam
10
15.8038817672
20
-21.5889542043
11
16.1131145837
21
-21.4814389193
0
LINE
8
cam
10
16.1131145837
20
-21.4814389193
11
16.4245939903
21
-21.3666282978
0
LINE
8
cam
10
16.4245939903
20
-21.3666282978
11
16.738509108
21
-21.2429824287
0
LINE
8
cam
10
16.738509108
20
-21.2429824287
11
17.0547592025
21
-21.109126533
0
LINE
8
cam
10
17.0547592025
20
-21.109126533
11
17.3729714115
21
-20.9638538418
0
LINE
8
cam
10
17.3729714115
20
-20.9638538418
11
17.6925267144
21
-20.8061318156
0
LINE
8
cam
10
17.6925267144
20
-20.8061318156
11
18.0125908813
21
-20.635110058
0
LINE
8
cam
10
18.0125908813
20
-20.635110058
11
18.332148286
21
-20.4501284527
0
LINE
8
cam
10
18.332148286
20
-20.4501284527
11
18.5107606589
21
-20.1071901977
0
LINE
8
cam
10
18.5107606589
20
-20.1071901977
11
18.8238178313
21
-19.8949632286
0
LINE
8
cam
10
18.8238178313
20
-19.8949632286
11
19.1325848734
21
-19.6680526418
0
LINE
8
cam
10
19.1325848734
20
-19.6680526418
11
19.4356806379
21
-19.4266060089
0
LINE
8
cam
10
19.4356806379
20
-19.4266060089
11
19.7317187379
21
-19.1709714307
0
LINE
8
cam
10
19.7317187379
20
-19.1709714307
11
20.019339845
21
-18.901690354
0
LINE
8
cam
10
20.019339845
20
-18.901690354
11
20.2972421044
21
-18.619486843
0
LINE
8
cam
10
20.2972421044
20
-18.619486843
11
20.5642093035
21
-18.3252533665
0
LINE
8
cam
10
20.5642093035
20
-18.3252533665
11
20.8191364551
21
-18.0200332327
0
LINE
8
cam
10
20.8191364551
20
-18.0200332327
11
21.0610524791
21
-17.704999877
0
LINE
8
cam
10
21.0610524791
20
-17.704999877
11
21.2891396992
21
-17.3814332542
0
LINE
8
cam
10
21.2891396992
20
-17.3814332542
11
21.5027499111
21
-17.0506936312
0
LINE
8
cam
10
21.5027499111
20
-17.0506936312
11
21.7014168265
21
-16.714193107
0
LINE
8
cam
10
21.7014168265
20
-16.714193107
11
21.8848647574
21
-16.3733652071
0
LINE
8
cam
10
21.8848647574
20
-16.3733652071
11
22.0530134731
21
-16.0296329125
0
LINE
8
cam
10
22.0530134731
20
-16.0296329125
11
22.2059792467
21
-15.6843754888
0
LINE
8
cam
10
22.2059792467
20
-15.6843754888
11
22.5112182189
21
-15.4487225818
0
LINE
8
cam
10
22.5112182189
20
-15.4487225818
11
22.6363260078
21
-15.1020625803
0
LINE
8
cam
10
22.6363260078
20
-15.1020625803
11
22.7476817398
21
-14.7574354352
0
LINE
8
cam
10
22.7476817398
20
-14.7574354352
11
22.8461298594
21
-14.4157048278
0
LINE
8
cam
10
22.8461298594
20
-14.4157048278
11
22.9326691707
21
-14.0775191166
0
LINE
8
cam
10
22.9326691707
20
-14.0775191166
11
23.0084389548
21
-13.7432796944
0
LINE
8
cam
10
23.0084389548
20
-13.7432796944
11
23.0747059865
21
-13.4131122889
0
LINE
8
cam
10
23.0747059865
20
-13.4131122889
11
23.1328543104
21
-13.0868431356
0
LINE
8
cam
10
23.1328543104
20
-13.0868431356
11
23.1843800006
21
-12.7639831048
0
LINE
8
cam
10
23.1843800006
20
-12.7639831048
11
23.2308932897
21
-12.4437246459
0
LINE
8
cam
10
23.2308932897
20
-12.4437246459
11
23.274130065
21
-12.1249589171
0
LINE
8
cam
10
23.274130065
20
-12.1249589171
11
23.3159731768
21
-11.8063236064
0
LINE
8
cam
10
23.3159731768
20
-11.8063236064
11
23.3584803677
21
-11.4862950062
0
LINE
8
cam
10
23.3584803677
20
-11.4862950062
11
23.4039089015
21
-11.1633389705
0
LINE
8
cam
10
23.4039089015
20
-11.1633389705
11
23.2718641052
21
-10.7551068022
0
LINE
8
cam
10
23.2718641052
20
-10.7551068022
11
23.3296754919
21
-10.4250658262
0
LINE
8
cam
10
23.3296754919
20
-10.4250658262
11
23.3980775746
21
-10.0899925819
0
LINE
8
cam
10
23.3980775746
20
-10.0899925819
11
23.4794278625
21
-9.75090291593
0
LINE
8
cam
10
23.4794278625
20
-9.75090291593
11
23.5754815602
21
-9.40993153501
0
LINE
8
cam
10
23.5754815602
20
-9.40993153501
11
23.6870357606
21
-9.07013188837
0
LINE
8
cam
10
23.6870357606
20
-9.07013188837
11
23.8137091916
21
-8.73498159657
0
LINE
8
cam
10
23.8137091916
20
-8.73498159657
11
23.9539793
21
-8.40771177344
0
LINE
8
cam
10
23.9539793
20
-8.40771177344
11
24.1054934041
21
-8.09067935598
0
LINE
8
cam
10
24.1054934041
20
-8.09067935598
11
24.2655405607
21
-7.78498574551
0
LINE
8
cam
10
24.2655405607
20
-7.78498574551
11
24.431508334
21
-7.49042086978
0
LINE
8
cam
10
24.431508334
20
-7.49042086978
11
24.6011885668
21
-7.20567143243
0
LINE
8
cam
10
24.6011885668
20
-7.20567143243
11
24.9660333378
21
-6.98058398713
0
LINE
8
cam
10
24.9660333378
20
-6.98058398713
11
25.1391284805
21
-6.70660062003
0
LINE
8
cam
10
25.1391284805
20
-6.70660062003
11
25.3121408933
21
-6.43526996519
0
LINE
8
cam
10
25.3121408933
20
-6.43526996519
11
25.4844249825
21
-6.16402567538
0
LINE
8
cam
10
25.4844249825
20
-6.16402567538
11
25.6554127329
21
-5.8905001342
0
LINE
8
cam
10
25.6554127329
20
-5.8905001342
11
25.8245171883
21
-5.6125955837
0
LINE
8
cam
10
25.8245171883
20
-5.6125955837
11
25.9910711151
21
-5.32851838668
0
LINE
8
cam
10
25.9910711151
20
-5.32851838668
11
26.1542959594
21
-5.03679119555
0
LINE
8
cam
10
26.1542959594
20
-5.03679119555
11
26.313294068
21
-4.73625272987
0
LINE
8
cam
10
26.313294068
20
-4.73625272987
11
26.4670574271
21
-4.42605086968
0
LINE
8
cam
10
26.4670574271
20
-4.42605086968
11
26.6144873671
21
-4.10563208604
0
LINE
8
cam
10
26.6144873671
20
-4.10563208604
11
26.7544210074
21
-3.77472860945
0
LINE
8
cam
10
26.7544210074
20
-3.77472860945
11
26.8856613584
21
-3.43334384935
0
LINE
8
cam
10
26.8856613584
20
-3.43334384935
11
26.8082087433
21
-3.05986128255
0
LINE
8
cam
10
26.8082087433
20
-3.05986128255
11
26.9182224197
21
-2.70114034478
0
LINE
8
cam
10
26.9182224197
20
-2.70114034478
11
27.0160917382
21
-2.33344967094
0
LINE
8
cam
10
27.0160917382
20
-2.33344967094
11
27.1007941203
21
-1.95769215597
0
LINE
8
cam
10
27.1007941203
20
-1.95769215597
11
27.1714191963
21
-1.57494153722
0
LINE
8
cam
10
27.1714191963
20
-1.57494153722
11
27.2271908654
21
-1.18641706254
0
LINE
8
cam
10
27.2271908654
20
-1.18641706254
11
27.2674858011
21
-0.793456527131
0
LINE
8
cam
10
27.2674858011
20
-0.793456527131
11
27.2918481192
21
-0.397487923079
0
LINE
8
cam
10
27.2918481192
20
-0.397487923079
11
27.3
21
-6.91523071597e-15
0
CIRCLE
8
cam
10
-1.0
20
0
40
2.5
0
CIRCLE
8
roller
10
30.0
20
0.0
40
2.5
0
CIRCLE
8
roller
10
24.2705098312
20
17.6335575688
40
2.5
0
CIRCLE
8
roller
10
9.27050983125
20
28.5316954889
40
2.5
0
CIRCLE
8
roller
10
-9.27050983125
20
28.5316954889
40
2.5
0
CIRCLE
8
roller
10
-24.2705098312
20
17.6335575688
40
2.5
0
CIRCLE
8
roller
10
-30.0
20
3.67381906147e-15
40
2.5
0
CIRCLE
8
roller
10
-24.2705098312
20
-17.6335575688
40
2.5
0
CIRCLE
8
roller
10
-9.27050983125
20
-28.5316954889
40
2.5
0
CIRCLE
8
roller
10
9.27050983125
20
-28.5316954889
40
2.5
0
CIRCLE
8
roller
10
24.2705098312
20
-17.6335575688
40
2.5
0
CIRCLE
8
roller
10
0
20
0
40
2.5
0
ENDSEC
0
EOF
