0
SECTION
2
HEADER
9
$ACADVER
1
AC1006
9
$INSBASE
10
0.0
20
0.0
30
0.0
9
$EXTMIN
10
0.0
20
0.0
9
$EXTMAX
10
0.0
20
0.0
0
ENDSEC
0
SECTION
2
TABLES
0
TABLE
2
LTYPE
70
1
0
LTYPE
2
CONTINUOUS
70
64
3
Solid line
72
65
73
0
40
0.0
0
ENDTAB
0
TABLE
2
LAYER
70
5
0
LAYER
2
PYDXF
70
64
62
7
6
continuous
0
LAYER
2
TEXT
70
64
62
2
6
continuous
0
LAYER
2
CAM
70
64
62
1
6
continuous
0
LAYER
2
ROLLER
70
64
62
5
6
continuous
0
LAYER
2
PRESSURE
70
64
62
3
6
continuous
0
ENDTAB
0
TABLE
2
STYLE
70
1
0
STYLE
2
STANDARD
70
0
40
0
41
40
50
50
71
0
42
1
3
ARIAL.TTF
4

0
ENDTAB
0
TABLE
2
VIEW
70
0
0
ENDTAB
0
ENDSEC
0
SECTION
2
BLOCKS
0
ENDSEC
0
SECTION
2
ENTITIES
0
TEXT
8
text
10
40.0
20
0.7
40
0.1
1
pitch=3.5
0
TEXT
8
text
10
40.0
20
0.5
40
0.1
1
pin diameter=5.0
0
TEXT
8
text
10
40.0
20
0.3
40
0.1
1
eccentricity=1.0
0
TEXT
8
text
10
40.0
20
0.1
40
0.1
1
# of teeth=10
0
TEXT
8
text
10
40.0
20
-0.1
40
0.1
1
pressure angle limit=50.0
0
TEXT
8
text
10
40.0
20
-0.3
40
0.1
1
pressure angle offset=0.2
0
TEXT
8
text
10
40.0
20
-0.5
40
0.1
1
min angle=13.0
0
TEXT
8
text
10
40.0
20
-0.7
40
0.1
1
max angle=112.0
0
CIRCLE
8
pressure
10
-1.0
20
0
40
31.812950017
0
CIRCLE
8
pressure
10
-1.0
20
0
40
33.1557932614
0
LINE
8
cam
10
32.3
20
0.0
11
32.2899842698
21
0.468357928745
0
LINE
8
cam
10
32.2899842698
20
0.468357928745
11
32.260074935
21
0.934690954307
0
LINE
8
cam
10
32.260074935
20
0.934690954307
11
32.2106817912
21
1.39702411209
0
LINE
8
cam
10
32.2106817912
20
1.39702411209
11
32.1424753276
21
1.8534815812
0
LINE
8
cam
10
32.1424753276
20
1.8534815812
11
32.0563682127
21
2.302334453
0
LINE
8
cam
10
32.0563682127
20
2.302334453
11
31.9534898667
21
2.74204642022
0
LINE
8
cam
10
31.9534898667
20
2.74204642022
11
31.8351546363
21
3.17131683207
0
LINE
8
cam
10
31.8351546363
20
3.17131683207
11
31.901630559
21
3.61093957542
0
LINE
8
cam
10
31.901630559
20
3.61093957542
11
31.7565770892
21
4.01910170814
0
LINE
8
cam
10
31.7565770892
20
4.01910170814
11
31.6006964668
21
4.41466099802
0
LINE
8
cam
10
31.6006964668
20
4.41466099802
11
31.4356291049
21
4.7976244504
0
LINE
8
cam
10
31.4356291049
20
4.7976244504
11
31.2629803446
21
5.16840119802
0
LINE
8
cam
10
31.2629803446
20
5.16840119802
11
31.0842775602
21
5.52782413952
0
LINE
8
cam
10
31.0842775602
20
5.52782413952
11
30.9009359054
21
5.87716645761
0
LINE
8
cam
10
30.9009359054
20
5.87716645761
11
30.7142390352
21
6.21815063168
0
LINE
8
cam
10
30.7142390352
20
6.21815063168
11
30.5253430616
21
6.5529449716
0
LINE
8
cam
10
30.5253430616
20
6.5529449716
11
30.3353135459
21
6.88413838976
0
LINE
8
cam
10
30.3353135459
20
6.88413838976
11
30.145205032
21
7.21467782822
0
LINE
8
cam
10
30.145205032
20
7.21467782822
11
29.9561876952
21
7.54774529275
0
LINE
8
cam
10
29.9561876952
20
7.54774529275
11
29.5759745707
21
7.83688973457
0
LINE
8
cam
10
29.5759745707
20
7.83688973457
11
29.3945522197
21
8.18199955001
0
LINE
8
cam
10
29.3945522197
20
8.18199955001
11
29.2200665224
21
8.53787187391
0
LINE
8
cam
10
29.2200665224
20
8.53787187391
11
29.0554599797
21
8.90549670052
0
LINE
8
cam
10
29.0554599797
20
8.90549670052
11
28.903863564
21
9.2843277411
0
LINE
8
cam
10
28.903863564
20
9.2843277411
11
28.76806896
21
9.67223192394
0
LINE
8
cam
10
28.76806896
20
9.67223192394
11
28.6499247444
21
10.0658710656
0
LINE
8
cam
10
28.6499247444
20
10.0658710656
11
28.5498975222
21
10.4614579528
0
LINE
8
cam
10
28.5498975222
20
10.4614579528
11
28.4669825612
21
10.8556259834
0
LINE
8
cam
10
28.4669825612
20
10.8556259834
11
28.3989679519
21
11.2460928609
0
LINE
8
cam
10
28.3989679519
20
11.2460928609
11
28.3428912571
21
11.6319299488
0
LINE
8
cam
10
28.3428912571
20
11.6319299488
11
28.4805352977
21
12.0893363834
0
LINE
8
cam
10
28.4805352977
20
12.0893363834
11
28.4376813916
21
12.4698952254
0
LINE
8
cam
10
28.4376813916
20
12.4698952254
11
28.3971962029
21
12.8490502293
0
LINE
8
cam
10
28.3971962029
20
12.8490502293
11
28.3562627037
21
13.2286878799
0
LINE
8
cam
10
28.3562627037
20
13.2286878799
11
28.312295581
21
13.610572458
0
LINE
8
cam
10
28.312295581
20
13.610572458
11
28.262911053
21
13.9961721166
0
LINE
8
cam
10
28.262911053
20
13.9961721166
11
28.2058993049
21
14.3865615096
0
LINE
8
cam
10
28.2058993049
20
14.3865615096
11
28.1392093901
21
14.7823796386
0
LINE
8
cam
10
28.1392093901
20
14.7823796386
11
28.0609480671
21
15.1838247237
0
LINE
8
cam
10
28.0609480671
20
15.1838247237
11
27.9693900986
21
15.5906728258
0
LINE
8
cam
10
27.9693900986
20
15.5906728258
11
27.8629962543
21
16.0023113446
0
LINE
8
cam
10
27.8629962543
20
16.0023113446
11
27.7404352942
21
16.4177817368
0
LINE
8
cam
10
27.7404352942
20
16.4177817368
11
27.4282513779
21
16.7343704402
0
LINE
8
cam
10
27.4282513779
20
16.7343704402
11
27.271667773
21
17.1512132019
0
LINE
8
cam
10
27.271667773
20
17.1512132019
11
27.0964418937
21
17.5674180306
0
LINE
8
cam
10
27.0964418937
20
17.5674180306
11
26.9022749145
21
17.9811601241
0
LINE
8
cam
10
26.9022749145
20
17.9811601241
11
26.6891561341
21
18.3905327272
0
LINE
8
cam
10
26.6891561341
20
18.3905327272
11
26.457363415
21
18.7936006704
0
LINE
8
cam
10
26.457363415
20
18.7936006704
11
26.2074569001
21
19.188452279
0
LINE
8
cam
10
26.2074569001
20
19.188452279
11
25.9402659127
21
19.5732489013
0
LINE
8
cam
10
25.9402659127
20
19.5732489013
11
25.6568691335
21
19.9462713267
0
LINE
8
cam
10
25.6568691335
20
19.9462713267
11
25.3585682982
21
20.3059624035
0
LINE
8
cam
10
25.3585682982
20
20.3059624035
11
25.0468557937
21
20.6509652237
0
LINE
8
cam
10
25.0468557937
20
20.6509652237
11
24.7233766369
21
20.98015632
0
LINE
8
cam
10
24.7233766369
20
20.98015632
11
24.3898854191
21
21.292673429
0
LINE
8
cam
10
24.3898854191
20
21.292673429
11
24.0481988792
21
21.5879375085
0
LINE
8
cam
10
24.0481988792
20
21.5879375085
11
23.7001448494
21
21.8656688636
0
LINE
8
cam
10
23.7001448494
20
21.8656688636
11
23.4955212355
21
22.2604047011
0
LINE
8
cam
10
23.4955212355
20
22.2604047011
11
23.1382588312
21
22.5053545126
0
LINE
8
cam
10
23.1382588312
20
22.5053545126
11
22.7796448416
21
22.7337443694
0
LINE
8
cam
10
22.7796448416
20
22.7337443694
11
22.4210022711
21
22.9465441497
0
LINE
8
cam
10
22.4210022711
20
22.9465441497
11
22.0633893858
21
23.1450284445
0
LINE
8
cam
10
22.0633893858
20
23.1450284445
11
21.707552292
21
23.3307688511
0
LINE
8
cam
10
21.707552292
20
23.3307688511
11
21.3538875149
21
23.5056272025
0
LINE
8
cam
10
21.3538875149
20
23.5056272025
11
21.0024211053
21
23.6717515272
0
LINE
8
cam
10
21.0024211053
20
23.6717515272
11
20.652813877
21
23.8315755703
0
LINE
8
cam
10
20.652813877
20
23.8315755703
11
20.3044061624
21
23.9878201272
0
LINE
8
cam
10
20.3044061624
20
23.9878201272
11
19.9563189367
21
24.1434891694
0
LINE
8
cam
10
19.9563189367
20
24.1434891694
11
19.6076285554
21
24.3018448055
0
LINE
8
cam
10
19.6076285554
20
24.3018448055
11
19.1300748374
21
24.3122839054
0
LINE
8
cam
10
19.1300748374
20
24.3122839054
11
18.7804506124
21
24.4848462287
0
LINE
8
cam
10
18.7804506124
20
24.4848462287
11
18.4301122143
21
24.670192867
0
LINE
8
cam
10
18.4301122143
20
24.670192867
11
18.0808582724
21
24.870854301
0
LINE
8
cam
10
18.0808582724
20
24.870854301
11
17.7355428971
21
25.0882289134
0
LINE
8
cam
10
17.7355428971
20
25.0882289134
11
17.3976783968
21
25.3222319239
0
LINE
8
cam
10
17.3976783968
20
25.3222319239
11
17.0707224363
21
25.5712492516
0
LINE
8
cam
10
17.0707224363
20
25.5712492516
11
16.7572785753
21
25.8324912401
0
LINE
8
cam
10
16.7572785753
20
25.8324912401
11
16.4585128075
21
26.1026436842
0
LINE
8
cam
10
16.4585128075
20
26.1026436842
11
16.1739771607
21
26.3785600395
0
LINE
8
cam
10
16.1739771607
20
26.3785600395
11
15.9018208115
21
26.6577477465
0
LINE
8
cam
10
15.9018208115
20
26.6577477465
11
15.7443204229
21
27.1087024626
0
LINE
8
cam
10
15.7443204229
20
27.1087024626
11
15.4859640097
21
27.3913921391
0
LINE
8
cam
10
15.4859640097
20
27.3913921391
11
15.2303490844
21
27.6743383839
0
LINE
8
cam
10
15.2303490844
20
27.6743383839
11
14.9740877757
21
27.9574115878
0
LINE
8
cam
10
14.9740877757
20
27.9574115878
11
14.7140515031
21
28.240519475
0
LINE
8
cam
10
14.7140515031
20
28.240519475
11
14.4474487881
21
28.5234486546
0
LINE
8
cam
10
14.4474487881
20
28.5234486546
11
14.1718601872
21
28.8057696432
0
LINE
8
cam
10
14.1718601872
20
28.8057696432
11
13.8852508539
21
29.0867938879
0
LINE
8
cam
10
13.8852508539
20
29.0867938879
11
13.5859726129
21
29.3655689325
0
LINE
8
cam
10
13.5859726129
20
29.3655689325
11
13.2727613461
21
29.6408995377
0
LINE
8
cam
10
13.2727613461
20
29.6408995377
11
12.9447318673
21
29.9113853623
0
LINE
8
cam
10
12.9447318673
20
29.9113853623
11
12.6013705985
21
30.1754684454
0
LINE
8
cam
10
12.6013705985
20
30.1754684454
11
12.1627223339
21
30.2480969847
0
LINE
8
cam
10
12.1627223339
20
30.2480969847
11
11.7910295087
21
30.4932923292
0
LINE
8
cam
10
11.7910295087
20
30.4932923292
11
11.4046297343
21
30.7270139211
0
LINE
8
cam
10
11.4046297343
20
30.7270139211
11
11.0043538475
21
30.9476098191
0
LINE
8
cam
10
11.0043538475
20
30.9476098191
11
10.5913139535
21
31.153531136
0
LINE
8
cam
10
10.5913139535
20
31.153531136
11
10.1668723119
21
31.34337561
0
LINE
8
cam
10
10.1668723119
20
31.34337561
11
9.73260574194
21
31.5159259077
0
LINE
8
cam
10
9.73260574194
20
31.5159259077
11
9.29026591269
21
31.6701819926
0
LINE
8
cam
10
9.29026591269
20
31.6701819926
11
8.84173602176
21
31.8053870266
0
LINE
8
cam
10
8.84173602176
20
31.8053870266
11
8.38898446629
21
31.9210463888
0
LINE
8
cam
10
8.38898446629
20
31.9210463888
11
7.93401618304
21
32.0169395203
0
LINE
8
cam
10
7.93401618304
20
32.0169395203
11
7.47882237625
21
32.0931244338
0
LINE
8
cam
10
7.47882237625
20
32.0931244338
11
7.02532936584
21
32.1499348665
0
LINE
8
cam
10
7.02532936584
20
32.1499348665
11
6.57534727684
21
32.1879702156
0
LINE
8
cam
10
6.57534727684
20
32.1879702156
11
6.13051925715
21
32.208078576
0
LINE
8
cam
10
6.13051925715
20
32.208078576
11
5.73295537222
21
32.4071518343
0
LINE
8
cam
10
5.73295537222
20
32.4071518343
11
5.29994612895
21
32.3953268222
0
LINE
8
cam
10
5.29994612895
20
32.3953268222
11
4.87557712729
21
32.3693100833
0
LINE
8
cam
10
4.87557712729
20
32.3693100833
11
4.46034862035
21
32.3306639081
0
LINE
8
cam
10
4.46034862035
20
32.3306639081
11
4.05436757746
21
32.2810414957
0
LINE
8
cam
10
4.05436757746
20
32.2810414957
11
3.65731384953
21
32.2221528453
0
LINE
8
cam
10
3.65731384953
20
32.2221528453
11
3.26841387438
21
32.1557372829
0
LINE
8
cam
10
3.26841387438
20
32.1557372829
11
2.88642614799
21
32.0835479126
0
LINE
8
cam
10
2.88642614799
20
32.0835479126
11
2.50964574338
21
32.0073543066
0
LINE
8
cam
10
2.50964574338
20
32.0073543066
11
2.13593973509
21
31.928969892
0
LINE
8
cam
10
2.13593973509
20
31.928969892
11
1.76283128666
21
31.8503082549
0
LINE
8
cam
10
1.76283128666
20
31.8503082549
11
1.38765573489
21
31.7734655919
0
LINE
8
cam
10
1.38765573489
20
31.7734655919
11
0.995170712365
21
31.5012119685
0
LINE
8
cam
10
0.995170712365
20
31.5012119685
11
0.610889183957
21
31.4353138574
0
LINE
8
cam
10
0.610889183957
20
31.4353138574
11
0.21851544559
21
31.3793386938
0
LINE
8
cam
10
0.21851544559
20
31.3793386938
11
-0.181982760408
21
31.3363908877
0
LINE
8
cam
10
-0.181982760408
20
31.3363908877
11
-0.589118358855
21
31.3092793583
0
LINE
8
cam
10
-0.589118358855
20
31.3092793583
11
-1.0
21
31.3
0
LINE
8
cam
10
-1.0
20
31.3
11
-1.41088164114
21
31.3092793583
0
LINE
8
cam
10
-1.41088164114
20
31.3092793583
11
-1.81801723959
21
31.3363908877
0
LINE
8
cam
10
-1.81801723959
20
31.3363908877
11
-2.21851544559
21
31.3793386938
0
LINE
8
cam
10
-2.21851544559
20
31.3793386938
11
-2.61088918396
21
31.4353138574
0
LINE
8
cam
10
-2.61088918396
20
31.4353138574
11
-2.99517071237
21
31.5012119685
0
LINE
8
cam
10
-2.99517071237
20
31.5012119685
11
-3.38765573489
21
31.7734655919
0
LINE
8
cam
10
-3.38765573489
20
31.7734655919
11
-3.76283128666
21
31.8503082549
0
LINE
8
cam
10
-3.76283128666
20
31.8503082549
11
-4.13593973509
21
31.928969892
0
LINE
8
cam
10
-4.13593973509
20
31.928969892
11
-4.50964574338
21
32.0073543066
0
LINE
8
cam
10
-4.50964574338
20
32.0073543066
11
-4.88642614799
21
32.0835479126
0
LINE
8
cam
10
-4.88642614799
20
32.0835479126
11
-5.26841387438
21
32.1557372829
0
LINE
8
cam
10
-5.26841387438
20
32.1557372829
11
-5.65731384953
21
32.2221528453
0
LINE
8
cam
10
-5.65731384953
20
32.2221528453
11
-6.05436757746
21
32.2810414957
0
LINE
8
cam
10
-6.05436757746
20
32.2810414957
11
-6.46034862035
21
32.3306639081
0
LINE
8
cam
10
-6.46034862035
20
32.3306639081
11
-6.87557712729
21
32.3693100833
0
LINE
8
cam
10
-6.87557712729
20
32.3693100833
11
-7.29994612895
21
32.3953268222
0
LINE
8
cam
10
-7.29994612895
20
32.3953268222
11
-7.73295537222
21
32.4071518343
0
LINE
8
cam
10
-7.73295537222
20
32.4071518343
11
-8.13051925715
21
32.208078576
0
LINE
8
cam
10
-8.13051925715
20
32.208078576
11
-8.57534727684
21
32.1879702156
0
LINE
8
cam
10
-8.57534727684
20
32.1879702156
11
-9.02532936584
21
32.1499348665
0
LINE
8
cam
10
-9.02532936584
20
32.1499348665
11
-9.47882237625
21
32.0931244338
0
LINE
8
cam
10
-9.47882237625
20
32.0931244338
11
-9.93401618304
21
32.0169395203
0
LINE
8
cam
10
-9.93401618304
20
32.0169395203
11
-10.3889844663
21
31.9210463888
0
LINE
8
cam
10
-10.3889844663
20
31.9210463888
11
-10.8417360218
21
31.8053870266
0
LINE
8
cam
10
-10.8417360218
20
31.8053870266
11
-11.2902659127
21
31.6701819926
0
LINE
8
cam
10
-11.2902659127
20
31.6701819926
11
-11.7326057419
21
31.5159259077
0
LINE
8
cam
10
-11.7326057419
20
31.5159259077
11
-12.1668723119
21
31.34337561
0
LINE
8
cam
10
-12.1668723119
20
31.34337561
11
-12.5913139535
21
31.153531136
0
LINE
8
cam
10
-12.5913139535
20
31.153531136
11
-13.0043538475
21
30.9476098191
0
LINE
8
cam
10
-13.0043538475
20
30.9476098191
11
-13.4046297343
21
30.7270139211
0
LINE
8
cam
10
-13.4046297343
20
30.7270139211
11
-13.7910295087
21
30.4932923292
0
LINE
8
cam
10
-13.7910295087
20
30.4932923292
11
-14.1627223339
21
30.2480969847
0
LINE
8
cam
10
-14.1627223339
20
30.2480969847
11
-14.6013705985
21
30.1754684454
0
LINE
8
cam
10
-14.6013705985
20
30.1754684454
11
-14.9447318673
21
29.9113853623
0
LINE
8
cam
10
-14.9447318673
20
29.9113853623
11
-15.2727613461
21
29.6408995377
0
LINE
8
cam
10
-15.2727613461
20
29.6408995377
11
-15.5859726129
21
29.3655689325
0
LINE
8
cam
10
-15.5859726129
20
29.3655689325
11
-15.8852508539
21
29.0867938879
0
LINE
8
cam
10
-15.8852508539
20
29.0867938879
11
-16.1718601872
21
28.8057696432
0
LINE
8
cam
10
-16.1718601872
20
28.8057696432
11
-16.4474487881
21
28.5234486546
0
LINE
8
cam
10
-16.4474487881
20
28.5234486546
11
-16.7140515031
21
28.240519475
0
LINE
8
cam
10
-16.7140515031
20
28.240519475
11
-16.9740877757
21
27.9574115878
0
LINE
8
cam
10
-16.9740877757
20
27.9574115878
11
-17.2303490844
21
27.6743383839
0
LINE
8
cam
10
-17.2303490844
20
27.6743383839
11
-17.4859640097
21
27.3913921391
0
LINE
8
cam
10
-17.4859640097
20
27.3913921391
11
-17.7443204229
21
27.1087024626
0
LINE
8
cam
10
-17.7443204229
20
27.1087024626
11
-17.9018208115
21
26.6577477465
0
LINE
8
cam
10
-17.9018208115
20
26.6577477465
11
-18.1739771607
21
26.3785600395
0
LINE
8
cam
10
-18.1739771607
20
26.3785600395
11
-18.4585128075
21
26.1026436842
0
LINE
8
cam
10
-18.4585128075
20
26.1026436842
11
-18.7572785753
21
25.8324912401
0
LINE
8
cam
10
-18.7572785753
20
25.8324912401
11
-19.0707224363
21
25.5712492516
0
LINE
8
cam
10
-19.0707224363
20
25.5712492516
11
-19.3976783968
21
25.3222319239
0
LINE
8
cam
10
-19.3976783968
20
25.3222319239
11
-19.7355428971
21
25.0882289134
0
LINE
8
cam
10
-19.7355428971
20
25.0882289134
11
-20.0808582724
21
24.870854301
0
LINE
8
cam
10
-20.0808582724
20
24.870854301
11
-20.4301122143
21
24.670192867
0
LINE
8
cam
10
-20.4301122143
20
24.670192867
11
-20.7804506124
21
24.4848462287
0
LINE
8
cam
10
-20.7804506124
20
24.4848462287
11
-21.1300748374
21
24.3122839054
0
LINE
8
cam
10
-21.1300748374
20
24.3122839054
11
-21.6076285554
21
24.3018448055
0
LINE
8
cam
10
-21.6076285554
20
24.3018448055
11
-21.9563189367
21
24.1434891694
0
LINE
8
cam
10
-21.9563189367
20
24.1434891694
11
-22.3044061624
21
23.9878201272
0
LINE
8
cam
10
-22.3044061624
20
23.9878201272
11
-22.652813877
21
23.8315755703
0
LINE
8
cam
10
-22.652813877
20
23.8315755703
11
-23.0024211053
21
23.6717515272
0
LINE
8
cam
10
-23.0024211053
20
23.6717515272
11
-23.3538875149
21
23.5056272025
0
LINE
8
cam
10
-23.3538875149
20
23.5056272025
11
-23.707552292
21
23.3307688511
0
LINE
8
cam
10
-23.707552292
20
23.3307688511
11
-24.0633893858
21
23.1450284445
0
LINE
8
cam
10
-24.0633893858
20
23.1450284445
11
-24.4210022711
21
22.9465441497
0
LINE
8
cam
10
-24.4210022711
20
22.9465441497
11
-24.7796448416
21
22.7337443694
0
LINE
8
cam
10
-24.7796448416
20
22.7337443694
11
-25.1382588312
21
22.5053545126
0
LINE
8
cam
10
-25.1382588312
20
22.5053545126
11
-25.4955212355
21
22.2604047011
0
LINE
8
cam
10
-25.4955212355
20
22.2604047011
11
-25.7001448494
21
21.8656688636
0
LINE
8
cam
10
-25.7001448494
20
21.8656688636
11
-26.0481988792
21
21.5879375085
0
LINE
8
cam
10
-26.0481988792
20
21.5879375085
11
-26.3898854191
21
21.292673429
0
LINE
8
cam
10
-26.3898854191
20
21.292673429
11
-26.7233766369
21
20.98015632
0
LINE
8
cam
10
-26.7233766369
20
20.98015632
11
-27.0468557937
21
20.6509652237
0
LINE
8
cam
10
-27.0468557937
20
20.6509652237
11
-27.3585682982
21
20.3059624035
0
LINE
8
cam
10
-27.3585682982
20
20.3059624035
11
-27.6568691335
21
19.9462713267
0
LINE
8
cam
10
-27.6568691335
20
19.9462713267
11
-27.9402659127
21
19.5732489013
0
LINE
8
cam
10
-27.9402659127
20
19.5732489013
11
-28.2074569001
21
19.188452279
0
LINE
8
cam
10
-28.2074569001
20
19.188452279
11
-28.457363415
21
18.7936006704
0
LINE
8
cam
10
-28.457363415
20
18.7936006704
11
-28.6891561341
21
18.3905327272
0
LINE
8
cam
10
-28.6891561341
20
18.3905327272
11
-28.9022749145
21
17.9811601241
0
LINE
8
cam
10
-28.9022749145
20
17.9811601241
11
-29.0964418937
21
17.5674180306
0
LINE
8
cam
10
-29.0964418937
20
17.5674180306
11
-29.271667773
21
17.1512132019
0
LINE
8
cam
10
-29.271667773
20
17.1512132019
11
-29.4282513779
21
16.7343704402
0
LINE
8
cam
10
-29.4282513779
20
16.7343704402
11
-29.7404352942
21
16.4177817368
0
LINE
8
cam
10
-29.7404352942
20
16.4177817368
11
-29.8629962543
21
16.0023113446
0
LINE
8
cam
10
-29.8629962543
20
16.0023113446
11
-29.9693900986
21
15.5906728258
0
LINE
8
cam
10
-29.9693900986
20
15.5906728258
11
-30.0609480671
21
15.1838247237
0
LINE
8
cam
10
-30.0609480671
20
15.1838247237
11
-30.1392093901
21
14.7823796386
0
LINE
8
cam
10
-30.1392093901
20
14.7823796386
11
-30.2058993049
21
14.3865615096
0
LINE
8
cam
10
-30.2058993049
20
14.3865615096
11
-30.262911053
21
13.9961721166
0
LINE
8
cam
10
-30.262911053
20
13.9961721166
11
-30.312295581
21
13.610572458
0
LINE
8
cam
10
-30.312295581
20
13.610572458
11
-30.3562627037
21
13.2286878799
0
LINE
8
cam
10
-30.3562627037
20
13.2286878799
11
-30.3971962029
21
12.8490502293
0
LINE
8
cam
10
-30.3971962029
20
12.8490502293
11
-30.4376813916
21
12.4698952254
0
LINE
8
cam
10
-30.4376813916
20
12.4698952254
11
-30.4805352977
21
12.0893363834
0
LINE
8
cam
10
-30.4805352977
20
12.0893363834
11
-30.3428912571
21
11.6319299488
0
LINE
8
cam
10
-30.3428912571
20
11.6319299488
11
-30.3989679519
21
11.2460928609
0
LINE
8
cam
10
-30.3989679519
20
11.2460928609
11
-30.4669825612
21
10.8556259834
0
LINE
8
cam
10
-30.4669825612
20
10.8556259834
11
-30.5498975222
21
10.4614579528
0
LINE
8
cam
10
-30.5498975222
20
10.4614579528
11
-30.6499247444
21
10.0658710656
0
LINE
8
cam
10
-30.6499247444
20
10.0658710656
11
-30.76806896
21
9.67223192394
0
LINE
8
cam
10
-30.76806896
20
9.67223192394
11
-30.903863564
21
9.2843277411
0
LINE
8
cam
10
-30.903863564
20
9.2843277411
11
-31.0554599797
21
8.90549670052
0
LINE
8
cam
10
-31.0554599797
20
8.90549670052
11
-31.2200665224
21
8.53787187391
0
LINE
8
cam
10
-31.2200665224
20
8.53787187391
11
-31.3945522197
21
8.18199955001
0
LINE
8
cam
10
-31.3945522197
20
8.18199955001
11
-31.5759745707
21
7.83688973457
0
LINE
8
cam
10
-31.5759745707
20
7.83688973457
11
-31.9561876952
21
7.54774529274
0
LINE
8
cam
10
-31.9561876952
20
7.54774529274
11
-32.145205032
21
7.21467782822
0
LINE
8
cam
10
-32.145205032
20
7.21467782822
11
-32.3353135459
21
6.88413838976
0
LINE
8
cam
10
-32.3353135459
20
6.88413838976
11
-32.5253430616
21
6.5529449716
0
LINE
8
cam
10
-32.5253430616
20
6.5529449716
11
-32.7142390352
21
6.21815063168
0
LINE
8
cam
10
-32.7142390352
20
6.21815063168
11
-32.9009359054
21
5.87716645761
0
LINE
8
cam
10
-32.9009359054
20
5.87716645761
11
-33.0842775602
21
5.52782413952
0
LINE
8
cam
10
-33.0842775602
20
5.52782413952
11
-33.2629803446
21
5.16840119802
0
LINE
8
cam
10
-33.2629803446
20
5.16840119802
11
-33.4356291049
21
4.7976244504
0
LINE
8
cam
10
-33.4356291049
20
4.7976244504
11
-33.6006964668
21
4.41466099802
0
LINE
8
cam
10
-33.6006964668
20
4.41466099802
11
-33.7565770892
21
4.01910170814
0
LINE
8
cam
10
-33.7565770892
20
4.01910170814
11
-33.901630559
21
3.61093957542
0
LINE
8
cam
10
-33.901630559
20
3.61093957542
11
-33.8351546363
21
3.17131683207
0
LINE
8
cam
10
-33.8351546363
20
3.17131683207
11
-33.9534898667
21
2.74204642022
0
LINE
8
cam
10
-33.9534898667
20
2.74204642022
11
-34.0563682127
21
2.302334453
0
LINE
8
cam
10
-34.0563682127
20
2.302334453
11
-34.1424753276
21
1.8534815812
0
LINE
8
cam
10
-34.1424753276
20
1.8534815812
11
-34.2106817912
21
1.39702411209
0
LINE
8
cam
10
-34.2106817912
20
1.39702411209
11
-34.260074935
21
0.934690954307
0
LINE
8
cam
10
-34.260074935
20
0.934690954307
11
-34.2899842698
21
0.468357928745
0
LINE
8
cam
10
-34.2899842698
20
0.468357928745
11
-34.3
21
4.07793915823e-15
0
LINE
8
cam
10
-34.3
20
4.07793915823e-15
11
-34.2899842698
21
-0.468357928745
0
LINE
8
cam
10
-34.2899842698
20
-0.468357928745
11
-34.260074935
21
-0.934690954307
0
LINE
8
cam
10
-34.260074935
20
-0.934690954307
11
-34.2106817912
21
-1.39702411209
0
LINE
8
cam
10
-34.2106817912
20
-1.39702411209
11
-34.1424753276
21
-1.8534815812
0
LINE
8
cam
10
-34.1424753276
20
-1.8534815812
11
-34.0563682127
21
-2.302334453
0
LINE
8
cam
10
-34.0563682127
20
-2.302334453
11
-33.9534898667
21
-2.74204642022
0
LINE
8
cam
10
-33.9534898667
20
-2.74204642022
11
-33.8351546363
21
-3.17131683207
0
LINE
8
cam
10
-33.8351546363
20
-3.17131683207
11
-33.901630559
21
-3.61093957542
0
LINE
8
cam
10
-33.901630559
20
-3.61093957542
11
-33.7565770892
21
-4.01910170814
0
LINE
8
cam
10
-33.7565770892
20
-4.01910170814
11
-33.6006964668
21
-4.41466099802
0
LINE
8
cam
10
-33.6006964668
20
-4.41466099802
11
-33.4356291049
21
-4.7976244504
0
LINE
8
cam
10
-33.4356291049
20
-4.7976244504
11
-33.2629803446
21
-5.16840119802
0
LINE
8
cam
10
-33.2629803446
20
-5.16840119802
11
-33.0842775602
21
-5.52782413952
0
LINE
8
cam
10
-33.0842775602
20
-5.52782413952
11
-32.9009359054
21
-5.87716645761
0
LINE
8
cam
10
-32.9009359054
20
-5.87716645761
11
-32.7142390352
21
-6.21815063168
0
LINE
8
cam
10
-32.7142390352
20
-6.21815063168
11
-32.5253430616
21
-6.5529449716
0
LINE
8
cam
10
-32.5253430616
20
-6.5529449716
11
-32.3353135459
21
-6.88413838976
0
LINE
8
cam
10
-32.3353135459
20
-6.88413838976
11
-32.145205032
21
-7.21467782822
0
LINE
8
cam
10
-32.145205032
20
-7.21467782822
11
-31.9561876952
21
-7.54774529275
0
LINE
8
cam
10
-31.9561876952
20
-7.54774529275
11
-31.5759745707
21
-7.83688973457
0
LINE
8
cam
10
-31.5759745707
20
-7.83688973457
11
-31.3945522197
21
-8.18199955001
0
LINE
8
cam
10
-31.3945522197
20
-8.18199955001
11
-31.2200665224
21
-8.53787187391
0
LINE
8
cam
10
-31.2200665224
20
-8.53787187391
11
-31.0554599797
21
-8.90549670052
0
LINE
8
cam
10
-31.0554599797
20
-8.90549670052
11
-30.903863564
21
-9.2843277411
0
LINE
8
cam
10
-30.903863564
20
-9.2843277411
11
-30.76806896
21
-9.67223192394
0
LINE
8
cam
10
-30.76806896
20
-9.67223192394
11
-30.6499247444
21
-10.0658710656
0
LINE
8
cam
10
-30.6499247444
20
-10.0658710656
11
-30.5498975222
21
-10.4614579528
0
LINE
8
cam
10
-30.5498975222
20
-10.4614579528
11
-30.4669825612
21
-10.8556259834
0
LINE
8
cam
10
-30.4669825612
20
-10.8556259834
11
-30.3989679519
21
-11.2460928609
0
LINE
8
cam
10
-30.3989679519
20
-11.2460928609
11
-30.3428912571
21
-11.6319299488
0
LINE
8
cam
10
-30.3428912571
20
-11.6319299488
11
-30.4805352977
21
-12.0893363834
0
LINE
8
cam
10
-30.4805352977
20
-12.0893363834
11
-30.4376813916
21
-12.4698952254
0
LINE
8
cam
10
-30.4376813916
20
-12.4698952254
11
-30.3971962029
21
-12.8490502293
0
LINE
8
cam
10
-30.3971962029
20
-12.8490502293
11
-30.3562627037
21
-13.2286878799
0
LINE
8
cam
10
-30.3562627037
20
-13.2286878799
11
-30.312295581
21
-13.610572458
0
LINE
8
cam
10
-30.312295581
20
-13.610572458
11
-30.262911053
21
-13.9961721166
0
LINE
8
cam
10
-30.262911053
20
-13.9961721166
11
-30.2058993049
21
-14.3865615096
0
LINE
8
cam
10
-30.2058993049
20
-14.3865615096
11
-30.1392093901
21
-14.7823796386
0
LINE
8
cam
10
-30.1392093901
20
-14.7823796386
11
-30.0609480671
21
-15.1838247237
0
LINE
8
cam
10
-30.0609480671
20
-15.1838247237
11
-29.9693900986
21
-15.5906728258
0
LINE
8
cam
10
-29.9693900986
20
-15.5906728258
11
-29.8629962543
21
-16.0023113446
0
LINE
8
cam
10
-29.8629962543
20
-16.0023113446
11
-29.7404352942
21
-16.4177817368
0
LINE
8
cam
10
-29.7404352942
20
-16.4177817368
11
-29.4282513779
21
-16.7343704402
0
LINE
8
cam
10
-29.4282513779
20
-16.7343704402
11
-29.271667773
21
-17.1512132019
0
LINE
8
cam
10
-29.271667773
20
-17.1512132019
11
-29.0964418937
21
-17.5674180306
0
LINE
8
cam
10
-29.0964418937
20
-17.5674180306
11
-28.9022749145
21
-17.9811601241
0
LINE
8
cam
10
-28.9022749145
20
-17.9811601241
11
-28.6891561341
21
-18.3905327272
0
LINE
8
cam
10
-28.6891561341
20
-18.3905327272
11
-28.457363415
21
-18.7936006704
0
LINE
8
cam
10
-28.457363415
20
-18.7936006704
11
-28.2074569001
21
-19.188452279
0
LINE
8
cam
10
-28.2074569001
20
-19.188452279
11
-27.9402659127
21
-19.5732489013
0
LINE
8
cam
10
-27.9402659127
20
-19.5732489013
11
-27.6568691335
21
-19.9462713267
0
LINE
8
cam
10
-27.6568691335
20
-19.9462713267
11
-27.3585682982
21
-20.3059624035
0
LINE
8
cam
10
-27.3585682982
20
-20.3059624035
11
-27.0468557937
21
-20.6509652237
0
LINE
8
cam
10
-27.0468557937
20
-20.6509652237
11
-26.7233766369
21
-20.98015632
0
LINE
8
cam
10
-26.7233766369
20
-20.98015632
11
-26.3898854191
21
-21.292673429
0
LINE
8
cam
10
-26.3898854191
20
-21.292673429
11
-26.0481988792
21
-21.5879375085
0
LINE
8
cam
10
-26.0481988792
20
-21.5879375085
11
-25.7001448494
21
-21.8656688636
0
LINE
8
cam
10
-25.7001448494
20
-21.8656688636
11
-25.4955212355
21
-22.2604047011
0
LINE
8
cam
10
-25.4955212355
20
-22.2604047011
11
-25.1382588312
21
-22.5053545126
0
LINE
8
cam
10
-25.1382588312
20
-22.5053545126
11
-24.7796448416
21
-22.7337443694
0
LINE
8
cam
10
-24.7796448416
20
-22.7337443694
11
-24.4210022711
21
-22.9465441497
0
LINE
8
cam
10
-24.4210022711
20
-22.9465441497
11
-24.0633893858
21
-23.1450284445
0
LINE
8
cam
10
-24.0633893858
20
-23.1450284445
11
-23.707552292
21
-23.3307688511
0
LINE
8
cam
10
-23.707552292
20
-23.3307688511
11
-23.3538875149
21
-23.5056272025
0
LINE
8
cam
10
-23.3538875149
20
-23.5056272025
11
-23.0024211053
21
-23.6717515272
0
LINE
8
cam
10
-23.0024211053
20
-23.6717515272
11
-22.652813877
21
-23.8315755703
0
LINE
8
cam
10
-22.652813877
20
-23.8315755703
11
-22.3044061624
21
-23.9878201272
0
LINE
8
cam
10
-22.3044061624
20
-23.9878201272
11
-21.9563189367
21
-24.1434891694
0
LINE
8
cam
10
-21.9563189367
20
-24.1434891694
11
-21.6076285554
21
-24.3018448055
0
LINE
8
cam
10
-21.6076285554
20
-24.3018448055
11
-21.1300748374
21
-24.3122839054
0
LINE
8
cam
10
-21.1300748374
20
-24.3122839054
11
-20.7804506124
21
-24.4848462287
0
LINE
8
cam
10
-20.7804506124
20
-24.4848462287
11
-20.4301122143
21
-24.670192867
0
LINE
8
cam
10
-20.4301122143
20
-24.670192867
11
-20.0808582724
21
-24.870854301
0
LINE
8
cam
10
-20.0808582724
20
-24.870854301
11
-19.7355428971
21
-25.0882289134
0
LINE
8
cam
10
-19.7355428971
20
-25.0882289134
11
-19.3976783968
21
-25.3222319239
0
LINE
8
cam
10
-19.3976783968
20
-25.3222319239
11
-19.0707224363
21
-25.5712492516
0
LINE
8
cam
10
-19.0707224363
20
-25.5712492516
11
-18.7572785753
21
-25.8324912401
0
LINE
8
cam
10
-18.7572785753
20
-25.8324912401
11
-18.4585128075
21
-26.1026436842
0
LINE
8
cam
10
-18.4585128075
20
-26.1026436842
11
-18.1739771607
21
-26.3785600395
0
LINE
8
cam
10
-18.1739771607
20
-26.3785600395
11
-17.9018208115
21
-26.6577477465
0
LINE
8
cam
10
-17.9018208115
20
-26.6577477465
11
-17.7443204229
21
-27.1087024626
0
LINE
8
cam
10
-17.7443204229
20
-27.1087024626
11
-17.4859640097
21
-27.3913921391
0
LINE
8
cam
10
-17.4859640097
20
-27.3913921391
11
-17.2303490844
21
-27.6743383839
0
LINE
8
cam
10
-17.2303490844
20
-27.6743383839
11
-16.9740877757
21
-27.9574115878
0
LINE
8
cam
10
-16.9740877757
20
-27.9574115878
11
-16.7140515031
21
-28.240519475
0
LINE
8
cam
10
-16.7140515031
20
-28.240519475
11
-16.4474487881
21
-28.5234486546
0
LINE
8
cam
10
-16.4474487881
20
-28.5234486546
11
-16.1718601872
21
-28.8057696432
0
LINE
8
cam
10
-16.1718601872
20
-28.8057696432
11
-15.8852508539
21
-29.0867938879
0
LINE
8
cam
10
-15.8852508539
20
-29.0867938879
11
-15.5859726129
21
-29.3655689325
0
LINE
8
cam
10
-15.5859726129
20
-29.3655689325
11
-15.2727613461
21
-29.6408995377
0
LINE
8
cam
10
-15.2727613461
20
-29.6408995377
11
-14.9447318673
21
-29.9113853623
0
LINE
8
cam
10
-14.9447318673
20
-29.9113853623
11
-14.6013705985
21
-30.1754684454
0
LINE
8
cam
10
-14.6013705985
20
-30.1754684454
11
-14.1627223339
21
-30.2480969847
0
LINE
8
cam
10
-14.1627223339
20
-30.2480969847
11
-13.7910295087
21
-30.4932923292
0
LINE
8
cam
10
-13.7910295087
20
-30.4932923292
11
-13.4046297343
21
-30.7270139211
0
LINE
8
cam
10
-13.4046297343
20
-30.7270139211
11
-13.0043538475
21
-30.9476098191
0
LINE
8
cam
10
-13.0043538475
20
-30.9476098191
11
-12.5913139535
21
-31.153531136
0
LINE
8
cam
10
-12.5913139535
20
-31.153531136
11
-12.1668723119
21
-31.34337561
0
LINE
8
cam
10
-12.1668723119
20
-31.34337561
11
-11.7326057419
21
-31.5159259077
0
LINE
8
cam
10
-11.7326057419
20
-31.5159259077
11
-11.2902659127
21
-31.6701819926
0
LINE
8
cam
10
-11.2902659127
20
-31.6701819926
11
-10.8417360218
21
-31.8053870266
0
LINE
8
cam
10
-10.8417360218
20
-31.8053870266
11
-10.3889844663
21
-31.9210463888
0
LINE
8
cam
10
-10.3889844663
20
-31.9210463888
11
-9.93401618304
21
-32.0169395203
0
LINE
8
cam
10
-9.93401618304
20
-32.0169395203
11
-9.47882237625
21
-32.0931244338
0
LINE
8
cam
10
-9.47882237625
20
-32.0931244338
11
-9.02532936584
21
-32.1499348665
0
LINE
8
cam
10
-9.02532936584
20
-32.1499348665
11
-8.57534727684
21
-32.1879702156
0
LINE
8
cam
10
-8.57534727684
20
-32.1879702156
11
-8.13051925715
21
-32.208078576
0
LINE
8
cam
10
-8.13051925715
20
-32.208078576
11
-7.73295537222
21
-32.4071518343
0
LINE
8
cam
10
-7.73295537222
20
-32.4071518343
11
-7.29994612895
21
-32.3953268222
0
LINE
8
cam
10
-7.29994612895
20
-32.3953268222
11
-6.87557712729
21
-32.3693100833
0
LINE
8
cam
10
-6.87557712729
20
-32.3693100833
11
-6.46034862035
21
-32.3306639081
0
LINE
8
cam
10
-6.46034862035
20
-32.3306639081
11
-6.05436757746
21
-32.2810414957
0
LINE
8
cam
10
-6.05436757746
20
-32.2810414957
11
-5.65731384953
21
-32.2221528453
0
LINE
8
cam
10
-5.65731384953
20
-32.2221528453
11
-5.26841387438
21
-32.1557372829
0
LINE
8
cam
10
-5.26841387438
20
-32.1557372829
11
-4.88642614799
21
-32.0835479126
0
LINE
8
cam
10
-4.88642614799
20
-32.0835479126
11
-4.50964574338
21
-32.0073543066
0
LINE
8
cam
10
-4.50964574338
20
-32.0073543066
11
-4.13593973509
21
-31.928969892
0
LINE
8
cam
10
-4.13593973509
20
-31.928969892
11
-3.76283128666
21
-31.8503082549
0
LINE
8
cam
10
-3.76283128666
20
-31.8503082549
11
-3.38765573489
21
-31.7734655919
0
LINE
8
cam
10
-3.38765573489
20
-31.7734655919
11
-2.99517071237
21
-31.5012119685
0
LINE
8
cam
10
-2.99517071237
20
-31.5012119685
11
-2.61088918396
21
-31.4353138574
0
LINE
8
cam
10
-2.61088918396
20
-31.4353138574
11
-2.21851544559
21
-31.3793386938
0
LINE
8
cam
10
-2.21851544559
20
-31.3793386938
11
-1.81801723959
21
-31.3363908877
0
LINE
8
cam
10
-1.81801723959
20
-31.3363908877
11
-1.41088164114
21
-31.3092793583
0
LINE
8
cam
10
-1.41088164114
20
-31.3092793583
11
-1.0
21
-31.3
0
LINE
8
cam
10
-1.0
20
-31.3
11
-0.589118358855
21
-31.3092793583
0
LINE
8
cam
10
-0.589118358855
20
-31.3092793583
11
-0.181982760408
21
-31.3363908877
0
LINE
8
cam
10
-0.181982760408
20
-31.3363908877
11
0.21851544559
21
-31.3793386938
0
LINE
8
cam
10
0.21851544559
20
-31.3793386938
11
0.610889183957
21
-31.4353138574
0
LINE
8
cam
10
0.610889183957
20
-31.4353138574
11
0.995170712365
21
-31.5012119685
0
LINE
8
cam
10
0.995170712365
20
-31.5012119685
11
1.38765573489
21
-31.7734655919
0
LINE
8
cam
10
1.38765573489
20
-31.7734655919
11
1.76283128666
21
-31.8503082549
0
LINE
8
cam
10
1.76283128666
20
-31.8503082549
11
2.13593973509
21
-31.928969892
0
LINE
8
cam
10
2.13593973509
20
-31.928969892
11
2.50964574338
21
-32.0073543066
0
LINE
8
cam
10
2.50964574338
20
-32.0073543066
11
2.88642614799
21
-32.0835479126
0
LINE
8
cam
10
2.88642614799
20
-32.0835479126
11
3.26841387438
21
-32.1557372829
0
LINE
8
cam
10
3.26841387438
20
-32.1557372829
11
3.65731384953
21
-32.2221528453
0
LINE
8
cam
10
3.65731384953
20
-32.2221528453
11
4.05436757746
21
-32.2810414957
0
LINE
8
cam
10
4.05436757746
20
-32.2810414957
11
4.46034862035
21
-32.3306639081
0
LINE
8
cam
10
4.46034862035
20
-32.3306639081
11
4.87557712729
21
-32.3693100833
0
LINE
8
cam
10
4.87557712729
20
-32.3693100833
11
5.29994612895
21
-32.3953268222
0
LINE
8
cam
10
5.29994612895
20
-32.3953268222
11
5.73295537222
21
-32.4071518343
0
LINE
8
cam
10
5.73295537222
20
-32.4071518343
11
6.13051925715
21
-32.208078576
0
LINE
8
cam
10
6.13051925715
20
-32.208078576
11
6.57534727684
21
-32.1879702156
0
LINE
8
cam
10
6.57534727684
20
-32.1879702156
11
7.02532936584
21
-32.1499348665
0
LINE
8
cam
10
7.02532936584
20
-32.1499348665
11
7.47882237625
21
-32.0931244338
0
LINE
8
cam
10
7.47882237625
20
-32.0931244338
11
7.93401618304
21
-32.0169395203
0
LINE
8
cam
10
7.93401618304
20
-32.0169395203
11
8.38898446629
21
-31.9210463888
0
LINE
8
cam
10
8.38898446629
20
-31.9210463888
11
8.84173602176
21
-31.8053870266
0
LINE
8
cam
10
8.84173602176
20
-31.8053870266
11
9.29026591269
21
-31.6701819926
0
LINE
8
cam
10
9.29026591269
20
-31.6701819926
11
9.73260574194
21
-31.5159259077
0
LINE
8
cam
10
9.73260574194
20
-31.5159259077
11
10.1668723119
21
-31.34337561
0
LINE
8
cam
10
10.1668723119
20
-31.34337561
11
10.5913139535
21
-31.153531136
0
LINE
8
cam
10
10.5913139535
20
-31.153531136
11
11.0043538475
21
-30.9476098191
0
LINE
8
cam
10
11.0043538475
20
-30.9476098191
11
11.4046297343
21
-30.7270139211
0
LINE
8
cam
10
11.4046297343
20
-30.7270139211
11
11.7910295087
21
-30.4932923292
0
LINE
8
cam
10
11.7910295087
20
-30.4932923292
11
12.1627223339
21
-30.2480969847
0
LINE
8
cam
10
12.1627223339
20
-30.2480969847
11
12.6013705985
21
-30.1754684454
0
LINE
8
cam
10
12.6013705985
20
-30.1754684454
11
12.9447318673
21
-29.9113853623
0
LINE
8
cam
10
12.9447318673
20
-29.9113853623
11
13.2727613461
21
-29.6408995377
0
LINE
8
cam
10
13.2727613461
20
-29.6408995377
11
13.5859726129
21
-29.3655689325
0
LINE
8
cam
10
13.5859726129
20
-29.3655689325
11
13.8852508539
21
-29.0867938879
0
LINE
8
cam
10
13.8852508539
20
-29.0867938879
11
14.1718601872
21
-28.8057696432
0
LINE
8
cam
10
14.1718601872
20
-28.8057696432
11
14.4474487881
21
-28.5234486546
0
LINE
8
cam
10
14.4474487881
20
-28.5234486546
11
14.7140515031
21
-28.240519475
0
LINE
8
cam
10
14.7140515031
20
-28.240519475
11
14.9740877757
21
-27.9574115878
0
LINE
8
cam
10
14.9740877757
20
-27.9574115878
11
15.2303490844
21
-27.6743383839
0
LINE
8
cam
10
15.2303490844
20
-27.6743383839
11
15.4859640097
21
-27.3913921391
0
LINE
8
cam
10
15.4859640097
20
-27.3913921391
11
15.7443204229
21
-27.1087024626
0
LINE
8
cam
10
15.7443204229
20
-27.1087024626
11
15.9018208115
21
-26.6577477465
0
LINE
8
cam
10
15.9018208115
20
-26.6577477465
11
16.1739771607
21
-26.3785600395
0
LINE
8
cam
10
16.1739771607
20
-26.3785600395
11
16.4585128075
21
-26.1026436842
0
LINE
8
cam
10
16.4585128075
20
-26.1026436842
11
16.7572785753
21
-25.8324912401
0
LINE
8
cam
10
16.7572785753
20
-25.8324912401
11
17.0707224363
21
-25.5712492516
0
LINE
8
cam
10
17.0707224363
20
-25.5712492516
11
17.3976783968
21
-25.3222319239
0
LINE
8
cam
10
17.3976783968
20
-25.3222319239
11
17.7355428971
21
-25.0882289134
0
LINE
8
cam
10
17.7355428971
20
-25.0882289134
11
18.0808582724
21
-24.870854301
0
LINE
8
cam
10
18.0808582724
20
-24.870854301
11
18.4301122143
21
-24.670192867
0
LINE
8
cam
10
18.4301122143
20
-24.670192867
11
18.7804506124
21
-24.4848462287
0
LINE
8
cam
10
18.7804506124
20
-24.4848462287
11
19.1300748374
21
-24.3122839054
0
LINE
8
cam
10
19.1300748374
20
-24.3122839054
11
19.6076285554
21
-24.3018448055
0
LINE
8
cam
10
19.6076285554
20
-24.3018448055
11
19.9563189367
21
-24.1434891694
0
LINE
8
cam
10
19.9563189367
20
-24.1434891694
11
20.3044061624
21
-23.9878201272
0
LINE
8
cam
10
20.3044061624
20
-23.9878201272
11
20.652813877
21
-23.8315755703
0
LINE
8
cam
10
20.652813877
20
-23.8315755703
11
21.0024211053
21
-23.6717515272
0
LINE
8
cam
10
21.0024211053
20
-23.6717515272
11
21.3538875149
21
-23.5056272025
0
LINE
8
cam
10
21.3538875149
20
-23.5056272025
11
21.707552292
21
-23.3307688511
0
LINE
8
cam
10
21.707552292
20
-23.3307688511
11
22.0633893858
21
-23.1450284445
0
LINE
8
cam
10
22.0633893858
20
-23.1450284445
11
22.4210022711
21
-22.9465441497
0
LINE
8
cam
10
22.4210022711
20
-22.9465441497
11
22.7796448416
21
-22.7337443694
0
LINE
8
cam
10
22.7796448416
20
-22.7337443694
11
23.1382588312
21
-22.5053545126
0
LINE
8
cam
10
23.1382588312
20
-22.5053545126
11
23.4955212355
21
-22.2604047011
0
LINE
8
cam
10
23.4955212355
20
-22.2604047011
11
23.7001448494
21
-21.8656688636
0
LINE
8
cam
10
23.7001448494
20
-21.8656688636
11
24.0481988792
21
-21.5879375085
0
LINE
8
cam
10
24.0481988792
20
-21.5879375085
11
24.3898854191
21
-21.292673429
0
LINE
8
cam
10
24.3898854191
20
-21.292673429
11
24.7233766369
21
-20.98015632
0
LINE
8
cam
10
24.7233766369
20
-20.98015632
11
25.0468557937
21
-20.6509652237
0
LINE
8
cam
10
25.0468557937
20
-20.6509652237
11
25.3585682982
21
-20.3059624035
0
LINE
8
cam
10
25.3585682982
20
-20.3059624035
11
25.6568691335
21
-19.9462713267
0
LINE
8
cam
10
25.6568691335
20
-19.9462713267
11
25.9402659127
21
-19.5732489013
0
LINE
8
cam
10
25.9402659127
20
-19.5732489013
11
26.2074569001
21
-19.188452279
0
LINE
8
cam
10
26.2074569001
20
-19.188452279
11
26.457363415
21
-18.7936006704
0
LINE
8
cam
10
26.457363415
20
-18.7936006704
11
26.6891561341
21
-18.3905327272
0
LINE
8
cam
10
26.6891561341
20
-18.3905327272
11
26.9022749145
21
-17.9811601241
0
LINE
8
cam
10
26.9022749145
20
-17.9811601241
11
27.0964418937
21
-17.5674180306
0
LINE
8
cam
10
27.0964418937
20
-17.5674180306
11
27.271667773
21
-17.1512132019
0
LINE
8
cam
10
27.271667773
20
-17.1512132019
11
27.4282513779
21
-16.7343704402
0
LINE
8
cam
10
27.4282513779
20
-16.7343704402
11
27.7404352942
21
-16.4177817368
0
LINE
8
cam
10
27.7404352942
20
-16.4177817368
11
27.8629962543
21
-16.0023113446
0
LINE
8
cam
10
27.8629962543
20
-16.0023113446
11
27.9693900986
21
-15.5906728258
0
LINE
8
cam
10
27.9693900986
20
-15.5906728258
11
28.0609480671
21
-15.1838247237
0
LINE
8
cam
10
28.0609480671
20
-15.1838247237
11
28.1392093901
21
-14.7823796386
0
LINE
8
cam
10
28.1392093901
20
-14.7823796386
11
28.2058993049
21
-14.3865615096
0
LINE
8
cam
10
28.2058993049
20
-14.3865615096
11
28.262911053
21
-13.9961721166
0
LINE
8
cam
10
28.262911053
20
-13.9961721166
11
28.312295581
21
-13.610572458
0
LINE
8
cam
10
28.312295581
20
-13.610572458
11
28.3562627037
21
-13.2286878799
0
LINE
8
cam
10
28.3562627037
20
-13.2286878799
11
28.3971962029
21
-12.8490502293
0
LINE
8
cam
10
28.3971962029
20
-12.8490502293
11
28.4376813916
21
-12.4698952254
0
LINE
8
cam
10
28.4376813916
20
-12.4698952254
11
28.4805352977
21
-12.0893363834
0
LINE
8
cam
10
28.4805352977
20
-12.0893363834
11
28.3428912571
21
-11.6319299488
0
LINE
8
cam
10
28.3428912571
20
-11.6319299488
11
28.3989679519
21
-11.2460928609
0
LINE
8
cam
10
28.3989679519
20
-11.2460928609
11
28.4669825612
21
-10.8556259834
0
LINE
8
cam
10
28.4669825612
20
-10.8556259834
11
28.5498975222
21
-10.4614579528
0
LINE
8
cam
10
28.5498975222
20
-10.4614579528
11
28.6499247444
21
-10.0658710656
0
LINE
8
cam
10
28.6499247444
20
-10.0658710656
11
28.76806896
21
-9.67223192394
0
LINE
8
cam
10
28.76806896
20
-9.67223192394
11
28.903863564
21
-9.2843277411
0
LINE
8
cam
10
28.903863564
20
-9.2843277411
11
29.0554599797
21
-8.90549670052
0
LINE
8
cam
10
29.0554599797
20
-8.90549670052
11
29.2200665224
21
-8.53787187391
0
LINE
8
cam
10
29.2200665224
20
-8.53787187391
11
29.3945522197
21
-8.18199955001
0
LINE
8
cam
10
29.3945522197
20
-8.18199955001
11
29.5759745707
21
-7.83688973457
0
LINE
8
cam
10
29.5759745707
20
-7.83688973457
11
29.9561876952
21
-7.54774529274
0
LINE
8
cam
10
29.9561876952
20
-7.54774529274
11
30.145205032
21
-7.21467782822
0
LINE
8
cam
10
30.145205032
20
-7.21467782822
11
30.3353135459
21
-6.88413838976
0
LINE
8
cam
10
30.3353135459
20
-6.88413838976
11
30.5253430616
21
-6.5529449716
0
LINE
8
cam
10
30.5253430616
20
-6.5529449716
11
30.7142390352
21
-6.21815063168
0
LINE
8
cam
10
30.7142390352
20
-6.21815063168
11
30.9009359054
21
-5.87716645761
0
LINE
8
cam
10
30.9009359054
20
-5.87716645761
11
31.0842775602
21
-5.52782413952
0
LINE
8
cam
10
31.0842775602
20
-5.52782413952
11
31.2629803446
21
-5.16840119802
0
LINE
8
cam
10
31.2629803446
20
-5.16840119802
11
31.4356291049
21
-4.7976244504
0
LINE
8
cam
10
31.4356291049
20
-4.7976244504
11
31.6006964668
21
-4.41466099802
0
LINE
8
cam
10
31.6006964668
20
-4.41466099802
11
31.7565770892
21
-4.01910170814
0
LINE
8
cam
10
31.7565770892
20
-4.01910170814
11
31.901630559
21
-3.61093957542
0
LINE
8
cam
10
31.901630559
20
-3.61093957542
11
31.8351546363
21
-3.17131683207
0
LINE
8
cam
10
31.8351546363
20
-3.17131683207
11
31.9534898667
21
-2.74204642022
0
LINE
8
cam
10
31.9534898667
20
-2.74204642022
11
32.0563682127
21
-2.302334453
0
LINE
8
cam
10
32.0563682127
20
-2.302334453
11
32.1424753276
21
-1.8534815812
0
LINE
8
cam
10
32.1424753276
20
-1.8534815812
11
32.2106817912
21
-1.39702411209
0
LINE
8
cam
10
32.2106817912
20
-1.39702411209
11
32.260074935
21
-0.934690954307
0
LINE
8
cam
10
32.260074935
20
-0.934690954307
11
32.2899842698
21
-0.468357928745
0
LINE
8
cam
10
32.2899842698
20
-0.468357928745
11
32.3
21
-1.54462860995e-14
0
CIRCLE
8
cam
10
-1.0
20
0
40
2.5
0
CIRCLE
8
roller
10
35.0
20
0.0
40
2.5
0
CIRCLE
8
roller
10
29.4438736491
20
18.9224286109
40
2.5
0
CIRCLE
8
roller
10
14.5395254551
20
31.8371198374
40
2.5
0
CIRCLE
8
roller
10
-4.98101933956
20
34.6437504658
40
2.5
0
CIRCLE
8
roller
10
-22.9201256881
20
26.4512351024
40
2.5
0
CIRCLE
8
roller
10
-33.5822540765
20
9.86063948945
40
2.5
0
CIRCLE
8
roller
10
-33.5822540765
20
-9.86063948945
40
2.5
0
CIRCLE
8
roller
10
-22.9201256881
20
-26.4512351024
40
2.5
0
CIRCLE
8
roller
10
-4.98101933956
20
-34.6437504658
40
2.5
0
CIRCLE
8
roller
10
14.5395254551
20
-31.8371198374
40
2.5
0
CIRCLE
8
roller
10
29.4438736491
20
-18.9224286109
40
2.5
0
CIRCLE
8
roller
10
0
20
0
40
2.5
0
ENDSEC
0
EOF
