0
SECTION
2
HEADER
9
$ACADVER
1
AC1006
9
$INSBASE
10
0.0
20
0.0
30
0.0
9
$EXTMIN
10
0.0
20
0.0
9
$EXTMAX
10
0.0
20
0.0
0
ENDSEC
0
SECTION
2
TABLES
0
TABLE
2
LTYPE
70
1
0
LTYPE
2
CONTINUOUS
70
64
3
Solid line
72
65
73
0
40
0.0
0
ENDTAB
0
TABLE
2
LAYER
70
5
0
LAYER
2
PYDXF
70
64
62
7
6
continuous
0
LAYER
2
TEXT
70
64
62
2
6
continuous
0
LAYER
2
CAM
70
64
62
1
6
continuous
0
LAYER
2
ROLLER
70
64
62
5
6
continuous
0
LAYER
2
PRESSURE
70
64
62
3
6
continuous
0
ENDTAB
0
TABLE
2
STYLE
70
1
0
STYLE
2
STANDARD
70
0
40
0
41
40
50
50
71
0
42
1
3
ARIAL.TTF
4

0
ENDTAB
0
TABLE
2
VIEW
70
0
0
ENDTAB
0
ENDSEC
0
SECTION
2
BLOCKS
0
ENDSEC
0
SECTION
2
ENTITIES
0
TEXT
8
text
10
22.5
20
0.7
40
0.1
1
pitch=1.75
0
TEXT
8
text
10
22.5
20
0.5
40
0.1
1
pin diameter=5.0
0
TEXT
8
text
10
22.5
20
0.3
40
0.1
1
eccentricity=1.0
0
TEXT
8
text
10
22.5
20
0.1
40
0.1
1
# of teeth=10
0
TEXT
8
text
10
22.5
20
-0.1
40
0.1
1
pressure angle limit=50.0
0
TEXT
8
text
10
22.5
20
-0.3
40
0.1
1
pressure angle offset=0.1
0
TEXT
8
text
10
22.5
20
-0.5
40
0.1
1
min angle=13.0
0
TEXT
8
text
10
22.5
20
-0.7
40
0.1
1
max angle=112.0
0
CIRCLE
8
pressure
10
-1.0
20
0
40
14.3289765839
0
CIRCLE
8
pressure
10
-1.0
20
0
40
15.6566335055
0
LINE
8
cam
10
14.9
20
0.0
11
14.8937453952
21
0.203882478617
0
LINE
8
cam
10
14.8937453952
20
0.203882478617
11
14.8751133014
21
0.405947081791
0
LINE
8
cam
10
14.8751133014
20
0.405947081791
11
14.844494791
21
0.604421651412
0
LINE
8
cam
10
14.844494791
20
0.604421651412
11
14.8025280229
21
0.797624629491
0
LINE
8
cam
10
14.8025280229
20
0.797624629491
11
14.7500777928
21
0.984008307447
0
LINE
8
cam
10
14.7500777928
20
0.984008307447
11
14.6882068578
21
1.16219971775
0
LINE
8
cam
10
14.6882068578
20
1.16219971775
11
14.6181389045
21
1.33103856639
0
LINE
8
cam
10
14.6181389045
20
1.33103856639
11
14.5412128608
21
1.48961179092
0
LINE
8
cam
10
14.5412128608
20
1.48961179092
11
14.5582717526
21
1.64781695986
0
LINE
8
cam
10
14.5582717526
20
1.64781695986
11
14.4717193133
21
1.78519070733
0
LINE
8
cam
10
14.4717193133
20
1.78519070733
11
14.3824129252
21
1.91127626166
0
LINE
8
cam
10
14.3824129252
20
1.91127626166
11
14.2914906073
21
2.02643479691
0
LINE
8
cam
10
14.2914906073
20
2.02643479691
11
14.1998017536
21
2.1314160486
0
LINE
8
cam
10
14.1998017536
20
2.1314160486
11
14.1077662771
21
2.22739868634
0
LINE
8
cam
10
14.1077662771
20
2.22739868634
11
14.0151944028
21
2.316054737
0
LINE
8
cam
10
14.0151944028
20
2.316054737
11
13.9210505373
21
2.39966217567
0
LINE
8
cam
10
13.9210505373
20
2.39966217567
11
13.8231400266
21
2.48131059341
0
LINE
8
cam
10
13.8231400266
20
2.48131059341
11
13.7177001996
21
2.56528400524
0
LINE
8
cam
10
13.7177001996
20
2.56528400524
11
13.5989106889
21
2.65777546809
0
LINE
8
cam
10
13.5989106889
20
2.65777546809
11
13.4584773726
21
2.76819664758
0
LINE
8
cam
10
13.4584773726
20
2.76819664758
11
13.285896933
21
2.91141670734
0
LINE
8
cam
10
13.285896933
20
2.91141670734
11
13.0712073915
21
3.11081390064
0
LINE
8
cam
10
13.0712073915
20
3.11081390064
11
12.7169425736
21
3.37535619947
0
LINE
8
cam
10
12.7169425736
20
3.37535619947
11
12.4449071033
21
3.78022791971
0
LINE
8
cam
10
12.4449071033
20
3.78022791971
11
12.2196855765
21
4.29533622181
0
LINE
8
cam
10
12.2196855765
20
4.29533622181
11
12.0991205559
21
4.84444948413
0
LINE
8
cam
10
12.0991205559
20
4.84444948413
11
12.0812242482
21
5.33189602384
0
LINE
8
cam
10
12.0812242482
20
5.33189602384
11
12.2123364445
21
5.75414687473
0
LINE
8
cam
10
12.2123364445
20
5.75414687473
11
12.2688212025
21
6.04165393903
0
LINE
8
cam
10
12.2688212025
20
6.04165393903
11
12.3242590721
21
6.25896163855
0
LINE
8
cam
10
12.3242590721
20
6.25896163855
11
12.3729680708
21
6.43083888158
0
LINE
8
cam
10
12.3729680708
20
6.43083888158
11
12.4147056858
21
6.57548876932
0
LINE
8
cam
10
12.4147056858
20
6.57548876932
11
12.4506499647
21
6.70540066194
0
LINE
8
cam
10
12.4506499647
20
6.70540066194
11
12.4818694959
21
6.82900597365
0
LINE
8
cam
10
12.4818694959
20
6.82900597365
11
12.5088902637
21
6.95198218816
0
LINE
8
cam
10
12.5088902637
20
6.95198218816
11
12.531671764
21
7.07811882227
0
LINE
8
cam
10
12.531671764
20
7.07811882227
11
12.5497128497
21
7.20986750314
0
LINE
8
cam
10
12.5497128497
20
7.20986750314
11
12.562184259
21
7.34869247586
0
LINE
8
cam
10
12.562184259
20
7.34869247586
11
12.5680534707
21
7.4953004855
0
LINE
8
cam
10
12.5680534707
20
7.4953004855
11
12.566192627
21
7.64979881956
0
LINE
8
cam
10
12.566192627
20
7.64979881956
11
12.5554687584
21
7.81181076319
0
LINE
8
cam
10
12.5554687584
20
7.81181076319
11
12.4486771599
21
7.92977446844
0
LINE
8
cam
10
12.4486771599
20
7.92977446844
11
12.4177046338
21
8.10327889597
0
LINE
8
cam
10
12.4177046338
20
8.10327889597
11
12.3751498135
21
8.2810573034
0
LINE
8
cam
10
12.3751498135
20
8.2810573034
11
12.3204661684
21
8.46158400575
0
LINE
8
cam
10
12.3204661684
20
8.46158400575
11
12.2533457187
21
8.64320104042
0
LINE
8
cam
10
12.2533457187
20
8.64320104042
11
12.1737356861
21
8.82417298041
0
LINE
8
cam
10
12.1737356861
20
8.82417298041
11
12.0818461563
21
9.00273938903
0
LINE
8
cam
10
12.0818461563
20
9.00273938903
11
11.9781492431
21
9.17716475695
0
LINE
8
cam
10
11.9781492431
20
9.17716475695
11
11.8633702106
21
9.34578551145
0
LINE
8
cam
10
11.8633702106
20
9.34578551145
11
11.7384710149
21
9.50705353706
0
LINE
8
cam
10
11.7384710149
20
9.50705353706
11
11.6046267406
21
9.65957556501
0
LINE
8
cam
10
11.6046267406
20
9.65957556501
11
11.4631954203
21
9.80214775594
0
LINE
8
cam
10
11.4631954203
20
9.80214775594
11
11.3156817306
21
9.9337848012
0
LINE
8
cam
10
11.3156817306
20
9.9337848012
11
11.1636950259
21
10.0537428924
0
LINE
8
cam
10
11.1636950259
20
10.0537428924
11
11.0089021049
21
10.1615359484
0
LINE
8
cam
10
11.0089021049
20
10.1615359484
11
10.8529749547
21
10.2569445367
0
LINE
8
cam
10
10.8529749547
20
10.2569445367
11
10.6975334752
21
10.3400169762
0
LINE
8
cam
10
10.6975334752
20
10.3400169762
11
10.6183437435
21
10.4780346115
0
LINE
8
cam
10
10.6183437435
20
10.4780346115
11
10.4675750864
21
10.5382980604
0
LINE
8
cam
10
10.4675750864
20
10.5382980604
11
10.3212134713
21
10.5878104388
0
LINE
8
cam
10
10.3212134713
20
10.5878104388
11
10.1799672823
21
10.6275328533
0
LINE
8
cam
10
10.1799672823
20
10.6275328533
11
10.0440830099
21
10.6585711139
0
LINE
8
cam
10
10.0440830099
20
10.6585711139
11
9.91320756643
21
10.6821256033
0
LINE
8
cam
10
9.91320756643
20
10.6821256033
11
9.78620462784
21
10.6994374724
0
LINE
8
cam
10
9.78620462784
20
10.6994374724
11
9.66089742125
21
10.7117409354
0
LINE
8
cam
10
9.66089742125
20
10.7117409354
11
9.53369441839
21
10.7202455387
0
LINE
8
cam
10
9.53369441839
20
10.7202455387
11
9.39903347333
21
10.7262054806
0
LINE
8
cam
10
9.39903347333
20
10.7262054806
11
9.24856562267
21
10.7312099234
0
LINE
8
cam
10
9.24856562267
20
10.7312099234
11
9.07004874232
21
10.7379979019
0
LINE
8
cam
10
9.07004874232
20
10.7379979019
11
8.84624559482
21
10.7524251269
0
LINE
8
cam
10
8.84624559482
20
10.7524251269
11
8.55535537769
21
10.7875494986
0
LINE
8
cam
10
8.55535537769
20
10.7875494986
11
8.11325505759
21
10.7933370787
0
LINE
8
cam
10
8.11325505759
20
10.7933370787
11
7.65519611289
21
10.9609867434
0
LINE
8
cam
10
7.65519611289
20
10.9609867434
11
7.17021500687
21
11.2453362218
0
LINE
8
cam
10
7.17021500687
20
11.2453362218
11
6.74991517884
21
11.6187118418
0
LINE
8
cam
10
6.74991517884
20
11.6187118418
11
6.44892287442
21
12.0025451905
0
LINE
8
cam
10
6.44892287442
20
12.0025451905
11
6.30680204654
21
12.4212191202
0
LINE
8
cam
10
6.30680204654
20
12.4212191202
11
6.18350676335
21
12.687018129
0
LINE
8
cam
10
6.18350676335
20
12.687018129
11
6.10062668098
21
12.895409313
0
LINE
8
cam
10
6.10062668098
20
12.895409313
11
6.03900618003
21
13.0630913547
0
LINE
8
cam
10
6.03900618003
20
13.0630913547
11
5.98774954911
21
13.2046483266
0
LINE
8
cam
10
5.98774954911
20
13.2046483266
11
5.94046878704
21
13.3308767726
0
LINE
8
cam
10
5.94046878704
20
13.3308767726
11
5.89307253903
21
13.4492259504
0
LINE
8
cam
10
5.89307253903
20
13.4492259504
11
5.84264919404
21
13.5645982066
0
LINE
8
cam
10
5.84264919404
20
13.5645982066
11
5.78693856171
21
13.6800355172
0
LINE
8
cam
10
5.78693856171
20
13.6800355172
11
5.72409417495
21
13.7972267231
0
LINE
8
cam
10
5.72409417495
20
13.7972267231
11
5.65258448544
21
13.9168689957
0
LINE
8
cam
10
5.65258448544
20
13.9168689957
11
5.57115875148
21
14.0389272031
0
LINE
8
cam
10
5.57115875148
20
14.0389272031
11
5.47884145506
21
14.1628252045
0
LINE
8
cam
10
5.47884145506
20
14.1628252045
11
5.37493743199
21
14.2875922884
0
LINE
8
cam
10
5.37493743199
20
14.2875922884
11
5.21920388769
21
14.320256404
0
LINE
8
cam
10
5.21920388769
20
14.320256404
11
5.09216324402
21
14.4424192404
0
LINE
8
cam
10
5.09216324402
20
14.4424192404
11
4.95324014513
21
14.5612318974
0
LINE
8
cam
10
4.95324014513
20
14.5612318974
11
4.8028892136
21
14.6751388274
0
LINE
8
cam
10
4.8028892136
20
14.6751388274
11
4.6418358146
21
14.7826176845
0
LINE
8
cam
10
4.6418358146
20
14.7826176845
11
4.47105730787
21
14.8822334563
0
LINE
8
cam
10
4.47105730787
20
14.8822334563
11
4.29175841516
21
14.9726854051
0
LINE
8
cam
10
4.29175841516
20
14.9726854051
11
4.10534119124
21
15.0528469757
0
LINE
8
cam
10
4.10534119124
20
15.0528469757
11
3.91337021056
21
15.1217986091
0
LINE
8
cam
10
3.91337021056
20
15.1217986091
11
3.71753367155
21
15.1788532772
0
LINE
8
cam
10
3.71753367155
20
15.1788532772
11
3.51960118034
21
15.2235744993
0
LINE
8
cam
10
3.51960118034
20
15.2235744993
11
3.32137900754
21
15.2557865804
0
LINE
8
cam
10
3.32137900754
20
15.2557865804
11
3.12466361173
21
15.2755768158
0
LINE
8
cam
10
3.12466361173
20
15.2755768158
11
2.93119418782
21
15.2832894066
0
LINE
8
cam
10
2.93119418782
20
15.2832894066
11
2.74260491552
21
15.2795108247
0
LINE
8
cam
10
2.74260491552
20
15.2795108247
11
2.56037744001
21
15.2650463148
0
LINE
8
cam
10
2.56037744001
20
15.2650463148
11
2.38579388668
21
15.2408871208
0
LINE
8
cam
10
2.38579388668
20
15.2408871208
11
2.24060331732
21
15.3059991768
0
LINE
8
cam
10
2.24060331732
20
15.3059991768
11
2.08320694499
21
15.266133738
0
LINE
8
cam
10
2.08320694499
20
15.266133738
11
1.9356952653
21
15.2201608947
0
LINE
8
cam
10
1.9356952653
20
15.2201608947
11
1.79807644854
21
15.1692745762
0
LINE
8
cam
10
1.79807644854
20
15.1692745762
11
1.66989993104
21
15.1145142853
0
LINE
8
cam
10
1.66989993104
20
15.1145142853
11
1.55017449164
21
15.0566436119
0
LINE
8
cam
10
1.55017449164
20
15.0566436119
11
1.4372512946
21
14.9959987539
0
LINE
8
cam
10
1.4372512946
20
14.9959987539
11
1.32864384087
21
14.9322987365
0
LINE
8
cam
10
1.32864384087
20
14.9322987365
11
1.22073556942
21
14.864411056
0
LINE
8
cam
10
1.22073556942
20
14.864411056
11
1.10828941045
21
14.7900810327
0
LINE
8
cam
10
1.10828941045
20
14.7900810327
11
0.983616824468
21
14.7056869284
0
LINE
8
cam
10
0.983616824468
20
14.7056869284
11
0.835203760848
21
14.6062489288
0
LINE
8
cam
10
0.835203760848
20
14.6062489288
11
0.645663101014
21
14.4863726095
0
LINE
8
cam
10
0.645663101014
20
14.4863726095
11
0.389682384169
21
14.3438078435
0
LINE
8
cam
10
0.389682384169
20
14.3438078435
11
0.0286138577682
21
14.0886300459
0
LINE
8
cam
10
0.0286138577682
20
14.0886300459
11
-0.440505613393
21
13.9550211814
0
LINE
8
cam
10
-0.440505613393
20
13.9550211814
11
-1.0
21
13.9
0
LINE
8
cam
10
-1.0
20
13.9
11
-1.55949438661
21
13.9550211814
0
LINE
8
cam
10
-1.55949438661
20
13.9550211814
11
-2.02861385777
21
14.0886300459
0
LINE
8
cam
10
-2.02861385777
20
14.0886300459
11
-2.38968238417
21
14.3438078435
0
LINE
8
cam
10
-2.38968238417
20
14.3438078435
11
-2.64566310101
21
14.4863726095
0
LINE
8
cam
10
-2.64566310101
20
14.4863726095
11
-2.83520376085
21
14.6062489288
0
LINE
8
cam
10
-2.83520376085
20
14.6062489288
11
-2.98361682447
21
14.7056869284
0
LINE
8
cam
10
-2.98361682447
20
14.7056869284
11
-3.10828941045
21
14.7900810327
0
LINE
8
cam
10
-3.10828941045
20
14.7900810327
11
-3.22073556942
21
14.864411056
0
LINE
8
cam
10
-3.22073556942
20
14.864411056
11
-3.32864384087
21
14.9322987365
0
LINE
8
cam
10
-3.32864384087
20
14.9322987365
11
-3.4372512946
21
14.9959987539
0
LINE
8
cam
10
-3.4372512946
20
14.9959987539
11
-3.55017449164
21
15.0566436119
0
LINE
8
cam
10
-3.55017449164
20
15.0566436119
11
-3.66989993104
21
15.1145142853
0
LINE
8
cam
10
-3.66989993104
20
15.1145142853
11
-3.79807644854
21
15.1692745762
0
LINE
8
cam
10
-3.79807644854
20
15.1692745762
11
-3.9356952653
21
15.2201608947
0
LINE
8
cam
10
-3.9356952653
20
15.2201608947
11
-4.08320694499
21
15.266133738
0
LINE
8
cam
10
-4.08320694499
20
15.266133738
11
-4.24060331732
21
15.3059991768
0
LINE
8
cam
10
-4.24060331732
20
15.3059991768
11
-4.38579388668
21
15.2408871208
0
LINE
8
cam
10
-4.38579388668
20
15.2408871208
11
-4.56037744001
21
15.2650463148
0
LINE
8
cam
10
-4.56037744001
20
15.2650463148
11
-4.74260491552
21
15.2795108247
0
LINE
8
cam
10
-4.74260491552
20
15.2795108247
11
-4.93119418782
21
15.2832894066
0
LINE
8
cam
10
-4.93119418782
20
15.2832894066
11
-5.12466361173
21
15.2755768158
0
LINE
8
cam
10
-5.12466361173
20
15.2755768158
11
-5.32137900754
21
15.2557865804
0
LINE
8
cam
10
-5.32137900754
20
15.2557865804
11
-5.51960118034
21
15.2235744993
0
LINE
8
cam
10
-5.51960118034
20
15.2235744993
11
-5.71753367155
21
15.1788532772
0
LINE
8
cam
10
-5.71753367155
20
15.1788532772
11
-5.91337021056
21
15.1217986091
0
LINE
8
cam
10
-5.91337021056
20
15.1217986091
11
-6.10534119124
21
15.0528469757
0
LINE
8
cam
10
-6.10534119124
20
15.0528469757
11
-6.29175841516
21
14.9726854051
0
LINE
8
cam
10
-6.29175841516
20
14.9726854051
11
-6.47105730787
21
14.8822334563
0
LINE
8
cam
10
-6.47105730787
20
14.8822334563
11
-6.6418358146
21
14.7826176845
0
LINE
8
cam
10
-6.6418358146
20
14.7826176845
11
-6.8028892136
21
14.6751388274
0
LINE
8
cam
10
-6.8028892136
20
14.6751388274
11
-6.95324014513
21
14.5612318974
0
LINE
8
cam
10
-6.95324014513
20
14.5612318974
11
-7.09216324402
21
14.4424192404
0
LINE
8
cam
10
-7.09216324402
20
14.4424192404
11
-7.21920388769
21
14.320256404
0
LINE
8
cam
10
-7.21920388769
20
14.320256404
11
-7.37493743199
21
14.2875922884
0
LINE
8
cam
10
-7.37493743199
20
14.2875922884
11
-7.47884145506
21
14.1628252045
0
LINE
8
cam
10
-7.47884145506
20
14.1628252045
11
-7.57115875148
21
14.0389272031
0
LINE
8
cam
10
-7.57115875148
20
14.0389272031
11
-7.65258448544
21
13.9168689957
0
LINE
8
cam
10
-7.65258448544
20
13.9168689957
11
-7.72409417495
21
13.7972267231
0
LINE
8
cam
10
-7.72409417495
20
13.7972267231
11
-7.78693856171
21
13.6800355172
0
LINE
8
cam
10
-7.78693856171
20
13.6800355172
11
-7.84264919404
21
13.5645982066
0
LINE
8
cam
10
-7.84264919404
20
13.5645982066
11
-7.89307253903
21
13.4492259504
0
LINE
8
cam
10
-7.89307253903
20
13.4492259504
11
-7.94046878704
21
13.3308767726
0
LINE
8
cam
10
-7.94046878704
20
13.3308767726
11
-7.98774954911
21
13.2046483266
0
LINE
8
cam
10
-7.98774954911
20
13.2046483266
11
-8.03900618003
21
13.0630913547
0
LINE
8
cam
10
-8.03900618003
20
13.0630913547
11
-8.10062668098
21
12.895409313
0
LINE
8
cam
10
-8.10062668098
20
12.895409313
11
-8.18350676335
21
12.687018129
0
LINE
8
cam
10
-8.18350676335
20
12.687018129
11
-8.30680204654
21
12.4212191202
0
LINE
8
cam
10
-8.30680204654
20
12.4212191202
11
-8.44892287442
21
12.0025451905
0
LINE
8
cam
10
-8.44892287442
20
12.0025451905
11
-8.74991517884
21
11.6187118418
0
LINE
8
cam
10
-8.74991517884
20
11.6187118418
11
-9.17021500687
21
11.2453362218
0
LINE
8
cam
10
-9.17021500687
20
11.2453362218
11
-9.65519611289
21
10.9609867434
0
LINE
8
cam
10
-9.65519611289
20
10.9609867434
11
-10.1132550576
21
10.7933370787
0
LINE
8
cam
10
-10.1132550576
20
10.7933370787
11
-10.5553553777
21
10.7875494986
0
LINE
8
cam
10
-10.5553553777
20
10.7875494986
11
-10.8462455948
21
10.7524251269
0
LINE
8
cam
10
-10.8462455948
20
10.7524251269
11
-11.0700487423
21
10.7379979019
0
LINE
8
cam
10
-11.0700487423
20
10.7379979019
11
-11.2485656227
21
10.7312099234
0
LINE
8
cam
10
-11.2485656227
20
10.7312099234
11
-11.3990334733
21
10.7262054806
0
LINE
8
cam
10
-11.3990334733
20
10.7262054806
11
-11.5336944184
21
10.7202455387
0
LINE
8
cam
10
-11.5336944184
20
10.7202455387
11
-11.6608974212
21
10.7117409354
0
LINE
8
cam
10
-11.6608974212
20
10.7117409354
11
-11.7862046278
21
10.6994374724
0
LINE
8
cam
10
-11.7862046278
20
10.6994374724
11
-11.9132075664
21
10.6821256033
0
LINE
8
cam
10
-11.9132075664
20
10.6821256033
11
-12.0440830099
21
10.6585711139
0
LINE
8
cam
10
-12.0440830099
20
10.6585711139
11
-12.1799672823
21
10.6275328533
0
LINE
8
cam
10
-12.1799672823
20
10.6275328533
11
-12.3212134713
21
10.5878104388
0
LINE
8
cam
10
-12.3212134713
20
10.5878104388
11
-12.4675750864
21
10.5382980604
0
LINE
8
cam
10
-12.4675750864
20
10.5382980604
11
-12.6183437435
21
10.4780346115
0
LINE
8
cam
10
-12.6183437435
20
10.4780346115
11
-12.6975334752
21
10.3400169762
0
LINE
8
cam
10
-12.6975334752
20
10.3400169762
11
-12.8529749547
21
10.2569445367
0
LINE
8
cam
10
-12.8529749547
20
10.2569445367
11
-13.0089021049
21
10.1615359484
0
LINE
8
cam
10
-13.0089021049
20
10.1615359484
11
-13.1636950259
21
10.0537428924
0
LINE
8
cam
10
-13.1636950259
20
10.0537428924
11
-13.3156817306
21
9.9337848012
0
LINE
8
cam
10
-13.3156817306
20
9.9337848012
11
-13.4631954203
21
9.80214775594
0
LINE
8
cam
10
-13.4631954203
20
9.80214775594
11
-13.6046267406
21
9.65957556501
0
LINE
8
cam
10
-13.6046267406
20
9.65957556501
11
-13.7384710149
21
9.50705353706
0
LINE
8
cam
10
-13.7384710149
20
9.50705353706
11
-13.8633702106
21
9.34578551145
0
LINE
8
cam
10
-13.8633702106
20
9.34578551145
11
-13.9781492431
21
9.17716475695
0
LINE
8
cam
10
-13.9781492431
20
9.17716475695
11
-14.0818461563
21
9.00273938903
0
LINE
8
cam
10
-14.0818461563
20
9.00273938903
11
-14.1737356861
21
8.82417298041
0
LINE
8
cam
10
-14.1737356861
20
8.82417298041
11
-14.2533457187
21
8.64320104042
0
LINE
8
cam
10
-14.2533457187
20
8.64320104042
11
-14.3204661684
21
8.46158400575
0
LINE
8
cam
10
-14.3204661684
20
8.46158400575
11
-14.3751498135
21
8.2810573034
0
LINE
8
cam
10
-14.3751498135
20
8.2810573034
11
-14.4177046338
21
8.10327889597
0
LINE
8
cam
10
-14.4177046338
20
8.10327889597
11
-14.4486771599
21
7.92977446844
0
LINE
8
cam
10
-14.4486771599
20
7.92977446844
11
-14.5554687584
21
7.81181076319
0
LINE
8
cam
10
-14.5554687584
20
7.81181076319
11
-14.566192627
21
7.64979881956
0
LINE
8
cam
10
-14.566192627
20
7.64979881956
11
-14.5680534707
21
7.4953004855
0
LINE
8
cam
10
-14.5680534707
20
7.4953004855
11
-14.562184259
21
7.34869247586
0
LINE
8
cam
10
-14.562184259
20
7.34869247586
11
-14.5497128497
21
7.20986750314
0
LINE
8
cam
10
-14.5497128497
20
7.20986750314
11
-14.531671764
21
7.07811882227
0
LINE
8
cam
10
-14.531671764
20
7.07811882227
11
-14.5088902637
21
6.95198218816
0
LINE
8
cam
10
-14.5088902637
20
6.95198218816
11
-14.4818694959
21
6.82900597365
0
LINE
8
cam
10
-14.4818694959
20
6.82900597365
11
-14.4506499647
21
6.70540066194
0
LINE
8
cam
10
-14.4506499647
20
6.70540066194
11
-14.4147056858
21
6.57548876932
0
LINE
8
cam
10
-14.4147056858
20
6.57548876932
11
-14.3729680708
21
6.43083888158
0
LINE
8
cam
10
-14.3729680708
20
6.43083888158
11
-14.3242590721
21
6.25896163855
0
LINE
8
cam
10
-14.3242590721
20
6.25896163855
11
-14.2688212025
21
6.04165393903
0
LINE
8
cam
10
-14.2688212025
20
6.04165393903
11
-14.2123364445
21
5.75414687473
0
LINE
8
cam
10
-14.2123364445
20
5.75414687473
11
-14.0812242482
21
5.33189602384
0
LINE
8
cam
10
-14.0812242482
20
5.33189602384
11
-14.0991205559
21
4.84444948413
0
LINE
8
cam
10
-14.0991205559
20
4.84444948413
11
-14.2196855765
21
4.29533622181
0
LINE
8
cam
10
-14.2196855765
20
4.29533622181
11
-14.4449071033
21
3.78022791971
0
LINE
8
cam
10
-14.4449071033
20
3.78022791971
11
-14.7169425736
21
3.37535619947
0
LINE
8
cam
10
-14.7169425736
20
3.37535619947
11
-15.0712073915
21
3.11081390064
0
LINE
8
cam
10
-15.0712073915
20
3.11081390064
11
-15.285896933
21
2.91141670734
0
LINE
8
cam
10
-15.285896933
20
2.91141670734
11
-15.4584773726
21
2.76819664758
0
LINE
8
cam
10
-15.4584773726
20
2.76819664758
11
-15.598910689
21
2.65777546809
0
LINE
8
cam
10
-15.598910689
20
2.65777546809
11
-15.7177001996
21
2.56528400524
0
LINE
8
cam
10
-15.7177001996
20
2.56528400524
11
-15.8231400266
21
2.48131059341
0
LINE
8
cam
10
-15.8231400266
20
2.48131059341
11
-15.9210505373
21
2.39966217567
0
LINE
8
cam
10
-15.9210505373
20
2.39966217567
11
-16.0151944028
21
2.316054737
0
LINE
8
cam
10
-16.0151944028
20
2.316054737
11
-16.1077662771
21
2.22739868634
0
LINE
8
cam
10
-16.1077662771
20
2.22739868634
11
-16.1998017536
21
2.1314160486
0
LINE
8
cam
10
-16.1998017536
20
2.1314160486
11
-16.2914906073
21
2.02643479691
0
LINE
8
cam
10
-16.2914906073
20
2.02643479691
11
-16.3824129252
21
1.91127626166
0
LINE
8
cam
10
-16.3824129252
20
1.91127626166
11
-16.4717193133
21
1.78519070733
0
LINE
8
cam
10
-16.4717193133
20
1.78519070733
11
-16.5582717526
21
1.64781695986
0
LINE
8
cam
10
-16.5582717526
20
1.64781695986
11
-16.5412128608
21
1.48961179092
0
LINE
8
cam
10
-16.5412128608
20
1.48961179092
11
-16.6181389045
21
1.33103856639
0
LINE
8
cam
10
-16.6181389045
20
1.33103856639
11
-16.6882068578
21
1.16219971775
0
LINE
8
cam
10
-16.6882068578
20
1.16219971775
11
-16.7500777928
21
0.984008307447
0
LINE
8
cam
10
-16.7500777928
20
0.984008307447
11
-16.8025280229
21
0.797624629491
0
LINE
8
cam
10
-16.8025280229
20
0.797624629491
11
-16.844494791
21
0.604421651412
0
LINE
8
cam
10
-16.844494791
20
0.604421651412
11
-16.8751133014
21
0.405947081791
0
LINE
8
cam
10
-16.8751133014
20
0.405947081791
11
-16.8937453952
21
0.203882478617
0
LINE
8
cam
10
-16.8937453952
20
0.203882478617
11
-16.9
21
9.00814253919e-15
0
LINE
8
cam
10
-16.9
20
9.00814253919e-15
11
-16.8937453952
21
-0.203882478617
0
LINE
8
cam
10
-16.8937453952
20
-0.203882478617
11
-16.8751133014
21
-0.405947081791
0
LINE
8
cam
10
-16.8751133014
20
-0.405947081791
11
-16.844494791
21
-0.604421651412
0
LINE
8
cam
10
-16.844494791
20
-0.604421651412
11
-16.8025280229
21
-0.797624629491
0
LINE
8
cam
10
-16.8025280229
20
-0.797624629491
11
-16.7500777928
21
-0.984008307447
0
LINE
8
cam
10
-16.7500777928
20
-0.984008307447
11
-16.6882068578
21
-1.16219971775
0
LINE
8
cam
10
-16.6882068578
20
-1.16219971775
11
-16.6181389045
21
-1.33103856639
0
LINE
8
cam
10
-16.6181389045
20
-1.33103856639
11
-16.5412128608
21
-1.48961179092
0
LINE
8
cam
10
-16.5412128608
20
-1.48961179092
11
-16.5582717526
21
-1.64781695986
0
LINE
8
cam
10
-16.5582717526
20
-1.64781695986
11
-16.4717193133
21
-1.78519070733
0
LINE
8
cam
10
-16.4717193133
20
-1.78519070733
11
-16.3824129252
21
-1.91127626166
0
LINE
8
cam
10
-16.3824129252
20
-1.91127626166
11
-16.2914906073
21
-2.02643479691
0
LINE
8
cam
10
-16.2914906073
20
-2.02643479691
11
-16.1998017536
21
-2.1314160486
0
LINE
8
cam
10
-16.1998017536
20
-2.1314160486
11
-16.1077662771
21
-2.22739868634
0
LINE
8
cam
10
-16.1077662771
20
-2.22739868634
11
-16.0151944028
21
-2.316054737
0
LINE
8
cam
10
-16.0151944028
20
-2.316054737
11
-15.9210505373
21
-2.39966217567
0
LINE
8
cam
10
-15.9210505373
20
-2.39966217567
11
-15.8231400266
21
-2.48131059341
0
LINE
8
cam
10
-15.8231400266
20
-2.48131059341
11
-15.7177001996
21
-2.56528400524
0
LINE
8
cam
10
-15.7177001996
20
-2.56528400524
11
-15.5989106889
21
-2.65777546809
0
LINE
8
cam
10
-15.5989106889
20
-2.65777546809
11
-15.4584773726
21
-2.76819664758
0
LINE
8
cam
10
-15.4584773726
20
-2.76819664758
11
-15.285896933
21
-2.91141670734
0
LINE
8
cam
10
-15.285896933
20
-2.91141670734
11
-15.0712073915
21
-3.11081390064
0
LINE
8
cam
10
-15.0712073915
20
-3.11081390064
11
-14.7169425736
21
-3.37535619947
0
LINE
8
cam
10
-14.7169425736
20
-3.37535619947
11
-14.4449071033
21
-3.78022791971
0
LINE
8
cam
10
-14.4449071033
20
-3.78022791971
11
-14.2196855765
21
-4.29533622181
0
LINE
8
cam
10
-14.2196855765
20
-4.29533622181
11
-14.0991205559
21
-4.84444948413
0
LINE
8
cam
10
-14.0991205559
20
-4.84444948413
11
-14.0812242482
21
-5.33189602384
0
LINE
8
cam
10
-14.0812242482
20
-5.33189602384
11
-14.2123364445
21
-5.75414687473
0
LINE
8
cam
10
-14.2123364445
20
-5.75414687473
11
-14.2688212025
21
-6.04165393903
0
LINE
8
cam
10
-14.2688212025
20
-6.04165393903
11
-14.3242590721
21
-6.25896163855
0
LINE
8
cam
10
-14.3242590721
20
-6.25896163855
11
-14.3729680708
21
-6.43083888158
0
LINE
8
cam
10
-14.3729680708
20
-6.43083888158
11
-14.4147056858
21
-6.57548876932
0
LINE
8
cam
10
-14.4147056858
20
-6.57548876932
11
-14.4506499647
21
-6.70540066194
0
LINE
8
cam
10
-14.4506499647
20
-6.70540066194
11
-14.4818694959
21
-6.82900597365
0
LINE
8
cam
10
-14.4818694959
20
-6.82900597365
11
-14.5088902637
21
-6.95198218816
0
LINE
8
cam
10
-14.5088902637
20
-6.95198218816
11
-14.531671764
21
-7.07811882227
0
LINE
8
cam
10
-14.531671764
20
-7.07811882227
11
-14.5497128497
21
-7.20986750314
0
LINE
8
cam
10
-14.5497128497
20
-7.20986750314
11
-14.562184259
21
-7.34869247586
0
LINE
8
cam
10
-14.562184259
20
-7.34869247586
11
-14.5680534707
21
-7.4953004855
0
LINE
8
cam
10
-14.5680534707
20
-7.4953004855
11
-14.566192627
21
-7.64979881956
0
LINE
8
cam
10
-14.566192627
20
-7.64979881956
11
-14.5554687584
21
-7.81181076319
0
LINE
8
cam
10
-14.5554687584
20
-7.81181076319
11
-14.4486771599
21
-7.92977446844
0
LINE
8
cam
10
-14.4486771599
20
-7.92977446844
11
-14.4177046338
21
-8.10327889597
0
LINE
8
cam
10
-14.4177046338
20
-8.10327889597
11
-14.3751498135
21
-8.2810573034
0
LINE
8
cam
10
-14.3751498135
20
-8.2810573034
11
-14.3204661684
21
-8.46158400575
0
LINE
8
cam
10
-14.3204661684
20
-8.46158400575
11
-14.2533457187
21
-8.64320104042
0
LINE
8
cam
10
-14.2533457187
20
-8.64320104042
11
-14.1737356861
21
-8.82417298041
0
LINE
8
cam
10
-14.1737356861
20
-8.82417298041
11
-14.0818461563
21
-9.00273938903
0
LINE
8
cam
10
-14.0818461563
20
-9.00273938903
11
-13.9781492431
21
-9.17716475695
0
LINE
8
cam
10
-13.9781492431
20
-9.17716475695
11
-13.8633702106
21
-9.34578551145
0
LINE
8
cam
10
-13.8633702106
20
-9.34578551145
11
-13.7384710149
21
-9.50705353706
0
LINE
8
cam
10
-13.7384710149
20
-9.50705353706
11
-13.6046267406
21
-9.65957556501
0
LINE
8
cam
10
-13.6046267406
20
-9.65957556501
11
-13.4631954203
21
-9.80214775594
0
LINE
8
cam
10
-13.4631954203
20
-9.80214775594
11
-13.3156817306
21
-9.9337848012
0
LINE
8
cam
10
-13.3156817306
20
-9.9337848012
11
-13.1636950259
21
-10.0537428924
0
LINE
8
cam
10
-13.1636950259
20
-10.0537428924
11
-13.0089021049
21
-10.1615359484
0
LINE
8
cam
10
-13.0089021049
20
-10.1615359484
11
-12.8529749547
21
-10.2569445367
0
LINE
8
cam
10
-12.8529749547
20
-10.2569445367
11
-12.6975334752
21
-10.3400169762
0
LINE
8
cam
10
-12.6975334752
20
-10.3400169762
11
-12.6183437435
21
-10.4780346115
0
LINE
8
cam
10
-12.6183437435
20
-10.4780346115
11
-12.4675750864
21
-10.5382980604
0
LINE
8
cam
10
-12.4675750864
20
-10.5382980604
11
-12.3212134713
21
-10.5878104388
0
LINE
8
cam
10
-12.3212134713
20
-10.5878104388
11
-12.1799672823
21
-10.6275328533
0
LINE
8
cam
10
-12.1799672823
20
-10.6275328533
11
-12.0440830099
21
-10.6585711139
0
LINE
8
cam
10
-12.0440830099
20
-10.6585711139
11
-11.9132075664
21
-10.6821256033
0
LINE
8
cam
10
-11.9132075664
20
-10.6821256033
11
-11.7862046278
21
-10.6994374724
0
LINE
8
cam
10
-11.7862046278
20
-10.6994374724
11
-11.6608974212
21
-10.7117409354
0
LINE
8
cam
10
-11.6608974212
20
-10.7117409354
11
-11.5336944184
21
-10.7202455387
0
LINE
8
cam
10
-11.5336944184
20
-10.7202455387
11
-11.3990334733
21
-10.7262054806
0
LINE
8
cam
10
-11.3990334733
20
-10.7262054806
11
-11.2485656227
21
-10.7312099234
0
LINE
8
cam
10
-11.2485656227
20
-10.7312099234
11
-11.0700487423
21
-10.7379979019
0
LINE
8
cam
10
-11.0700487423
20
-10.7379979019
11
-10.8462455948
21
-10.7524251269
0
LINE
8
cam
10
-10.8462455948
20
-10.7524251269
11
-10.5553553777
21
-10.7875494986
0
LINE
8
cam
10
-10.5553553777
20
-10.7875494986
11
-10.1132550576
21
-10.7933370787
0
LINE
8
cam
10
-10.1132550576
20
-10.7933370787
11
-9.65519611289
21
-10.9609867434
0
LINE
8
cam
10
-9.65519611289
20
-10.9609867434
11
-9.17021500687
21
-11.2453362218
0
LINE
8
cam
10
-9.17021500687
20
-11.2453362218
11
-8.74991517884
21
-11.6187118418
0
LINE
8
cam
10
-8.74991517884
20
-11.6187118418
11
-8.44892287442
21
-12.0025451905
0
LINE
8
cam
10
-8.44892287442
20
-12.0025451905
11
-8.30680204654
21
-12.4212191202
0
LINE
8
cam
10
-8.30680204654
20
-12.4212191202
11
-8.18350676335
21
-12.687018129
0
LINE
8
cam
10
-8.18350676335
20
-12.687018129
11
-8.10062668098
21
-12.895409313
0
LINE
8
cam
10
-8.10062668098
20
-12.895409313
11
-8.03900618003
21
-13.0630913547
0
LINE
8
cam
10
-8.03900618003
20
-13.0630913547
11
-7.98774954911
21
-13.2046483266
0
LINE
8
cam
10
-7.98774954911
20
-13.2046483266
11
-7.94046878704
21
-13.3308767726
0
LINE
8
cam
10
-7.94046878704
20
-13.3308767726
11
-7.89307253903
21
-13.4492259504
0
LINE
8
cam
10
-7.89307253903
20
-13.4492259504
11
-7.84264919404
21
-13.5645982066
0
LINE
8
cam
10
-7.84264919404
20
-13.5645982066
11
-7.78693856171
21
-13.6800355172
0
LINE
8
cam
10
-7.78693856171
20
-13.6800355172
11
-7.72409417495
21
-13.7972267231
0
LINE
8
cam
10
-7.72409417495
20
-13.7972267231
11
-7.65258448544
21
-13.9168689957
0
LINE
8
cam
10
-7.65258448544
20
-13.9168689957
11
-7.57115875148
21
-14.0389272031
0
LINE
8
cam
10
-7.57115875148
20
-14.0389272031
11
-7.47884145506
21
-14.1628252045
0
LINE
8
cam
10
-7.47884145506
20
-14.1628252045
11
-7.37493743199
21
-14.2875922884
0
LINE
8
cam
10
-7.37493743199
20
-14.2875922884
11
-7.21920388769
21
-14.320256404
0
LINE
8
cam
10
-7.21920388769
20
-14.320256404
11
-7.09216324402
21
-14.4424192404
0
LINE
8
cam
10
-7.09216324402
20
-14.4424192404
11
-6.95324014513
21
-14.5612318974
0
LINE
8
cam
10
-6.95324014513
20
-14.5612318974
11
-6.8028892136
21
-14.6751388274
0
LINE
8
cam
10
-6.8028892136
20
-14.6751388274
11
-6.6418358146
21
-14.7826176845
0
LINE
8
cam
10
-6.6418358146
20
-14.7826176845
11
-6.47105730787
21
-14.8822334563
0
LINE
8
cam
10
-6.47105730787
20
-14.8822334563
11
-6.29175841516
21
-14.9726854051
0
LINE
8
cam
10
-6.29175841516
20
-14.9726854051
11
-6.10534119124
21
-15.0528469757
0
LINE
8
cam
10
-6.10534119124
20
-15.0528469757
11
-5.91337021056
21
-15.1217986091
0
LINE
8
cam
10
-5.91337021056
20
-15.1217986091
11
-5.71753367155
21
-15.1788532772
0
LINE
8
cam
10
-5.71753367155
20
-15.1788532772
11
-5.51960118034
21
-15.2235744993
0
LINE
8
cam
10
-5.51960118034
20
-15.2235744993
11
-5.32137900754
21
-15.2557865804
0
LINE
8
cam
10
-5.32137900754
20
-15.2557865804
11
-5.12466361173
21
-15.2755768158
0
LINE
8
cam
10
-5.12466361173
20
-15.2755768158
11
-4.93119418782
21
-15.2832894066
0
LINE
8
cam
10
-4.93119418782
20
-15.2832894066
11
-4.74260491552
21
-15.2795108247
0
LINE
8
cam
10
-4.74260491552
20
-15.2795108247
11
-4.56037744001
21
-15.2650463148
0
LINE
8
cam
10
-4.56037744001
20
-15.2650463148
11
-4.38579388668
21
-15.2408871208
0
LINE
8
cam
10
-4.38579388668
20
-15.2408871208
11
-4.24060331732
21
-15.3059991768
0
LINE
8
cam
10
-4.24060331732
20
-15.3059991768
11
-4.08320694499
21
-15.266133738
0
LINE
8
cam
10
-4.08320694499
20
-15.266133738
11
-3.9356952653
21
-15.2201608947
0
LINE
8
cam
10
-3.9356952653
20
-15.2201608947
11
-3.79807644854
21
-15.1692745762
0
LINE
8
cam
10
-3.79807644854
20
-15.1692745762
11
-3.66989993104
21
-15.1145142853
0
LINE
8
cam
10
-3.66989993104
20
-15.1145142853
11
-3.55017449164
21
-15.0566436119
0
LINE
8
cam
10
-3.55017449164
20
-15.0566436119
11
-3.4372512946
21
-14.9959987539
0
LINE
8
cam
10
-3.4372512946
20
-14.9959987539
11
-3.32864384087
21
-14.9322987365
0
LINE
8
cam
10
-3.32864384087
20
-14.9322987365
11
-3.22073556942
21
-14.864411056
0
LINE
8
cam
10
-3.22073556942
20
-14.864411056
11
-3.10828941045
21
-14.7900810327
0
LINE
8
cam
10
-3.10828941045
20
-14.7900810327
11
-2.98361682447
21
-14.7056869284
0
LINE
8
cam
10
-2.98361682447
20
-14.7056869284
11
-2.83520376085
21
-14.6062489288
0
LINE
8
cam
10
-2.83520376085
20
-14.6062489288
11
-2.64566310101
21
-14.4863726095
0
LINE
8
cam
10
-2.64566310101
20
-14.4863726095
11
-2.38968238417
21
-14.3438078435
0
LINE
8
cam
10
-2.38968238417
20
-14.3438078435
11
-2.02861385777
21
-14.0886300459
0
LINE
8
cam
10
-2.02861385777
20
-14.0886300459
11
-1.55949438661
21
-13.9550211814
0
LINE
8
cam
10
-1.55949438661
20
-13.9550211814
11
-1.0
21
-13.9
0
LINE
8
cam
10
-1.0
20
-13.9
11
-0.440505613393
21
-13.9550211814
0
LINE
8
cam
10
-0.440505613393
20
-13.9550211814
11
0.0286138577681
21
-14.0886300459
0
LINE
8
cam
10
0.0286138577681
20
-14.0886300459
11
0.389682384169
21
-14.3438078435
0
LINE
8
cam
10
0.389682384169
20
-14.3438078435
11
0.645663101014
21
-14.4863726095
0
LINE
8
cam
10
0.645663101014
20
-14.4863726095
11
0.835203760848
21
-14.6062489288
0
LINE
8
cam
10
0.835203760848
20
-14.6062489288
11
0.983616824468
21
-14.7056869284
0
LINE
8
cam
10
0.983616824468
20
-14.7056869284
11
1.10828941045
21
-14.7900810327
0
LINE
8
cam
10
1.10828941045
20
-14.7900810327
11
1.22073556942
21
-14.864411056
0
LINE
8
cam
10
1.22073556942
20
-14.864411056
11
1.32864384087
21
-14.9322987365
0
LINE
8
cam
10
1.32864384087
20
-14.9322987365
11
1.4372512946
21
-14.9959987539
0
LINE
8
cam
10
1.4372512946
20
-14.9959987539
11
1.55017449164
21
-15.0566436119
0
LINE
8
cam
10
1.55017449164
20
-15.0566436119
11
1.66989993104
21
-15.1145142853
0
LINE
8
cam
10
1.66989993104
20
-15.1145142853
11
1.79807644854
21
-15.1692745762
0
LINE
8
cam
10
1.79807644854
20
-15.1692745762
11
1.9356952653
21
-15.2201608947
0
LINE
8
cam
10
1.9356952653
20
-15.2201608947
11
2.08320694499
21
-15.266133738
0
LINE
8
cam
10
2.08320694499
20
-15.266133738
11
2.24060331732
21
-15.3059991768
0
LINE
8
cam
10
2.24060331732
20
-15.3059991768
11
2.38579388668
21
-15.2408871208
0
LINE
8
cam
10
2.38579388668
20
-15.2408871208
11
2.56037744001
21
-15.2650463148
0
LINE
8
cam
10
2.56037744001
20
-15.2650463148
11
2.74260491552
21
-15.2795108247
0
LINE
8
cam
10
2.74260491552
20
-15.2795108247
11
2.93119418782
21
-15.2832894066
0
LINE
8
cam
10
2.93119418782
20
-15.2832894066
11
3.12466361173
21
-15.2755768158
0
LINE
8
cam
10
3.12466361173
20
-15.2755768158
11
3.32137900754
21
-15.2557865804
0
LINE
8
cam
10
3.32137900754
20
-15.2557865804
11
3.51960118034
21
-15.2235744993
0
LINE
8
cam
10
3.51960118034
20
-15.2235744993
11
3.71753367155
21
-15.1788532772
0
LINE
8
cam
10
3.71753367155
20
-15.1788532772
11
3.91337021056
21
-15.1217986091
0
LINE
8
cam
10
3.91337021056
20
-15.1217986091
11
4.10534119124
21
-15.0528469757
0
LINE
8
cam
10
4.10534119124
20
-15.0528469757
11
4.29175841516
21
-14.9726854051
0
LINE
8
cam
10
4.29175841516
20
-14.9726854051
11
4.47105730787
21
-14.8822334563
0
LINE
8
cam
10
4.47105730787
20
-14.8822334563
11
4.6418358146
21
-14.7826176845
0
LINE
8
cam
10
4.6418358146
20
-14.7826176845
11
4.8028892136
21
-14.6751388274
0
LINE
8
cam
10
4.8028892136
20
-14.6751388274
11
4.95324014513
21
-14.5612318974
0
LINE
8
cam
10
4.95324014513
20
-14.5612318974
11
5.09216324402
21
-14.4424192404
0
LINE
8
cam
10
5.09216324402
20
-14.4424192404
11
5.21920388769
21
-14.320256404
0
LINE
8
cam
10
5.21920388769
20
-14.320256404
11
5.37493743199
21
-14.2875922884
0
LINE
8
cam
10
5.37493743199
20
-14.2875922884
11
5.47884145506
21
-14.1628252045
0
LINE
8
cam
10
5.47884145506
20
-14.1628252045
11
5.57115875148
21
-14.0389272031
0
LINE
8
cam
10
5.57115875148
20
-14.0389272031
11
5.65258448544
21
-13.9168689957
0
LINE
8
cam
10
5.65258448544
20
-13.9168689957
11
5.72409417495
21
-13.7972267231
0
LINE
8
cam
10
5.72409417495
20
-13.7972267231
11
5.78693856171
21
-13.6800355172
0
LINE
8
cam
10
5.78693856171
20
-13.6800355172
11
5.84264919404
21
-13.5645982066
0
LINE
8
cam
10
5.84264919404
20
-13.5645982066
11
5.89307253903
21
-13.4492259504
0
LINE
8
cam
10
5.89307253903
20
-13.4492259504
11
5.94046878704
21
-13.3308767726
0
LINE
8
cam
10
5.94046878704
20
-13.3308767726
11
5.98774954911
21
-13.2046483266
0
LINE
8
cam
10
5.98774954911
20
-13.2046483266
11
6.03900618003
21
-13.0630913547
0
LINE
8
cam
10
6.03900618003
20
-13.0630913547
11
6.10062668098
21
-12.895409313
0
LINE
8
cam
10
6.10062668098
20
-12.895409313
11
6.18350676335
21
-12.687018129
0
LINE
8
cam
10
6.18350676335
20
-12.687018129
11
6.30680204654
21
-12.4212191202
0
LINE
8
cam
10
6.30680204654
20
-12.4212191202
11
6.44892287442
21
-12.0025451905
0
LINE
8
cam
10
6.44892287442
20
-12.0025451905
11
6.74991517884
21
-11.6187118418
0
LINE
8
cam
10
6.74991517884
20
-11.6187118418
11
7.17021500687
21
-11.2453362218
0
LINE
8
cam
10
7.17021500687
20
-11.2453362218
11
7.65519611289
21
-10.9609867434
0
LINE
8
cam
10
7.65519611289
20
-10.9609867434
11
8.11325505759
21
-10.7933370787
0
LINE
8
cam
10
8.11325505759
20
-10.7933370787
11
8.55535537769
21
-10.7875494986
0
LINE
8
cam
10
8.55535537769
20
-10.7875494986
11
8.84624559482
21
-10.7524251269
0
LINE
8
cam
10
8.84624559482
20
-10.7524251269
11
9.07004874232
21
-10.7379979019
0
LINE
8
cam
10
9.07004874232
20
-10.7379979019
11
9.24856562267
21
-10.7312099234
0
LINE
8
cam
10
9.24856562267
20
-10.7312099234
11
9.39903347333
21
-10.7262054806
0
LINE
8
cam
10
9.39903347333
20
-10.7262054806
11
9.53369441839
21
-10.7202455387
0
LINE
8
cam
10
9.53369441839
20
-10.7202455387
11
9.66089742125
21
-10.7117409354
0
LINE
8
cam
10
9.66089742125
20
-10.7117409354
11
9.78620462784
21
-10.6994374724
0
LINE
8
cam
10
9.78620462784
20
-10.6994374724
11
9.91320756643
21
-10.6821256033
0
LINE
8
cam
10
9.91320756643
20
-10.6821256033
11
10.0440830099
21
-10.6585711139
0
LINE
8
cam
10
10.0440830099
20
-10.6585711139
11
10.1799672823
21
-10.6275328533
0
LINE
8
cam
10
10.1799672823
20
-10.6275328533
11
10.3212134713
21
-10.5878104388
0
LINE
8
cam
10
10.3212134713
20
-10.5878104388
11
10.4675750864
21
-10.5382980604
0
LINE
8
cam
10
10.4675750864
20
-10.5382980604
11
10.6183437435
21
-10.4780346115
0
LINE
8
cam
10
10.6183437435
20
-10.4780346115
11
10.6975334752
21
-10.3400169762
0
LINE
8
cam
10
10.6975334752
20
-10.3400169762
11
10.8529749547
21
-10.2569445367
0
LINE
8
cam
10
10.8529749547
20
-10.2569445367
11
11.0089021049
21
-10.1615359484
0
LINE
8
cam
10
11.0089021049
20
-10.1615359484
11
11.1636950259
21
-10.0537428924
0
LINE
8
cam
10
11.1636950259
20
-10.0537428924
11
11.3156817306
21
-9.9337848012
0
LINE
8
cam
10
11.3156817306
20
-9.9337848012
11
11.4631954203
21
-9.80214775594
0
LINE
8
cam
10
11.4631954203
20
-9.80214775594
11
11.6046267406
21
-9.65957556501
0
LINE
8
cam
10
11.6046267406
20
-9.65957556501
11
11.7384710149
21
-9.50705353706
0
LINE
8
cam
10
11.7384710149
20
-9.50705353706
11
11.8633702106
21
-9.34578551145
0
LINE
8
cam
10
11.8633702106
20
-9.34578551145
11
11.9781492431
21
-9.17716475695
0
LINE
8
cam
10
11.9781492431
20
-9.17716475695
11
12.0818461563
21
-9.00273938903
0
LINE
8
cam
10
12.0818461563
20
-9.00273938903
11
12.1737356861
21
-8.82417298041
0
LINE
8
cam
10
12.1737356861
20
-8.82417298041
11
12.2533457187
21
-8.64320104042
0
LINE
8
cam
10
12.2533457187
20
-8.64320104042
11
12.3204661684
21
-8.46158400575
0
LINE
8
cam
10
12.3204661684
20
-8.46158400575
11
12.3751498135
21
-8.2810573034
0
LINE
8
cam
10
12.3751498135
20
-8.2810573034
11
12.4177046338
21
-8.10327889597
0
LINE
8
cam
10
12.4177046338
20
-8.10327889597
11
12.4486771599
21
-7.92977446844
0
LINE
8
cam
10
12.4486771599
20
-7.92977446844
11
12.5554687584
21
-7.81181076319
0
LINE
8
cam
10
12.5554687584
20
-7.81181076319
11
12.566192627
21
-7.64979881956
0
LINE
8
cam
10
12.566192627
20
-7.64979881956
11
12.5680534707
21
-7.4953004855
0
LINE
8
cam
10
12.5680534707
20
-7.4953004855
11
12.562184259
21
-7.34869247586
0
LINE
8
cam
10
12.562184259
20
-7.34869247586
11
12.5497128497
21
-7.20986750314
0
LINE
8
cam
10
12.5497128497
20
-7.20986750314
11
12.531671764
21
-7.07811882227
0
LINE
8
cam
10
12.531671764
20
-7.07811882227
11
12.5088902637
21
-6.95198218816
0
LINE
8
cam
10
12.5088902637
20
-6.95198218816
11
12.4818694959
21
-6.82900597365
0
LINE
8
cam
10
12.4818694959
20
-6.82900597365
11
12.4506499647
21
-6.70540066194
0
LINE
8
cam
10
12.4506499647
20
-6.70540066194
11
12.4147056858
21
-6.57548876932
0
LINE
8
cam
10
12.4147056858
20
-6.57548876932
11
12.3729680708
21
-6.43083888158
0
LINE
8
cam
10
12.3729680708
20
-6.43083888158
11
12.3242590721
21
-6.25896163855
0
LINE
8
cam
10
12.3242590721
20
-6.25896163855
11
12.2688212025
21
-6.04165393903
0
LINE
8
cam
10
12.2688212025
20
-6.04165393903
11
12.2123364445
21
-5.75414687473
0
LINE
8
cam
10
12.2123364445
20
-5.75414687473
11
12.0812242482
21
-5.33189602384
0
LINE
8
cam
10
12.0812242482
20
-5.33189602384
11
12.0991205559
21
-4.84444948413
0
LINE
8
cam
10
12.0991205559
20
-4.84444948413
11
12.2196855765
21
-4.29533622181
0
LINE
8
cam
10
12.2196855765
20
-4.29533622181
11
12.4449071033
21
-3.78022791971
0
LINE
8
cam
10
12.4449071033
20
-3.78022791971
11
12.7169425736
21
-3.37535619947
0
LINE
8
cam
10
12.7169425736
20
-3.37535619947
11
13.0712073915
21
-3.11081390064
0
LINE
8
cam
10
13.0712073915
20
-3.11081390064
11
13.285896933
21
-2.91141670734
0
LINE
8
cam
10
13.285896933
20
-2.91141670734
11
13.4584773726
21
-2.76819664758
0
LINE
8
cam
10
13.4584773726
20
-2.76819664758
11
13.598910689
21
-2.65777546809
0
LINE
8
cam
10
13.598910689
20
-2.65777546809
11
13.7177001996
21
-2.56528400524
0
LINE
8
cam
10
13.7177001996
20
-2.56528400524
11
13.8231400266
21
-2.48131059341
0
LINE
8
cam
10
13.8231400266
20
-2.48131059341
11
13.9210505373
21
-2.39966217567
0
LINE
8
cam
10
13.9210505373
20
-2.39966217567
11
14.0151944028
21
-2.316054737
0
LINE
8
cam
10
14.0151944028
20
-2.316054737
11
14.1077662771
21
-2.22739868634
0
LINE
8
cam
10
14.1077662771
20
-2.22739868634
11
14.1998017536
21
-2.1314160486
0
LINE
8
cam
10
14.1998017536
20
-2.1314160486
11
14.2914906073
21
-2.02643479691
0
LINE
8
cam
10
14.2914906073
20
-2.02643479691
11
14.3824129252
21
-1.91127626166
0
LINE
8
cam
10
14.3824129252
20
-1.91127626166
11
14.4717193133
21
-1.78519070733
0
LINE
8
cam
10
14.4717193133
20
-1.78519070733
11
14.5582717526
21
-1.64781695986
0
LINE
8
cam
10
14.5582717526
20
-1.64781695986
11
14.5412128608
21
-1.48961179092
0
LINE
8
cam
10
14.5412128608
20
-1.48961179092
11
14.6181389045
21
-1.33103856639
0
LINE
8
cam
10
14.6181389045
20
-1.33103856639
11
14.6882068578
21
-1.16219971775
0
LINE
8
cam
10
14.6882068578
20
-1.16219971775
11
14.7500777928
21
-0.984008307447
0
LINE
8
cam
10
14.7500777928
20
-0.984008307447
11
14.8025280229
21
-0.797624629491
0
LINE
8
cam
10
14.8025280229
20
-0.797624629491
11
14.844494791
21
-0.604421651412
0
LINE
8
cam
10
14.844494791
20
-0.604421651412
11
14.8751133014
21
-0.405947081791
0
LINE
8
cam
10
14.8751133014
20
-0.405947081791
11
14.8937453952
21
-0.203882478617
0
LINE
8
cam
10
14.8937453952
20
-0.203882478617
11
14.9
21
-1.11826035086e-14
0
CIRCLE
8
cam
10
-1.0
20
0
40
2.5
0
CIRCLE
8
roller
10
17.5
20
0.0
40
2.5
0
CIRCLE
8
roller
10
14.7219368245
20
9.46121430547
40
2.5
0
CIRCLE
8
roller
10
7.26976272753
20
15.9185599187
40
2.5
0
CIRCLE
8
roller
10
-2.49050966978
20
17.3218752329
40
2.5
0
CIRCLE
8
roller
10
-11.460062844
20
13.2256175512
40
2.5
0
CIRCLE
8
roller
10
-16.7911270383
20
4.93031974473
40
2.5
0
CIRCLE
8
roller
10
-16.7911270383
20
-4.93031974473
40
2.5
0
CIRCLE
8
roller
10
-11.460062844
20
-13.2256175512
40
2.5
0
CIRCLE
8
roller
10
-2.49050966978
20
-17.3218752329
40
2.5
0
CIRCLE
8
roller
10
7.26976272753
20
-15.9185599187
40
2.5
0
CIRCLE
8
roller
10
14.7219368245
20
-9.46121430547
40
2.5
0
CIRCLE
8
roller
10
0
20
0
40
2.5
0
ENDSEC
0
EOF
