0
SECTION
2
HEADER
9
$ACADVER
1
AC1006
9
$INSBASE
10
0.0
20
0.0
30
0.0
9
$EXTMIN
10
0.0
20
0.0
9
$EXTMAX
10
0.0
20
0.0
0
ENDSEC
0
SECTION
2
TABLES
0
TABLE
2
LTYPE
70
1
0
LTYPE
2
CONTINUOUS
70
64
3
Solid line
72
65
73
0
40
0.0
0
ENDTAB
0
TABLE
2
LAYER
70
5
0
LAYER
2
PYDXF
70
64
62
7
6
continuous
0
LAYER
2
TEXT
70
64
62
2
6
continuous
0
LAYER
2
CAM
70
64
62
1
6
continuous
0
LAYER
2
ROLLER
70
64
62
5
6
continuous
0
LAYER
2
PRESSURE
70
64
62
3
6
continuous
0
ENDTAB
0
TABLE
2
STYLE
70
1
0
STYLE
2
STANDARD
70
0
40
0
41
40
50
50
71
0
42
1
3
ARIAL.TTF
4

0
ENDTAB
0
TABLE
2
VIEW
70
0
0
ENDTAB
0
ENDSEC
0
SECTION
2
BLOCKS
0
ENDSEC
0
SECTION
2
ENTITIES
0
TEXT
8
text
10
35.0
20
0.7
40
0.1
1
pitch=3.33333333333
0
TEXT
8
text
10
35.0
20
0.5
40
0.1
1
pin diameter=5.0
0
TEXT
8
text
10
35.0
20
0.3
40
0.1
1
eccentricity=2.0
0
TEXT
8
text
10
35.0
20
0.1
40
0.1
1
# of teeth=9
0
TEXT
8
text
10
35.0
20
-0.1
40
0.1
1
pressure angle limit=50.0
0
TEXT
8
text
10
35.0
20
-0.3
40
0.1
1
pressure angle offset=0.2
0
TEXT
8
text
10
35.0
20
-0.5
40
0.1
1
min angle=13.0
0
TEXT
8
text
10
35.0
20
-0.7
40
0.1
1
max angle=112.0
0
CIRCLE
8
pressure
10
-2.0
20
0
40
25.8346392999
0
CIRCLE
8
pressure
10
-2.0
20
0
40
28.5383308133
0
LINE
8
cam
10
27.3
20
0.0
11
27.2860615632
21
0.47996644721
0
LINE
8
cam
10
27.2860615632
20
0.47996644721
11
27.2444607584
21
0.956592014943
0
LINE
8
cam
10
27.2444607584
20
0.956592014943
11
27.1758369032
21
1.42659479429
0
LINE
8
cam
10
27.1758369032
20
1.42659479429
11
27.0812415661
21
1.88680987105
0
LINE
8
cam
10
27.0812415661
20
1.88680987105
11
26.9621177415
21
2.33424547677
0
LINE
8
cam
10
26.9621177415
20
2.33424547677
11
26.820270916
21
2.76613638039
0
LINE
8
cam
10
26.820270916
20
2.76613638039
11
26.6578322095
21
3.17999369618
0
LINE
8
cam
10
26.6578322095
20
3.17999369618
11
26.4772137795
21
3.57365037136
0
LINE
8
cam
10
26.4772137795
20
3.57365037136
11
26.2810566238
21
3.94530173434
0
LINE
8
cam
10
26.2810566238
20
3.94530173434
11
26.0721708024
21
4.29354064305
0
LINE
8
cam
10
26.0721708024
20
4.29354064305
11
26.0507751395
21
4.65009544786
0
LINE
8
cam
10
26.0507751395
20
4.65009544786
11
25.8247917208
21
4.95135067491
0
LINE
8
cam
10
25.8247917208
20
4.95135067491
11
25.5948045276
21
5.22748058219
0
LINE
8
cam
10
25.5948045276
20
5.22748058219
11
25.3635389746
21
5.47890923282
0
LINE
8
cam
10
25.3635389746
20
5.47890923282
11
25.1334503597
21
5.70656219366
0
LINE
8
cam
10
25.1334503597
20
5.70656219366
11
24.9065903143
21
5.91188364549
0
LINE
8
cam
10
24.9065903143
20
5.91188364549
11
24.6844430786
21
6.09686467917
0
LINE
8
cam
10
24.6844430786
20
6.09686467917
11
24.4677175088
21
6.26409763742
0
LINE
8
cam
10
24.4677175088
20
6.26409763742
11
24.256074105
21
6.41688425866
0
LINE
8
cam
10
24.256074105
20
6.41688425866
11
24.0477595841
21
6.55945042084
0
LINE
8
cam
10
24.0477595841
20
6.55945042084
11
23.8391224634
21
6.69736893698
0
LINE
8
cam
10
23.8391224634
20
6.69736893698
11
23.6240213795
21
6.83838284409
0
LINE
8
cam
10
23.6240213795
20
6.83838284409
11
23.393311176
21
6.99396814556
0
LINE
8
cam
10
23.393311176
20
6.99396814556
11
23.135183321
21
7.18208421437
0
LINE
8
cam
10
23.135183321
20
7.18208421437
11
22.8387504308
21
7.43096178068
0
LINE
8
cam
10
22.8387504308
20
7.43096178068
11
22.315274705
21
7.71938819835
0
LINE
8
cam
10
22.315274705
20
7.71938819835
11
21.9837748004
21
8.19790864268
0
LINE
8
cam
10
21.9837748004
20
8.19790864268
11
21.7278173699
21
8.79076406754
0
LINE
8
cam
10
21.7278173699
20
8.79076406754
11
21.6040284207
21
9.40444386341
0
LINE
8
cam
10
21.6040284207
20
9.40444386341
11
21.5955593946
21
9.94218859915
0
LINE
8
cam
10
21.5955593946
20
9.94218859915
11
21.8315588654
21
10.4538333418
0
LINE
8
cam
10
21.8315588654
20
10.4538333418
11
21.9050100642
21
10.7995150815
0
LINE
8
cam
10
21.9050100642
20
10.7995150815
11
21.9823911102
21
11.0875042183
0
LINE
8
cam
10
21.9823911102
20
11.0875042183
11
22.0580739349
21
11.3433713604
0
LINE
8
cam
10
22.0580739349
20
11.3433713604
11
22.1309076784
21
11.5852736902
0
LINE
8
cam
10
22.1309076784
20
11.5852736902
11
22.2007017086
21
11.8255282319
0
LINE
8
cam
10
22.2007017086
20
11.8255282319
11
22.2669867602
21
12.0724083462
0
LINE
8
cam
10
22.2669867602
20
12.0724083462
11
22.3287106082
21
12.3314305602
0
LINE
8
cam
10
22.3287106082
20
12.3314305602
11
22.384266206
21
12.6061788584
0
LINE
8
cam
10
22.384266206
20
12.6061788584
11
22.4316191402
21
12.8988205093
0
LINE
8
cam
10
22.4316191402
20
12.8988205093
11
22.4684513978
21
13.2104335643
0
LINE
8
cam
10
22.4684513978
20
13.2104335643
11
22.4922948764
21
13.5412227752
0
LINE
8
cam
10
22.4922948764
20
13.5412227752
11
22.500648109
21
13.8906701463
0
LINE
8
cam
10
22.500648109
20
13.8906701463
11
22.4910761983
21
14.2576474942
0
LINE
8
cam
10
22.4910761983
20
14.2576474942
11
22.4612956368
21
14.6405072073
0
LINE
8
cam
10
22.4612956368
20
14.6405072073
11
22.2389642126
21
14.9322599067
0
LINE
8
cam
10
22.2389642126
20
14.9322599067
11
22.1642916892
21
15.3379711857
0
LINE
8
cam
10
22.1642916892
20
15.3379711857
11
22.0642188169
21
15.7521821363
0
LINE
8
cam
10
22.0642188169
20
15.7521821363
11
21.9376651153
21
16.1719133989
0
LINE
8
cam
10
21.9376651153
20
16.1719133989
11
21.7839466154
21
16.5940188826
0
LINE
8
cam
10
21.7839466154
20
16.5940188826
11
21.6027949003
21
17.0152508165
0
LINE
8
cam
10
21.6027949003
20
17.0152508165
11
21.3943669927
21
17.4323239316
0
LINE
8
cam
10
21.3943669927
20
17.4323239316
11
21.1592463722
21
17.841978311
0
LINE
8
cam
10
21.1592463722
20
17.841978311
11
20.898435429
21
18.2410402831
0
LINE
8
cam
10
20.898435429
20
18.2410402831
11
20.6133397081
21
18.6264806379
0
LINE
8
cam
10
20.6133397081
20
18.6264806379
11
20.3057443608
21
18.9954694005
0
LINE
8
cam
10
20.3057443608
20
18.9954694005
11
19.9777832842
21
19.3454263824
0
LINE
8
cam
10
19.9777832842
20
19.3454263824
11
19.631901498
21
19.6740667453
0
LINE
8
cam
10
19.631901498
20
19.6740667453
11
19.2708113647
21
19.9794408482
0
LINE
8
cam
10
19.2708113647
20
19.9794408482
11
18.8974433069
21
20.2599677002
0
LINE
8
cam
10
18.8974433069
20
20.2599677002
11
18.5148917041
21
20.5144614003
0
LINE
8
cam
10
18.5148917041
20
20.5144614003
11
18.1263566538
21
20.7421500139
0
LINE
8
cam
10
18.1263566538
20
20.7421500139
11
17.735082249
21
20.9426864057
0
LINE
8
cam
10
17.735082249
20
20.9426864057
11
17.3442919473
21
21.1161506113
0
LINE
8
cam
10
17.3442919473
20
21.1161506113
11
16.9571214601
21
21.2630433823
0
LINE
8
cam
10
16.9571214601
20
21.2630433823
11
16.7077108265
21
21.5352562344
0
LINE
8
cam
10
16.7077108265
20
21.5352562344
11
16.3346335896
21
21.633693764
0
LINE
8
cam
10
16.3346335896
20
21.633693764
11
15.9734379314
21
21.7092709744
0
LINE
8
cam
10
15.9734379314
20
21.7092709744
11
15.6261911406
21
21.7639202888
0
LINE
8
cam
10
15.6261911406
20
21.7639202888
11
15.2944858051
21
21.7998202606
0
LINE
8
cam
10
15.2944858051
20
21.7998202606
11
14.9793376901
21
21.8193290422
0
LINE
8
cam
10
14.9793376901
20
21.8193290422
11
14.6810608657
21
21.8249067265
0
LINE
8
cam
10
14.6810608657
20
21.8249067265
11
14.3991047419
21
21.8190275051
0
LINE
8
cam
10
14.3991047419
20
21.8190275051
11
14.1318275246
21
21.8040858044
0
LINE
8
cam
10
14.1318275246
20
21.8040858044
11
13.8761640674
21
21.7823092592
0
LINE
8
cam
10
13.8761640674
20
21.7823092592
11
13.6271205786
21
21.7557139515
0
LINE
8
cam
10
13.6271205786
20
21.7557139515
11
13.3769957645
21
21.7261943654
0
LINE
8
cam
10
13.3769957645
20
21.7261943654
11
13.1142139349
21
21.6959801482
0
LINE
8
cam
10
13.1142139349
20
21.6959801482
11
12.8217894018
21
21.6690092987
0
LINE
8
cam
10
12.8217894018
20
21.6690092987
11
12.4762062494
21
21.6543428163
0
LINE
8
cam
10
12.4762062494
20
21.6543428163
11
11.9414166418
21
21.505160592
0
LINE
8
cam
10
11.9414166418
20
21.505160592
11
11.4230871641
21
21.5955082377
0
LINE
8
cam
10
11.4230871641
20
21.5955082377
11
10.8421696764
21
21.8084851707
0
LINE
8
cam
10
10.8421696764
20
21.8084851707
11
10.2926993136
21
22.1520201257
0
LINE
8
cam
10
10.2926993136
20
22.1520201257
11
9.86340882087
21
22.5599762961
0
LINE
8
cam
10
9.86340882087
20
22.5599762961
11
9.65765789857
21
23.1303562588
0
LINE
8
cam
10
9.65765789857
20
23.1303562588
11
9.45593583759
21
23.4715630238
0
LINE
8
cam
10
9.45593583759
20
23.4715630238
11
9.31110617369
21
23.7630766555
0
LINE
8
cam
10
9.31110617369
20
23.7630766555
11
9.19583399331
21
24.0201389408
0
LINE
8
cam
10
9.19583399331
20
24.0201389408
11
9.09357908743
21
24.2578328019
0
LINE
8
cam
10
9.09357908743
20
24.2578328019
11
8.99413675143
21
24.4875918845
0
LINE
8
cam
10
8.99413675143
20
24.4875918845
11
8.89068759567
21
24.7171733867
0
LINE
8
cam
10
8.89068759567
20
24.7171733867
11
8.77823267424
21
24.9514165397
0
LINE
8
cam
10
8.77823267424
20
24.9514165397
11
8.65282515134
21
25.192985109
0
LINE
8
cam
10
8.65282515134
20
25.192985109
11
8.51120817219
21
25.4429372757
0
LINE
8
cam
10
8.51120817219
20
25.4429372757
11
8.35065230742
21
25.7011376583
0
LINE
8
cam
10
8.35065230742
20
25.7011376583
11
8.16888950813
21
25.9665550931
0
LINE
8
cam
10
8.16888950813
20
25.9665550931
11
7.96409254127
21
26.2374836189
0
LINE
8
cam
10
7.96409254127
20
26.2374836189
11
7.7348743062
21
26.5117130261
0
LINE
8
cam
10
7.7348743062
20
26.5117130261
11
7.48029392333
21
26.7866662619
0
LINE
8
cam
10
7.48029392333
20
26.7866662619
11
7.1354845311
21
26.8701593361
0
LINE
8
cam
10
7.1354845311
20
26.8701593361
11
6.83165276068
21
27.1370960858
0
LINE
8
cam
10
6.83165276068
20
27.1370960858
11
6.50248095655
21
27.3959006823
0
LINE
8
cam
10
6.50248095655
20
27.3959006823
11
6.14881896338
21
27.6435548776
0
LINE
8
cam
10
6.14881896338
20
27.6435548776
11
5.77193974245
21
27.8771302609
0
LINE
8
cam
10
5.77193974245
20
27.8771302609
11
5.37351589557
21
28.0938539619
0
LINE
8
cam
10
5.37351589557
20
28.0938539619
11
4.95558951449
21
28.2911678222
0
LINE
8
cam
10
4.95558951449
20
28.2911678222
11
4.52053578885
21
28.4667809597
0
LINE
8
cam
10
4.52053578885
20
28.4667809597
11
4.07102094477
21
28.6187154938
0
LINE
8
cam
10
4.07102094477
20
28.6187154938
11
3.60995519679
21
28.7453451255
0
LINE
8
cam
10
3.60995519679
20
28.7453451255
11
3.14044148365
21
28.845426246
0
LINE
8
cam
10
3.14044148365
20
28.845426246
11
2.6657208279
21
28.9181212651
0
LINE
8
cam
10
2.6657208279
20
28.9181212651
11
2.18911520989
21
28.9630138941
0
LINE
8
cam
10
2.18911520989
20
28.9630138941
11
1.71396887979
21
28.9801161773
0
LINE
8
cam
10
1.71396887979
20
28.9801161773
11
1.2435890452
21
28.9698671349
0
LINE
8
cam
10
1.2435890452
20
28.9698671349
11
0.781186866298
21
28.9331229471
0
LINE
8
cam
10
0.781186866298
20
28.9331229471
11
0.329819662568
21
28.8711386694
0
LINE
8
cam
10
0.329819662568
20
28.8711386694
11
-0.107664817364
21
28.7855415174
0
LINE
8
cam
10
-0.107664817364
20
28.7855415174
11
-0.528681293743
21
28.678295774
0
LINE
8
cam
10
-0.528681293743
20
28.678295774
11
-0.930956371963
21
28.5516593552
0
LINE
8
cam
10
-0.930956371963
20
28.5516593552
11
-1.31257399748
21
28.4081319839
0
LINE
8
cam
10
-1.31257399748
20
28.4081319839
11
-1.66969489481
21
28.4503812811
0
LINE
8
cam
10
-1.66969489481
20
28.4503812811
11
-2.00826124285
21
28.2812405956
0
LINE
8
cam
10
-2.00826124285
20
28.2812405956
11
-2.32281731853
21
28.1034814153
0
LINE
8
cam
10
-2.32281731853
20
28.1034814153
11
-2.61324950944
21
27.9198742642
0
LINE
8
cam
10
-2.61324950944
20
27.9198742642
11
-2.87998108333
21
27.7330236678
0
LINE
8
cam
10
-2.87998108333
20
27.7330236678
11
-3.12401111116
21
27.5452421613
0
LINE
8
cam
10
-3.12401111116
20
27.5452421613
11
-3.34696829175
21
27.3583975345
0
LINE
8
cam
10
-3.34696829175
20
27.3583975345
11
-3.55119568411
21
27.1737224681
0
LINE
8
cam
10
-3.55119568411
20
27.1737224681
11
-3.73989528179
21
26.9915714455
0
LINE
8
cam
10
-3.73989528179
20
26.9915714455
11
-3.91738546889
21
26.8111070155
0
LINE
8
cam
10
-3.91738546889
20
26.8111070155
11
-4.08956907061
21
26.629904603
0
LINE
8
cam
10
-4.08956907061
20
26.629904603
11
-4.26478822798
21
26.4435105922
0
LINE
8
cam
10
-4.26478822798
20
26.4435105922
11
-4.45535539804
21
26.2451598568
0
LINE
8
cam
10
-4.45535539804
20
26.2451598568
11
-4.68008552656
21
26.026394443
0
LINE
8
cam
10
-4.68008552656
20
26.026394443
11
-4.96746374858
21
25.7806912267
0
LINE
8
cam
10
-4.96746374858
20
25.7806912267
11
-5.32930404682
21
25.315937815
0
LINE
8
cam
10
-5.32930404682
20
25.315937815
11
-5.8436485257
21
25.0666746219
0
LINE
8
cam
10
-5.8436485257
20
25.0666746219
11
-6.46504521746
21
24.9038689513
0
LINE
8
cam
10
-6.46504521746
20
24.9038689513
11
-7.09680824124
21
24.8741449401
0
LINE
8
cam
10
-7.09680824124
20
24.8741449401
11
-7.64071709947
21
24.9510657756
0
LINE
8
cam
10
-7.64071709947
20
24.9510657756
11
-8.11533227852
21
25.2700559345
0
LINE
8
cam
10
-8.11533227852
20
25.2700559345
11
-8.4513799903
21
25.4026657989
0
LINE
8
cam
10
-8.4513799903
20
25.4026657989
11
-8.72649171205
21
25.5297291204
0
LINE
8
cam
10
-8.72649171205
20
25.5297291204
11
-8.96778765262
21
25.6494159475
0
LINE
8
cam
10
-8.96778765262
20
25.6494159475
11
-9.19415130771
21
25.7636199828
0
LINE
8
cam
10
-9.19415130771
20
25.7636199828
11
-9.41829325087
21
25.8743696498
0
LINE
8
cam
10
-9.41829325087
20
25.8743696498
11
-9.64880308179
21
25.9827598049
0
LINE
8
cam
10
-9.64880308179
20
25.9827598049
11
-9.89153926079
21
26.0888226455
0
LINE
8
cam
10
-9.89153926079
20
26.0888226455
11
-10.1504826551
21
26.191685269
0
LINE
8
cam
10
-10.1504826551
20
26.191685269
11
-10.4282503658
21
26.2897843047
0
LINE
8
cam
10
-10.4282503658
20
26.2897843047
11
-10.7264094614
21
26.3810673123
0
LINE
8
cam
10
-10.7264094614
20
26.3810673123
11
-11.0456756695
21
26.4631650741
0
LINE
8
cam
10
-11.0456756695
20
26.4631650741
11
-11.3860465983
21
26.5335355663
0
LINE
8
cam
10
-11.3860465983
20
26.5335355663
11
-11.7468981382
21
26.5895842539
0
LINE
8
cam
10
-11.7468981382
20
26.5895842539
11
-12.1270606658
21
26.628765268
0
LINE
8
cam
10
-12.1270606658
20
26.628765268
11
-12.4514171648
21
26.4626494676
0
LINE
8
cam
10
-12.4514171648
20
26.4626494676
11
-12.862353998
21
26.4620657536
0
LINE
8
cam
10
-12.862353998
20
26.4620657536
11
-13.2863602698
21
26.4381399411
0
LINE
8
cam
10
-13.2863602698
20
26.4381399411
11
-13.7207191098
21
26.3892526945
0
LINE
8
cam
10
-13.7207191098
20
26.3892526945
11
-14.1624739046
21
26.3141422989
0
LINE
8
cam
10
-14.1624739046
20
26.3141422989
11
-14.6084889515
21
26.2119357392
0
LINE
8
cam
10
-14.6084889515
20
26.2119357392
11
-15.0555108882
21
26.0821705917
0
LINE
8
cam
10
-15.0555108882
20
26.0821705917
11
-15.5002304165
21
25.9248079256
0
LINE
8
cam
10
-15.5002304165
20
25.9248079256
11
-15.9393436668
21
25.7402364106
0
LINE
8
cam
10
-15.9393436668
20
25.7402364106
11
-16.3696124399
21
25.5292678468
0
LINE
8
cam
10
-16.3696124399
20
25.5292678468
11
-16.7879225066
21
25.2931243885
0
LINE
8
cam
10
-16.7879225066
20
25.2931243885
11
-17.191339112
21
25.0334177943
0
LINE
8
cam
10
-17.191339112
20
25.0334177943
11
-17.5771588375
21
24.7521211006
0
LINE
8
cam
10
-17.5771588375
20
24.7521211006
11
-17.9429569911
21
24.4515331857
0
LINE
8
cam
10
-17.9429569911
20
24.4515331857
11
-18.2866297399
21
24.1342367431
0
LINE
8
cam
10
-18.2866297399
20
24.1342367431
11
-18.6064302513
21
23.8030502254
0
LINE
8
cam
10
-18.6064302513
20
23.8030502254
11
-18.9009981749
21
23.4609743384
0
LINE
8
cam
10
-18.9009981749
20
23.4609743384
11
-19.1693818676
21
23.1111336476
0
LINE
8
cam
10
-19.1693818676
20
23.1111336476
11
-19.4110528449
21
22.7567138018
0
LINE
8
cam
10
-19.4110528449
20
22.7567138018
11
-19.6259120149
21
22.4008947506
0
LINE
8
cam
10
-19.6259120149
20
22.4008947506
11
-19.814287333
21
22.0467801198
0
LINE
8
cam
10
-19.814287333
20
22.0467801198
11
-20.1045225474
21
21.8513298618
0
LINE
8
cam
10
-20.1045225474
20
21.8513298618
11
-20.2443333324
21
21.507762477
0
LINE
8
cam
10
-20.2443333324
20
21.507762477
11
-20.360923567
21
21.1740535569
0
LINE
8
cam
10
-20.360923567
20
21.1740535569
11
-20.4561282789
21
20.8522021863
0
LINE
8
cam
10
-20.4561282789
20
20.8522021863
11
-20.5320652255
21
20.5436840312
0
LINE
8
cam
10
-20.5320652255
20
20.5436840312
11
-20.5910807544
21
20.2493181876
0
LINE
8
cam
10
-20.5910807544
20
20.2493181876
11
-20.6356916814
21
19.9690967957
0
LINE
8
cam
10
-20.6356916814
20
19.9690967957
11
-20.668530933
21
19.7019543195
0
LINE
8
cam
10
-20.668530933
20
19.7019543195
11
-20.6923151208
21
19.4454392976
0
LINE
8
cam
10
-20.6923151208
20
19.4454392976
11
-20.709876477
21
19.1952308303
0
LINE
8
cam
10
-20.709876477
20
19.1952308303
11
-20.7243579548
21
18.944418944
0
LINE
8
cam
10
-20.7243579548
20
18.944418944
11
-20.7397984627
21
18.6824708713
0
LINE
8
cam
10
-20.7397984627
20
18.6824708713
11
-20.7626045227
21
18.3939579834
0
LINE
8
cam
10
-20.7626045227
20
18.3939579834
11
-20.8048348329
21
18.0578527727
0
LINE
8
cam
10
-20.8048348329
20
18.0578527727
11
-20.8901705874
21
17.650637136
0
LINE
8
cam
10
-20.8901705874
20
17.650637136
11
-20.9107168368
21
17.0274537493
0
LINE
8
cam
10
-20.9107168368
20
17.0274537493
11
-21.2056683702
21
16.4928185243
0
LINE
8
cam
10
-21.2056683702
20
16.4928185243
11
-21.6287473378
21
16.000455233
0
LINE
8
cam
10
-21.6287473378
20
16.000455233
11
-22.1051130973
21
15.6328155339
0
LINE
8
cam
10
-22.1051130973
20
15.6328155339
11
-22.7091137988
21
15.5170782986
0
LINE
8
cam
10
-22.7091137988
20
15.5170782986
11
-23.087686879
21
15.3702550047
0
LINE
8
cam
10
-23.087686879
20
15.3702550047
11
-23.4055102128
21
15.274430737
0
LINE
8
cam
10
-23.4055102128
20
15.274430737
11
-23.6820683587
21
15.2037969564
0
LINE
8
cam
10
-23.6820683587
20
15.2037969564
11
-23.9355482327
21
15.1437884148
0
LINE
8
cam
10
-23.9355482327
20
15.1437884148
11
-24.1795034023
21
15.0858977053
0
LINE
8
cam
10
-24.1795034023
20
15.0858977053
11
-24.4231747567
21
15.0245462533
0
LINE
8
cam
10
-24.4231747567
20
15.0245462533
11
-24.6725032628
21
14.9555492043
0
LINE
8
cam
10
-24.6725032628
20
14.9555492043
11
-24.9310209944
21
14.8754263024
0
LINE
8
cam
10
-24.9310209944
20
14.8754263024
11
-25.2005002625
21
14.781115797
0
LINE
8
cam
10
-25.2005002625
20
14.781115797
11
-25.4814055279
21
14.6698730691
0
LINE
8
cam
10
-25.4814055279
20
14.6698730691
11
-25.7732099167
21
14.5392517118
0
LINE
8
cam
10
-25.7732099167
20
14.5392517118
11
-26.0746239523
21
14.3871194561
0
LINE
8
cam
10
-26.0746239523
20
14.3871194561
11
-26.3837684154
21
14.2116865325
0
LINE
8
cam
10
-26.3837684154
20
14.2116865325
11
-26.6983116617
21
14.0115357269
0
LINE
8
cam
10
-26.6983116617
20
14.0115357269
11
-26.8404210098
21
13.6891196118
0
LINE
8
cam
10
-26.8404210098
20
13.6891196118
11
-27.1562723826
21
13.4391868547
0
LINE
8
cam
10
-27.1562723826
20
13.4391868547
11
-27.4688598193
21
13.1628790689
0
LINE
8
cam
10
-27.4688598193
20
13.1628790689
11
-27.7750661626
21
12.8604606649
0
LINE
8
cam
10
-27.7750661626
20
12.8604606649
11
-28.0717812838
21
12.5326291538
0
LINE
8
cam
10
-28.0717812838
20
12.5326291538
11
-28.3559714523
21
12.180504313
0
LINE
8
cam
10
-28.3559714523
20
12.180504313
11
-28.6247434332
21
11.8056096072
0
LINE
8
cam
10
-28.6247434332
20
11.8056096072
11
-28.8754031883
21
11.4098462631
0
LINE
8
cam
10
-28.8754031883
20
11.4098462631
11
-29.1055088693
21
10.9954605109
0
LINE
8
cam
10
-29.1055088693
20
10.9954605109
11
-29.3129176898
21
10.5650046001
0
LINE
8
cam
10
-29.3129176898
20
10.5650046001
11
-29.4958262216
21
10.121292285
0
LINE
8
cam
10
-29.4958262216
20
10.121292285
11
-29.6528036648
21
9.66734954461
0
LINE
8
cam
10
-29.6528036648
20
9.66734954461
11
-29.7828176692
21
9.20636136298
0
LINE
8
cam
10
-29.7828176692
20
9.20636136298
11
-29.8852523394
21
8.74161544
0
LINE
8
cam
10
-29.8852523394
20
8.74161544
11
-29.9599181162
21
8.27644372973
0
LINE
8
cam
10
-29.9599181162
20
8.27644372973
11
-30.0070532962
21
7.8141627126
0
LINE
8
cam
10
-30.0070532962
20
7.8141627126
11
-30.0273170177
21
7.35801329313
0
LINE
8
cam
10
-30.0273170177
20
7.35801329313
11
-30.0217735948
21
6.9111011746
0
LINE
8
cam
10
-30.0217735948
20
6.9111011746
11
-29.991868119
21
6.47633848814
0
LINE
8
cam
10
-29.991868119
20
6.47633848814
11
-29.93939325
21
6.05638733793
0
LINE
8
cam
10
-29.93939325
20
6.05638733793
11
-29.8664470748
21
5.65360575033
0
LINE
8
cam
10
-29.8664470748
20
5.65360575033
11
-29.9718761879
21
5.30727836359
0
LINE
8
cam
10
-29.9718761879
20
5.30727836359
11
-29.8656696945
21
4.94208270865
0
LINE
8
cam
10
-29.8656696945
20
4.94208270865
11
-29.7465054542
21
4.59893792991
0
LINE
8
cam
10
-29.7465054542
20
4.59893792991
11
-29.6170935662
21
4.27849571143
0
LINE
8
cam
10
-29.6170935662
20
4.27849571143
11
-29.4800857131
21
3.98085617421
0
LINE
8
cam
10
-29.4800857131
20
3.98085617421
11
-29.3379600983
21
3.70550908975
0
LINE
8
cam
10
-29.3379600983
20
3.70550908975
11
-29.1928833453
21
3.4512571894
0
LINE
8
cam
10
-29.1928833453
20
3.4512571894
11
-29.0465417212
21
3.21610499052
0
LINE
8
cam
10
-29.0465417212
20
3.21610499052
11
-28.899931963
21
2.99708393581
0
LINE
8
cam
10
-28.899931963
20
2.99708393581
11
-28.7531027326
21
2.78996193852
0
LINE
8
cam
10
-28.7531027326
20
2.78996193852
11
-28.60485008
21
2.58874518985
0
LINE
8
cam
10
-28.60485008
20
2.58874518985
11
-28.4524211557
21
2.38481375739
0
LINE
8
cam
10
-28.4524211557
20
2.38481375739
11
-28.291446968
21
2.16544924207
0
LINE
8
cam
10
-28.291446968
20
2.16544924207
11
-28.1168038463
21
1.9115364657
0
LINE
8
cam
10
-28.1168038463
20
1.9115364657
11
-27.9262406874
21
1.59496925135
0
LINE
8
cam
10
-27.9262406874
20
1.59496925135
11
-27.5302973682
21
1.17062153388
0
LINE
8
cam
10
-27.5302973682
20
1.17062153388
11
-27.366688456
21
0.634429470877
0
LINE
8
cam
10
-27.366688456
20
0.634429470877
11
-27.3
21
3.09825407517e-15
0
LINE
8
cam
10
-27.3
20
3.09825407517e-15
11
-27.366688456
21
-0.634429470877
0
LINE
8
cam
10
-27.366688456
20
-0.634429470877
11
-27.5302973682
21
-1.17062153388
0
LINE
8
cam
10
-27.5302973682
20
-1.17062153388
11
-27.9262406874
21
-1.59496925135
0
LINE
8
cam
10
-27.9262406874
20
-1.59496925135
11
-28.1168038463
21
-1.9115364657
0
LINE
8
cam
10
-28.1168038463
20
-1.9115364657
11
-28.291446968
21
-2.16544924207
0
LINE
8
cam
10
-28.291446968
20
-2.16544924207
11
-28.4524211557
21
-2.38481375739
0
LINE
8
cam
10
-28.4524211557
20
-2.38481375739
11
-28.60485008
21
-2.58874518985
0
LINE
8
cam
10
-28.60485008
20
-2.58874518985
11
-28.7531027326
21
-2.78996193852
0
LINE
8
cam
10
-28.7531027326
20
-2.78996193852
11
-28.899931963
21
-2.99708393581
0
LINE
8
cam
10
-28.899931963
20
-2.99708393581
11
-29.0465417212
21
-3.21610499052
0
LINE
8
cam
10
-29.0465417212
20
-3.21610499052
11
-29.1928833453
21
-3.4512571894
0
LINE
8
cam
10
-29.1928833453
20
-3.4512571894
11
-29.3379600983
21
-3.70550908975
0
LINE
8
cam
10
-29.3379600983
20
-3.70550908975
11
-29.4800857131
21
-3.98085617421
0
LINE
8
cam
10
-29.4800857131
20
-3.98085617421
11
-29.6170935662
21
-4.27849571143
0
LINE
8
cam
10
-29.6170935662
20
-4.27849571143
11
-29.7465054542
21
-4.59893792991
0
LINE
8
cam
10
-29.7465054542
20
-4.59893792991
11
-29.8656696945
21
-4.94208270865
0
LINE
8
cam
10
-29.8656696945
20
-4.94208270865
11
-29.9718761879
21
-5.30727836359
0
LINE
8
cam
10
-29.9718761879
20
-5.30727836359
11
-29.8664470748
21
-5.65360575033
0
LINE
8
cam
10
-29.8664470748
20
-5.65360575033
11
-29.93939325
21
-6.05638733793
0
LINE
8
cam
10
-29.93939325
20
-6.05638733793
11
-29.991868119
21
-6.47633848814
0
LINE
8
cam
10
-29.991868119
20
-6.47633848814
11
-30.0217735948
21
-6.9111011746
0
LINE
8
cam
10
-30.0217735948
20
-6.9111011746
11
-30.0273170177
21
-7.35801329313
0
LINE
8
cam
10
-30.0273170177
20
-7.35801329313
11
-30.0070532962
21
-7.8141627126
0
LINE
8
cam
10
-30.0070532962
20
-7.8141627126
11
-29.9599181162
21
-8.27644372973
0
LINE
8
cam
10
-29.9599181162
20
-8.27644372973
11
-29.8852523394
21
-8.74161544
0
LINE
8
cam
10
-29.8852523394
20
-8.74161544
11
-29.7828176692
21
-9.20636136298
0
LINE
8
cam
10
-29.7828176692
20
-9.20636136298
11
-29.6528036648
21
-9.66734954461
0
LINE
8
cam
10
-29.6528036648
20
-9.66734954461
11
-29.4958262216
21
-10.121292285
0
LINE
8
cam
10
-29.4958262216
20
-10.121292285
11
-29.3129176898
21
-10.5650046001
0
LINE
8
cam
10
-29.3129176898
20
-10.5650046001
11
-29.1055088693
21
-10.9954605109
0
LINE
8
cam
10
-29.1055088693
20
-10.9954605109
11
-28.8754031883
21
-11.4098462631
0
LINE
8
cam
10
-28.8754031883
20
-11.4098462631
11
-28.6247434332
21
-11.8056096072
0
LINE
8
cam
10
-28.6247434332
20
-11.8056096072
11
-28.3559714523
21
-12.180504313
0
LINE
8
cam
10
-28.3559714523
20
-12.180504313
11
-28.0717812838
21
-12.5326291538
0
LINE
8
cam
10
-28.0717812838
20
-12.5326291538
11
-27.7750661626
21
-12.8604606649
0
LINE
8
cam
10
-27.7750661626
20
-12.8604606649
11
-27.4688598193
21
-13.1628790689
0
LINE
8
cam
10
-27.4688598193
20
-13.1628790689
11
-27.1562723826
21
-13.4391868547
0
LINE
8
cam
10
-27.1562723826
20
-13.4391868547
11
-26.8404210098
21
-13.6891196118
0
LINE
8
cam
10
-26.8404210098
20
-13.6891196118
11
-26.6983116617
21
-14.0115357269
0
LINE
8
cam
10
-26.6983116617
20
-14.0115357269
11
-26.3837684154
21
-14.2116865325
0
LINE
8
cam
10
-26.3837684154
20
-14.2116865325
11
-26.0746239523
21
-14.3871194561
0
LINE
8
cam
10
-26.0746239523
20
-14.3871194561
11
-25.7732099167
21
-14.5392517118
0
LINE
8
cam
10
-25.7732099167
20
-14.5392517118
11
-25.4814055279
21
-14.6698730691
0
LINE
8
cam
10
-25.4814055279
20
-14.6698730691
11
-25.2005002625
21
-14.781115797
0
LINE
8
cam
10
-25.2005002625
20
-14.781115797
11
-24.9310209944
21
-14.8754263024
0
LINE
8
cam
10
-24.9310209944
20
-14.8754263024
11
-24.6725032628
21
-14.9555492043
0
LINE
8
cam
10
-24.6725032628
20
-14.9555492043
11
-24.4231747567
21
-15.0245462533
0
LINE
8
cam
10
-24.4231747567
20
-15.0245462533
11
-24.1795034023
21
-15.0858977053
0
LINE
8
cam
10
-24.1795034023
20
-15.0858977053
11
-23.9355482327
21
-15.1437884148
0
LINE
8
cam
10
-23.9355482327
20
-15.1437884148
11
-23.6820683587
21
-15.2037969564
0
LINE
8
cam
10
-23.6820683587
20
-15.2037969564
11
-23.4055102128
21
-15.274430737
0
LINE
8
cam
10
-23.4055102128
20
-15.274430737
11
-23.087686879
21
-15.3702550047
0
LINE
8
cam
10
-23.087686879
20
-15.3702550047
11
-22.7091137988
21
-15.5170782986
0
LINE
8
cam
10
-22.7091137988
20
-15.5170782986
11
-22.1051130973
21
-15.6328155339
0
LINE
8
cam
10
-22.1051130973
20
-15.6328155339
11
-21.6287473378
21
-16.000455233
0
LINE
8
cam
10
-21.6287473378
20
-16.000455233
11
-21.2056683702
21
-16.4928185243
0
LINE
8
cam
10
-21.2056683702
20
-16.4928185243
11
-20.9107168368
21
-17.0274537493
0
LINE
8
cam
10
-20.9107168368
20
-17.0274537493
11
-20.8901705874
21
-17.650637136
0
LINE
8
cam
10
-20.8901705874
20
-17.650637136
11
-20.8048348329
21
-18.0578527727
0
LINE
8
cam
10
-20.8048348329
20
-18.0578527727
11
-20.7626045227
21
-18.3939579834
0
LINE
8
cam
10
-20.7626045227
20
-18.3939579834
11
-20.7397984627
21
-18.6824708713
0
LINE
8
cam
10
-20.7397984627
20
-18.6824708713
11
-20.7243579548
21
-18.944418944
0
LINE
8
cam
10
-20.7243579548
20
-18.944418944
11
-20.709876477
21
-19.1952308303
0
LINE
8
cam
10
-20.709876477
20
-19.1952308303
11
-20.6923151208
21
-19.4454392976
0
LINE
8
cam
10
-20.6923151208
20
-19.4454392976
11
-20.668530933
21
-19.7019543195
0
LINE
8
cam
10
-20.668530933
20
-19.7019543195
11
-20.6356916814
21
-19.9690967957
0
LINE
8
cam
10
-20.6356916814
20
-19.9690967957
11
-20.5910807544
21
-20.2493181876
0
LINE
8
cam
10
-20.5910807544
20
-20.2493181876
11
-20.5320652255
21
-20.5436840312
0
LINE
8
cam
10
-20.5320652255
20
-20.5436840312
11
-20.4561282789
21
-20.8522021863
0
LINE
8
cam
10
-20.4561282789
20
-20.8522021863
11
-20.360923567
21
-21.1740535569
0
LINE
8
cam
10
-20.360923567
20
-21.1740535569
11
-20.2443333324
21
-21.507762477
0
LINE
8
cam
10
-20.2443333324
20
-21.507762477
11
-20.1045225474
21
-21.8513298618
0
LINE
8
cam
10
-20.1045225474
20
-21.8513298618
11
-19.814287333
21
-22.0467801198
0
LINE
8
cam
10
-19.814287333
20
-22.0467801198
11
-19.6259120149
21
-22.4008947506
0
LINE
8
cam
10
-19.6259120149
20
-22.4008947506
11
-19.4110528449
21
-22.7567138018
0
LINE
8
cam
10
-19.4110528449
20
-22.7567138018
11
-19.1693818676
21
-23.1111336476
0
LINE
8
cam
10
-19.1693818676
20
-23.1111336476
11
-18.9009981749
21
-23.4609743384
0
LINE
8
cam
10
-18.9009981749
20
-23.4609743384
11
-18.6064302513
21
-23.8030502254
0
LINE
8
cam
10
-18.6064302513
20
-23.8030502254
11
-18.2866297399
21
-24.1342367431
0
LINE
8
cam
10
-18.2866297399
20
-24.1342367431
11
-17.9429569911
21
-24.4515331857
0
LINE
8
cam
10
-17.9429569911
20
-24.4515331857
11
-17.5771588375
21
-24.7521211006
0
LINE
8
cam
10
-17.5771588375
20
-24.7521211006
11
-17.191339112
21
-25.0334177943
0
LINE
8
cam
10
-17.191339112
20
-25.0334177943
11
-16.7879225066
21
-25.2931243885
0
LINE
8
cam
10
-16.7879225066
20
-25.2931243885
11
-16.3696124399
21
-25.5292678468
0
LINE
8
cam
10
-16.3696124399
20
-25.5292678468
11
-15.9393436668
21
-25.7402364106
0
LINE
8
cam
10
-15.9393436668
20
-25.7402364106
11
-15.5002304165
21
-25.9248079256
0
LINE
8
cam
10
-15.5002304165
20
-25.9248079256
11
-15.0555108882
21
-26.0821705917
0
LINE
8
cam
10
-15.0555108882
20
-26.0821705917
11
-14.6084889515
21
-26.2119357392
0
LINE
8
cam
10
-14.6084889515
20
-26.2119357392
11
-14.1624739046
21
-26.3141422989
0
LINE
8
cam
10
-14.1624739046
20
-26.3141422989
11
-13.7207191098
21
-26.3892526945
0
LINE
8
cam
10
-13.7207191098
20
-26.3892526945
11
-13.2863602698
21
-26.4381399411
0
LINE
8
cam
10
-13.2863602698
20
-26.4381399411
11
-12.862353998
21
-26.4620657536
0
LINE
8
cam
10
-12.862353998
20
-26.4620657536
11
-12.4514171648
21
-26.4626494676
0
LINE
8
cam
10
-12.4514171648
20
-26.4626494676
11
-12.1270606658
21
-26.628765268
0
LINE
8
cam
10
-12.1270606658
20
-26.628765268
11
-11.7468981382
21
-26.5895842539
0
LINE
8
cam
10
-11.7468981382
20
-26.5895842539
11
-11.3860465983
21
-26.5335355663
0
LINE
8
cam
10
-11.3860465983
20
-26.5335355663
11
-11.0456756695
21
-26.4631650741
0
LINE
8
cam
10
-11.0456756695
20
-26.4631650741
11
-10.7264094614
21
-26.3810673123
0
LINE
8
cam
10
-10.7264094614
20
-26.3810673123
11
-10.4282503658
21
-26.2897843047
0
LINE
8
cam
10
-10.4282503658
20
-26.2897843047
11
-10.1504826551
21
-26.191685269
0
LINE
8
cam
10
-10.1504826551
20
-26.191685269
11
-9.89153926079
21
-26.0888226455
0
LINE
8
cam
10
-9.89153926079
20
-26.0888226455
11
-9.64880308179
21
-25.9827598049
0
LINE
8
cam
10
-9.64880308179
20
-25.9827598049
11
-9.41829325087
21
-25.8743696498
0
LINE
8
cam
10
-9.41829325087
20
-25.8743696498
11
-9.19415130771
21
-25.7636199828
0
LINE
8
cam
10
-9.19415130771
20
-25.7636199828
11
-8.96778765262
21
-25.6494159475
0
LINE
8
cam
10
-8.96778765262
20
-25.6494159475
11
-8.72649171205
21
-25.5297291204
0
LINE
8
cam
10
-8.72649171205
20
-25.5297291204
11
-8.4513799903
21
-25.4026657989
0
LINE
8
cam
10
-8.4513799903
20
-25.4026657989
11
-8.11533227852
21
-25.2700559345
0
LINE
8
cam
10
-8.11533227852
20
-25.2700559345
11
-7.64071709947
21
-24.9510657756
0
LINE
8
cam
10
-7.64071709947
20
-24.9510657756
11
-7.09680824124
21
-24.8741449401
0
LINE
8
cam
10
-7.09680824124
20
-24.8741449401
11
-6.46504521746
21
-24.9038689513
0
LINE
8
cam
10
-6.46504521746
20
-24.9038689513
11
-5.8436485257
21
-25.0666746219
0
LINE
8
cam
10
-5.8436485257
20
-25.0666746219
11
-5.32930404682
21
-25.315937815
0
LINE
8
cam
10
-5.32930404682
20
-25.315937815
11
-4.96746374858
21
-25.7806912267
0
LINE
8
cam
10
-4.96746374858
20
-25.7806912267
11
-4.68008552656
21
-26.026394443
0
LINE
8
cam
10
-4.68008552656
20
-26.026394443
11
-4.45535539804
21
-26.2451598568
0
LINE
8
cam
10
-4.45535539804
20
-26.2451598568
11
-4.26478822798
21
-26.4435105922
0
LINE
8
cam
10
-4.26478822798
20
-26.4435105922
11
-4.08956907061
21
-26.629904603
0
LINE
8
cam
10
-4.08956907061
20
-26.629904603
11
-3.91738546889
21
-26.8111070155
0
LINE
8
cam
10
-3.91738546889
20
-26.8111070155
11
-3.73989528179
21
-26.9915714455
0
LINE
8
cam
10
-3.73989528179
20
-26.9915714455
11
-3.55119568411
21
-27.1737224681
0
LINE
8
cam
10
-3.55119568411
20
-27.1737224681
11
-3.34696829175
21
-27.3583975345
0
LINE
8
cam
10
-3.34696829175
20
-27.3583975345
11
-3.12401111116
21
-27.5452421613
0
LINE
8
cam
10
-3.12401111116
20
-27.5452421613
11
-2.87998108333
21
-27.7330236678
0
LINE
8
cam
10
-2.87998108333
20
-27.7330236678
11
-2.61324950944
21
-27.9198742642
0
LINE
8
cam
10
-2.61324950944
20
-27.9198742642
11
-2.32281731853
21
-28.1034814153
0
LINE
8
cam
10
-2.32281731853
20
-28.1034814153
11
-2.00826124285
21
-28.2812405956
0
LINE
8
cam
10
-2.00826124285
20
-28.2812405956
11
-1.66969489481
21
-28.4503812811
0
LINE
8
cam
10
-1.66969489481
20
-28.4503812811
11
-1.31257399748
21
-28.4081319839
0
LINE
8
cam
10
-1.31257399748
20
-28.4081319839
11
-0.930956371963
21
-28.5516593552
0
LINE
8
cam
10
-0.930956371963
20
-28.5516593552
11
-0.528681293743
21
-28.678295774
0
LINE
8
cam
10
-0.528681293743
20
-28.678295774
11
-0.107664817364
21
-28.7855415174
0
LINE
8
cam
10
-0.107664817364
20
-28.7855415174
11
0.329819662568
21
-28.8711386694
0
LINE
8
cam
10
0.329819662568
20
-28.8711386694
11
0.781186866298
21
-28.9331229471
0
LINE
8
cam
10
0.781186866298
20
-28.9331229471
11
1.2435890452
21
-28.9698671349
0
LINE
8
cam
10
1.2435890452
20
-28.9698671349
11
1.71396887979
21
-28.9801161773
0
LINE
8
cam
10
1.71396887979
20
-28.9801161773
11
2.18911520989
21
-28.9630138941
0
LINE
8
cam
10
2.18911520989
20
-28.9630138941
11
2.6657208279
21
-28.9181212651
0
LINE
8
cam
10
2.6657208279
20
-28.9181212651
11
3.14044148365
21
-28.845426246
0
LINE
8
cam
10
3.14044148365
20
-28.845426246
11
3.60995519679
21
-28.7453451255
0
LINE
8
cam
10
3.60995519679
20
-28.7453451255
11
4.07102094477
21
-28.6187154938
0
LINE
8
cam
10
4.07102094477
20
-28.6187154938
11
4.52053578885
21
-28.4667809597
0
LINE
8
cam
10
4.52053578885
20
-28.4667809597
11
4.95558951449
21
-28.2911678222
0
LINE
8
cam
10
4.95558951449
20
-28.2911678222
11
5.37351589557
21
-28.0938539619
0
LINE
8
cam
10
5.37351589557
20
-28.0938539619
11
5.77193974245
21
-27.8771302609
0
LINE
8
cam
10
5.77193974245
20
-27.8771302609
11
6.14881896338
21
-27.6435548776
0
LINE
8
cam
10
6.14881896338
20
-27.6435548776
11
6.50248095655
21
-27.3959006823
0
LINE
8
cam
10
6.50248095655
20
-27.3959006823
11
6.83165276068
21
-27.1370960858
0
LINE
8
cam
10
6.83165276068
20
-27.1370960858
11
7.1354845311
21
-26.8701593361
0
LINE
8
cam
10
7.1354845311
20
-26.8701593361
11
7.48029392333
21
-26.7866662619
0
LINE
8
cam
10
7.48029392333
20
-26.7866662619
11
7.7348743062
21
-26.5117130261
0
LINE
8
cam
10
7.7348743062
20
-26.5117130261
11
7.96409254127
21
-26.2374836189
0
LINE
8
cam
10
7.96409254127
20
-26.2374836189
11
8.16888950813
21
-25.9665550931
0
LINE
8
cam
10
8.16888950813
20
-25.9665550931
11
8.35065230742
21
-25.7011376583
0
LINE
8
cam
10
8.35065230742
20
-25.7011376583
11
8.51120817219
21
-25.4429372757
0
LINE
8
cam
10
8.51120817219
20
-25.4429372757
11
8.65282515134
21
-25.192985109
0
LINE
8
cam
10
8.65282515134
20
-25.192985109
11
8.77823267424
21
-24.9514165397
0
LINE
8
cam
10
8.77823267424
20
-24.9514165397
11
8.89068759567
21
-24.7171733867
0
LINE
8
cam
10
8.89068759567
20
-24.7171733867
11
8.99413675143
21
-24.4875918845
0
LINE
8
cam
10
8.99413675143
20
-24.4875918845
11
9.09357908743
21
-24.2578328019
0
LINE
8
cam
10
9.09357908743
20
-24.2578328019
11
9.19583399331
21
-24.0201389408
0
LINE
8
cam
10
9.19583399331
20
-24.0201389408
11
9.31110617369
21
-23.7630766555
0
LINE
8
cam
10
9.31110617369
20
-23.7630766555
11
9.45593583759
21
-23.4715630238
0
LINE
8
cam
10
9.45593583759
20
-23.4715630238
11
9.65765789857
21
-23.1303562588
0
LINE
8
cam
10
9.65765789857
20
-23.1303562588
11
9.86340882087
21
-22.5599762961
0
LINE
8
cam
10
9.86340882087
20
-22.5599762961
11
10.2926993136
21
-22.1520201257
0
LINE
8
cam
10
10.2926993136
20
-22.1520201257
11
10.8421696764
21
-21.8084851707
0
LINE
8
cam
10
10.8421696764
20
-21.8084851707
11
11.4230871641
21
-21.5955082377
0
LINE
8
cam
10
11.4230871641
20
-21.5955082377
11
11.9414166418
21
-21.505160592
0
LINE
8
cam
10
11.9414166418
20
-21.505160592
11
12.4762062494
21
-21.6543428163
0
LINE
8
cam
10
12.4762062494
20
-21.6543428163
11
12.8217894018
21
-21.6690092987
0
LINE
8
cam
10
12.8217894018
20
-21.6690092987
11
13.1142139349
21
-21.6959801482
0
LINE
8
cam
10
13.1142139349
20
-21.6959801482
11
13.3769957645
21
-21.7261943654
0
LINE
8
cam
10
13.3769957645
20
-21.7261943654
11
13.6271205786
21
-21.7557139515
0
LINE
8
cam
10
13.6271205786
20
-21.7557139515
11
13.8761640674
21
-21.7823092592
0
LINE
8
cam
10
13.8761640674
20
-21.7823092592
11
14.1318275246
21
-21.8040858044
0
LINE
8
cam
10
14.1318275246
20
-21.8040858044
11
14.3991047419
21
-21.8190275051
0
LINE
8
cam
10
14.3991047419
20
-21.8190275051
11
14.6810608657
21
-21.8249067265
0
LINE
8
cam
10
14.6810608657
20
-21.8249067265
11
14.9793376901
21
-21.8193290422
0
LINE
8
cam
10
14.9793376901
20
-21.8193290422
11
15.2944858051
21
-21.7998202606
0
LINE
8
cam
10
15.2944858051
20
-21.7998202606
11
15.6261911406
21
-21.7639202888
0
LINE
8
cam
10
15.6261911406
20
-21.7639202888
11
15.9734379314
21
-21.7092709744
0
LINE
8
cam
10
15.9734379314
20
-21.7092709744
11
16.3346335896
21
-21.633693764
0
LINE
8
cam
10
16.3346335896
20
-21.633693764
11
16.7077108265
21
-21.5352562344
0
LINE
8
cam
10
16.7077108265
20
-21.5352562344
11
16.9571214601
21
-21.2630433823
0
LINE
8
cam
10
16.9571214601
20
-21.2630433823
11
17.3442919473
21
-21.1161506113
0
LINE
8
cam
10
17.3442919473
20
-21.1161506113
11
17.735082249
21
-20.9426864057
0
LINE
8
cam
10
17.735082249
20
-20.9426864057
11
18.1263566538
21
-20.7421500139
0
LINE
8
cam
10
18.1263566538
20
-20.7421500139
11
18.5148917041
21
-20.5144614003
0
LINE
8
cam
10
18.5148917041
20
-20.5144614003
11
18.8974433069
21
-20.2599677002
0
LINE
8
cam
10
18.8974433069
20
-20.2599677002
11
19.2708113647
21
-19.9794408482
0
LINE
8
cam
10
19.2708113647
20
-19.9794408482
11
19.631901498
21
-19.6740667453
0
LINE
8
cam
10
19.631901498
20
-19.6740667453
11
19.9777832842
21
-19.3454263824
0
LINE
8
cam
10
19.9777832842
20
-19.3454263824
11
20.3057443608
21
-18.9954694005
0
LINE
8
cam
10
20.3057443608
20
-18.9954694005
11
20.6133397081
21
-18.6264806379
0
LINE
8
cam
10
20.6133397081
20
-18.6264806379
11
20.898435429
21
-18.2410402831
0
LINE
8
cam
10
20.898435429
20
-18.2410402831
11
21.1592463722
21
-17.841978311
0
LINE
8
cam
10
21.1592463722
20
-17.841978311
11
21.3943669927
21
-17.4323239316
0
LINE
8
cam
10
21.3943669927
20
-17.4323239316
11
21.6027949003
21
-17.0152508165
0
LINE
8
cam
10
21.6027949003
20
-17.0152508165
11
21.7839466154
21
-16.5940188826
0
LINE
8
cam
10
21.7839466154
20
-16.5940188826
11
21.9376651153
21
-16.1719133989
0
LINE
8
cam
10
21.9376651153
20
-16.1719133989
11
22.0642188169
21
-15.7521821363
0
LINE
8
cam
10
22.0642188169
20
-15.7521821363
11
22.1642916892
21
-15.3379711857
0
LINE
8
cam
10
22.1642916892
20
-15.3379711857
11
22.2389642126
21
-14.9322599067
0
LINE
8
cam
10
22.2389642126
20
-14.9322599067
11
22.4612956368
21
-14.6405072073
0
LINE
8
cam
10
22.4612956368
20
-14.6405072073
11
22.4910761983
21
-14.2576474942
0
LINE
8
cam
10
22.4910761983
20
-14.2576474942
11
22.500648109
21
-13.8906701463
0
LINE
8
cam
10
22.500648109
20
-13.8906701463
11
22.4922948764
21
-13.5412227752
0
LINE
8
cam
10
22.4922948764
20
-13.5412227752
11
22.4684513978
21
-13.2104335643
0
LINE
8
cam
10
22.4684513978
20
-13.2104335643
11
22.4316191402
21
-12.8988205093
0
LINE
8
cam
10
22.4316191402
20
-12.8988205093
11
22.384266206
21
-12.6061788584
0
LINE
8
cam
10
22.384266206
20
-12.6061788584
11
22.3287106082
21
-12.3314305602
0
LINE
8
cam
10
22.3287106082
20
-12.3314305602
11
22.2669867602
21
-12.0724083462
0
LINE
8
cam
10
22.2669867602
20
-12.0724083462
11
22.2007017086
21
-11.8255282319
0
LINE
8
cam
10
22.2007017086
20
-11.8255282319
11
22.1309076784
21
-11.5852736902
0
LINE
8
cam
10
22.1309076784
20
-11.5852736902
11
22.0580739349
21
-11.3433713604
0
LINE
8
cam
10
22.0580739349
20
-11.3433713604
11
21.9823911102
21
-11.0875042183
0
LINE
8
cam
10
21.9823911102
20
-11.0875042183
11
21.9050100642
21
-10.7995150815
0
LINE
8
cam
10
21.9050100642
20
-10.7995150815
11
21.8315588654
21
-10.4538333418
0
LINE
8
cam
10
21.8315588654
20
-10.4538333418
11
21.5955593946
21
-9.94218859915
0
LINE
8
cam
10
21.5955593946
20
-9.94218859915
11
21.6040284207
21
-9.40444386341
0
LINE
8
cam
10
21.6040284207
20
-9.40444386341
11
21.7278173699
21
-8.79076406754
0
LINE
8
cam
10
21.7278173699
20
-8.79076406754
11
21.9837748004
21
-8.19790864268
0
LINE
8
cam
10
21.9837748004
20
-8.19790864268
11
22.315274705
21
-7.71938819835
0
LINE
8
cam
10
22.315274705
20
-7.71938819835
11
22.8387504308
21
-7.43096178068
0
LINE
8
cam
10
22.8387504308
20
-7.43096178068
11
23.135183321
21
-7.18208421437
0
LINE
8
cam
10
23.135183321
20
-7.18208421437
11
23.393311176
21
-6.99396814556
0
LINE
8
cam
10
23.393311176
20
-6.99396814556
11
23.6240213795
21
-6.83838284409
0
LINE
8
cam
10
23.6240213795
20
-6.83838284409
11
23.8391224634
21
-6.69736893698
0
LINE
8
cam
10
23.8391224634
20
-6.69736893698
11
24.0477595841
21
-6.55945042084
0
LINE
8
cam
10
24.0477595841
20
-6.55945042084
11
24.256074105
21
-6.41688425866
0
LINE
8
cam
10
24.256074105
20
-6.41688425866
11
24.4677175088
21
-6.26409763742
0
LINE
8
cam
10
24.4677175088
20
-6.26409763742
11
24.6844430786
21
-6.09686467917
0
LINE
8
cam
10
24.6844430786
20
-6.09686467917
11
24.9065903143
21
-5.91188364549
0
LINE
8
cam
10
24.9065903143
20
-5.91188364549
11
25.1334503597
21
-5.70656219366
0
LINE
8
cam
10
25.1334503597
20
-5.70656219366
11
25.3635389746
21
-5.47890923282
0
LINE
8
cam
10
25.3635389746
20
-5.47890923282
11
25.5948045276
21
-5.22748058219
0
LINE
8
cam
10
25.5948045276
20
-5.22748058219
11
25.8247917208
21
-4.95135067491
0
LINE
8
cam
10
25.8247917208
20
-4.95135067491
11
26.0507751395
21
-4.65009544786
0
LINE
8
cam
10
26.0507751395
20
-4.65009544786
11
26.0721708024
21
-4.29354064305
0
LINE
8
cam
10
26.0721708024
20
-4.29354064305
11
26.2810566238
21
-3.94530173434
0
LINE
8
cam
10
26.2810566238
20
-3.94530173434
11
26.4772137795
21
-3.57365037136
0
LINE
8
cam
10
26.4772137795
20
-3.57365037136
11
26.6578322095
21
-3.17999369618
0
LINE
8
cam
10
26.6578322095
20
-3.17999369618
11
26.820270916
21
-2.76613638039
0
LINE
8
cam
10
26.820270916
20
-2.76613638039
11
26.9621177415
21
-2.33424547677
0
LINE
8
cam
10
26.9621177415
20
-2.33424547677
11
27.0812415661
21
-1.88680987105
0
LINE
8
cam
10
27.0812415661
20
-1.88680987105
11
27.1758369032
21
-1.42659479429
0
LINE
8
cam
10
27.1758369032
20
-1.42659479429
11
27.2444607584
21
-0.956592014943
0
LINE
8
cam
10
27.2444607584
20
-0.956592014943
11
27.2860615632
21
-0.47996644721
0
LINE
8
cam
10
27.2860615632
20
-0.47996644721
11
27.3
21
-9.34949523198e-15
0
CIRCLE
8
cam
10
-2.0
20
0
40
2.5
0
CIRCLE
8
roller
10
30.0
20
0.0
40
2.5
0
CIRCLE
8
roller
10
24.2705098312
20
17.6335575688
40
2.5
0
CIRCLE
8
roller
10
9.27050983125
20
28.5316954889
40
2.5
0
CIRCLE
8
roller
10
-9.27050983125
20
28.5316954889
40
2.5
0
CIRCLE
8
roller
10
-24.2705098312
20
17.6335575688
40
2.5
0
CIRCLE
8
roller
10
-30.0
20
3.67381906147e-15
40
2.5
0
CIRCLE
8
roller
10
-24.2705098312
20
-17.6335575688
40
2.5
0
CIRCLE
8
roller
10
-9.27050983125
20
-28.5316954889
40
2.5
0
CIRCLE
8
roller
10
9.27050983125
20
-28.5316954889
40
2.5
0
CIRCLE
8
roller
10
24.2705098312
20
-17.6335575688
40
2.5
0
CIRCLE
8
roller
10
0
20
0
40
2.5
0
ENDSEC
0
EOF
