0
SECTION
2
HEADER
9
$ACADVER
1
AC1006
9
$INSBASE
10
0.0
20
0.0
30
0.0
9
$EXTMIN
10
0.0
20
0.0
9
$EXTMAX
10
0.0
20
0.0
0
ENDSEC
0
SECTION
2
TABLES
0
TABLE
2
LTYPE
70
1
0
LTYPE
2
CONTINUOUS
70
64
3
Solid line
72
65
73
0
40
0.0
0
ENDTAB
0
TABLE
2
LAYER
70
5
0
LAYER
2
PYDXF
70
64
62
7
6
continuous
0
LAYER
2
TEXT
70
64
62
2
6
continuous
0
LAYER
2
CAM
70
64
62
1
6
continuous
0
LAYER
2
ROLLER
70
64
62
5
6
continuous
0
LAYER
2
PRESSURE
70
64
62
3
6
continuous
0
ENDTAB
0
TABLE
2
STYLE
70
1
0
STYLE
2
STANDARD
70
0
40
0
41
40
50
50
71
0
42
1
3
ARIAL.TTF
4

0
ENDTAB
0
TABLE
2
VIEW
70
0
0
ENDTAB
0
ENDSEC
0
SECTION
2
BLOCKS
0
ENDSEC
0
SECTION
2
ENTITIES
0
TEXT
8
text
10
45.0
20
0.7
40
0.1
1
pitch=4.0
0
TEXT
8
text
10
45.0
20
0.5
40
0.1
1
pin diameter=5.0
0
TEXT
8
text
10
45.0
20
0.3
40
0.1
1
eccentricity=2.0
0
TEXT
8
text
10
45.0
20
0.1
40
0.1
1
# of teeth=10
0
TEXT
8
text
10
45.0
20
-0.1
40
0.1
1
pressure angle limit=50.0
0
TEXT
8
text
10
45.0
20
-0.3
40
0.1
1
pressure angle offset=0.2
0
TEXT
8
text
10
45.0
20
-0.5
40
0.1
1
min angle=13.0
0
TEXT
8
text
10
45.0
20
-0.7
40
0.1
1
max angle=112.0
0
CIRCLE
8
pressure
10
-2.0
20
0
40
35.8320789648
0
CIRCLE
8
pressure
10
-2.0
20
0
40
38.5360777502
0
LINE
8
cam
10
37.3
20
0.0
11
37.281869878
21
0.632244513568
0
LINE
8
cam
10
37.281869878
20
0.632244513568
11
37.2277922854
21
1.25996477102
0
LINE
8
cam
10
37.2277922854
20
1.25996477102
11
37.1386979166
21
1.87873345603
0
LINE
8
cam
10
37.1386979166
20
1.87873345603
11
37.0161125818
21
2.48431540746
0
LINE
8
cam
10
37.0161125818
20
2.48431540746
11
36.8621194257
21
3.07275944726
0
LINE
8
cam
10
36.8621194257
20
3.07275944726
11
36.6793064785
21
3.6404852855
0
LINE
8
cam
10
36.6793064785
20
3.6404852855
11
36.4706999121
21
4.18436417
0
LINE
8
cam
10
36.4706999121
20
4.18436417
11
36.2396833649
21
4.7017922448
0
LINE
8
cam
10
36.2396833649
20
4.7017922448
11
35.989903598
21
5.19075600504
0
LINE
8
cam
10
35.989903598
20
5.19075600504
11
35.9229566204
21
5.67951237208
0
LINE
8
cam
10
35.9229566204
20
5.67951237208
11
35.6467116213
21
6.11056987345
0
LINE
8
cam
10
35.6467116213
20
6.11056987345
11
35.3630639222
21
6.51107846187
0
LINE
8
cam
10
35.3630639222
20
6.51107846187
11
35.0754924519
21
6.88190508362
0
LINE
8
cam
10
35.0754924519
20
6.88190508362
11
34.7870464089
21
7.22476152907
0
LINE
8
cam
10
34.7870464089
20
7.22476152907
11
34.5001523079
21
7.54227627203
0
LINE
8
cam
10
34.5001523079
20
7.54227627203
11
34.2164004262
21
7.83810638257
0
LINE
8
cam
10
34.2164004262
20
7.83810638257
11
33.9363195907
21
8.11712221222
0
LINE
8
cam
10
33.9363195907
20
8.11712221222
11
33.6591742125
21
8.38571302836
0
LINE
8
cam
10
33.6591742125
20
8.38571302836
11
33.3828801438
21
8.65227192493
0
LINE
8
cam
10
33.3828801438
20
8.65227192493
11
33.1042765326
21
8.92788598258
0
LINE
8
cam
10
33.1042765326
20
8.92788598258
11
32.8202543638
21
9.22706592378
0
LINE
8
cam
10
32.8202543638
20
9.22706592378
11
32.3378090598
21
9.51432568656
0
LINE
8
cam
10
32.3378090598
20
9.51432568656
11
32.0506342332
21
9.91244960153
0
LINE
8
cam
10
32.0506342332
20
9.91244960153
11
31.7855178548
21
10.3805871123
0
LINE
8
cam
10
31.7855178548
20
10.3805871123
11
31.5722950252
21
10.9082999014
0
LINE
8
cam
10
31.5722950252
20
10.9082999014
11
31.4346141231
21
11.4605577507
0
LINE
8
cam
10
31.4346141231
20
11.4605577507
11
31.3739334538
21
11.9951204499
0
LINE
8
cam
10
31.3739334538
20
11.9951204499
11
31.372251403
21
12.4860065909
0
LINE
8
cam
10
31.372251403
20
12.4860065909
11
31.5937108007
21
13.0019788555
0
LINE
8
cam
10
31.5937108007
20
13.0019788555
11
31.6476360048
21
13.4109645545
0
LINE
8
cam
10
31.6476360048
20
13.4109645545
11
31.7110291826
21
13.797700105
0
LINE
8
cam
10
31.7110291826
20
13.797700105
11
31.7778763913
21
14.1757523611
0
LINE
8
cam
10
31.7778763913
20
14.1757523611
11
31.8442179915
21
14.555948862
0
LINE
8
cam
10
31.8442179915
20
14.555948862
11
31.9068067574
21
14.9463047944
0
LINE
8
cam
10
31.9068067574
20
14.9463047944
11
31.9624822758
21
15.3524215527
0
LINE
8
cam
10
31.9624822758
20
15.3524215527
11
32.0079539958
21
15.7779284972
0
LINE
8
cam
10
32.0079539958
20
15.7779284972
11
32.0397857843
21
16.2248495184
0
LINE
8
cam
10
32.0397857843
20
16.2248495184
11
32.0544695714
21
16.6938848266
0
LINE
8
cam
10
32.0544695714
20
16.6938848266
11
32.0485323387
21
17.1846270154
0
LINE
8
cam
10
32.0485323387
20
17.1846270154
11
32.0186499953
21
17.695732596
0
LINE
8
cam
10
32.0186499953
20
17.695732596
11
31.7855274535
21
18.1304952492
0
LINE
8
cam
10
31.7855274535
20
18.1304952492
11
31.7001978426
21
18.6728921042
0
LINE
8
cam
10
31.7001978426
20
18.6728921042
11
31.5829575637
21
19.2272883295
0
LINE
8
cam
10
31.5829575637
20
19.2272883295
11
31.4320398337
21
19.7899114532
0
LINE
8
cam
10
31.4320398337
20
19.7899114532
11
31.2462377398
21
20.3566660588
0
LINE
8
cam
10
31.2462377398
20
20.3566660588
11
31.0249420917
21
20.9232421933
0
LINE
8
cam
10
31.0249420917
20
20.9232421933
11
30.7681635706
21
21.4852221354
0
LINE
8
cam
10
30.7681635706
20
21.4852221354
11
30.4765393215
21
22.0381848733
0
LINE
8
cam
10
30.4765393215
20
22.0381848733
11
30.1513243031
21
22.5778072407
0
LINE
8
cam
10
30.1513243031
20
22.5778072407
11
29.7943678789
21
23.0999604151
0
LINE
8
cam
10
29.7943678789
20
23.0999604151
11
29.4080763012
21
23.6008003529
0
LINE
8
cam
10
29.4080763012
20
23.6008003529
11
28.9953618999
21
24.0768506974
0
LINE
8
cam
10
28.9953618999
20
24.0768506974
11
28.5595799338
21
24.5250767231
0
LINE
8
cam
10
28.5595799338
20
24.5250767231
11
28.1044541746
21
24.9429489614
0
LINE
8
cam
10
28.1044541746
20
24.9429489614
11
27.6339923659
21
25.3284952837
0
LINE
8
cam
10
27.6339923659
20
25.3284952837
11
27.1523927097
21
25.6803403807
0
LINE
8
cam
10
27.1523927097
20
25.6803403807
11
26.663942465
21
25.9977317779
0
LINE
8
cam
10
26.663942465
20
25.9977317779
11
26.1729095609
21
26.2805517643
0
LINE
8
cam
10
26.1729095609
20
26.2805517643
11
25.6834277975
21
26.5293148927
0
LINE
8
cam
10
25.6834277975
20
26.5293148927
11
25.3419827703
21
26.8853766535
0
LINE
8
cam
10
25.3419827703
20
26.8853766535
11
24.8651266292
21
27.0717367612
0
LINE
8
cam
10
24.8651266292
20
27.0717367612
11
24.4002377786
21
27.2290310813
0
LINE
8
cam
10
24.4002377786
20
27.2290310813
11
23.9496211526
21
27.3600058511
0
LINE
8
cam
10
23.9496211526
20
27.3600058511
11
23.5147374395
21
27.4678382119
0
LINE
8
cam
10
23.5147374395
20
27.4678382119
11
23.096004753
21
27.5560809134
0
LINE
8
cam
10
23.096004753
20
27.5560809134
11
22.6925600823
21
27.6286273288
0
LINE
8
cam
10
22.6925600823
20
27.6286273288
11
22.3019685367
21
27.6897284922
0
LINE
8
cam
10
22.3019685367
20
27.6897284922
11
21.9198794952
21
27.7441210609
0
LINE
8
cam
10
21.9198794952
20
27.7441210609
11
21.53967351
21
27.7973701594
0
LINE
8
cam
10
21.53967351
20
27.7973701594
11
21.1522765754
21
27.856587522
0
LINE
8
cam
10
21.1522765754
20
27.856587522
11
20.7466442568
21
27.9316851367
0
LINE
8
cam
10
20.7466442568
20
27.9316851367
11
20.1874907549
21
27.8805089318
0
LINE
8
cam
10
20.1874907549
20
27.8805089318
11
19.721150074
21
28.033800817
0
LINE
8
cam
10
19.721150074
20
28.033800817
11
19.2315020935
21
28.2567005216
0
LINE
8
cam
10
19.2315020935
20
28.2567005216
11
18.7488194059
21
28.5582999014
0
LINE
8
cam
10
18.7488194059
20
28.5582999014
11
18.3128241971
21
28.9241590829
0
LINE
8
cam
10
18.3128241971
20
28.9241590829
11
17.9495244333
21
29.3209621887
0
LINE
8
cam
10
17.9495244333
20
29.3209621887
11
17.6596279914
21
29.7171087344
0
LINE
8
cam
10
17.6596279914
20
29.7171087344
11
17.53551152
21
30.2647096331
0
LINE
8
cam
10
17.53551152
20
30.2647096331
11
17.3387421643
21
30.6272824537
0
LINE
8
cam
10
17.3387421643
20
30.6272824537
11
17.1627108693
21
30.9774196613
0
LINE
8
cam
10
17.1627108693
20
30.9774196613
11
16.9945778564
21
31.3225621648
0
LINE
8
cam
10
16.9945778564
20
31.3225621648
11
16.8247754423
21
31.6691422094
0
LINE
8
cam
10
16.8247754423
20
31.6691422094
11
16.6459653573
21
32.0217355461
0
LINE
8
cam
10
16.6459653573
20
32.0217355461
11
16.4522983566
21
32.3830161539
0
LINE
8
cam
10
16.4522983566
20
32.3830161539
11
16.2389790441
21
32.7539861096
0
LINE
8
cam
10
16.2389790441
20
32.7539861096
11
16.0020379168
21
33.1342630668
0
LINE
8
cam
10
16.0020379168
20
33.1342630668
11
15.7382253131
21
33.5223515155
0
LINE
8
cam
10
15.7382253131
20
33.5223515155
11
15.4449709697
21
33.9158804683
0
LINE
8
cam
10
15.4449709697
20
33.9158804683
11
15.1203753235
21
34.3118091682
0
LINE
8
cam
10
15.1203753235
20
34.3118091682
11
14.6762281496
21
34.5265135511
0
LINE
8
cam
10
14.6762281496
20
34.5265135511
11
14.288382172
21
34.9151663376
0
LINE
8
cam
10
14.288382172
20
34.9151663376
11
13.8676668688
21
35.2947701987
0
LINE
8
cam
10
13.8676668688
20
35.2947701987
11
13.4148702857
21
35.6612346512
0
LINE
8
cam
10
13.4148702857
20
35.6612346512
11
12.9314232353
21
36.010537028
0
LINE
8
cam
10
12.9314232353
20
36.010537028
11
12.419366199
21
36.3388324311
0
LINE
8
cam
10
12.419366199
20
36.3388324311
11
11.8813044897
21
36.642553127
0
LINE
8
cam
10
11.8813044897
20
36.642553127
11
11.3203521738
21
36.9184969464
0
LINE
8
cam
10
11.3203521738
20
36.9184969464
11
10.7400656277
21
37.1639040205
0
LINE
8
cam
10
10.7400656277
20
37.1639040205
11
10.1443678789
21
37.3765210904
0
LINE
8
cam
10
10.1443678789
20
37.3765210904
11
9.53746509862
21
37.5546526191
0
LINE
8
cam
10
9.53746509862
20
37.5546526191
11
8.92375676223
21
37.6971979995
0
LINE
8
cam
10
8.92375676223
20
37.6971979995
11
8.30774109818
21
37.8036742587
0
LINE
8
cam
10
8.30774109818
20
37.8036742587
11
7.69391748543
21
37.8742237917
0
LINE
8
cam
10
7.69391748543
20
37.8742237917
11
7.08668744466
21
37.9096068057
0
LINE
8
cam
10
7.08668744466
20
37.9096068057
11
6.49025577924
21
37.9111782931
0
LINE
8
cam
10
6.49025577924
20
37.9111782931
11
5.90853324791
21
37.880849477
0
LINE
8
cam
10
5.90853324791
20
37.880849477
11
5.34504186659
21
37.8210337529
0
LINE
8
cam
10
5.34504186659
20
37.8210337529
11
4.80282350337
21
37.7345771896
0
LINE
8
cam
10
4.80282350337
20
37.7345771896
11
4.31730082179
21
37.8219408537
0
LINE
8
cam
10
4.31730082179
20
37.8219408537
11
3.82197637689
21
37.6924203407
0
LINE
8
cam
10
3.82197637689
20
37.6924203407
11
3.35341811461
21
37.5464193084
0
LINE
8
cam
10
3.35341811461
20
37.5464193084
11
2.91187656817
21
37.3875143158
0
LINE
8
cam
10
2.91187656817
20
37.3875143158
11
2.4966659823
21
37.2191342952
0
LINE
8
cam
10
2.4966659823
20
37.2191342952
11
2.10603636421
21
37.0443992425
0
LINE
8
cam
10
2.10603636421
20
37.0443992425
11
1.73700105622
21
36.865951698
0
LINE
8
cam
10
1.73700105622
20
36.865951698
11
1.38509149531
21
36.6857996274
0
LINE
8
cam
10
1.38509149531
20
36.6857996274
11
1.04400381762
21
36.5052178362
0
LINE
8
cam
10
1.04400381762
20
36.5052178362
11
0.705111679422
21
36.3248177908
0
LINE
8
cam
10
0.705111679422
20
36.3248177908
11
0.356893883345
21
36.1450194386
0
LINE
8
cam
10
0.356893883345
20
36.1450194386
11
-0.0154108262301
21
35.9673499904
0
LINE
8
cam
10
-0.0154108262301
20
35.9673499904
11
-0.43769489329
21
35.5972853887
0
LINE
8
cam
10
-0.43769489329
20
35.5972853887
11
-0.905075138691
21
35.4471929542
0
LINE
8
cam
10
-0.905075138691
20
35.4471929542
11
-1.43222583526
21
35.3397147415
0
LINE
8
cam
10
-1.43222583526
20
35.3397147415
11
-2.0
21
35.3
0
LINE
8
cam
10
-2.0
20
35.3
11
-2.56777416474
21
35.3397147415
0
LINE
8
cam
10
-2.56777416474
20
35.3397147415
11
-3.09492486131
21
35.4471929542
0
LINE
8
cam
10
-3.09492486131
20
35.4471929542
11
-3.56230510671
21
35.5972853887
0
LINE
8
cam
10
-3.56230510671
20
35.5972853887
11
-3.98458917377
21
35.9673499904
0
LINE
8
cam
10
-3.98458917377
20
35.9673499904
11
-4.35689388334
21
36.1450194386
0
LINE
8
cam
10
-4.35689388334
20
36.1450194386
11
-4.70511167942
21
36.3248177908
0
LINE
8
cam
10
-4.70511167942
20
36.3248177908
11
-5.04400381762
21
36.5052178362
0
LINE
8
cam
10
-5.04400381762
20
36.5052178362
11
-5.38509149531
21
36.6857996274
0
LINE
8
cam
10
-5.38509149531
20
36.6857996274
11
-5.73700105622
21
36.865951698
0
LINE
8
cam
10
-5.73700105622
20
36.865951698
11
-6.10603636421
21
37.0443992425
0
LINE
8
cam
10
-6.10603636421
20
37.0443992425
11
-6.4966659823
21
37.2191342952
0
LINE
8
cam
10
-6.4966659823
20
37.2191342952
11
-6.91187656817
21
37.3875143158
0
LINE
8
cam
10
-6.91187656817
20
37.3875143158
11
-7.35341811461
21
37.5464193084
0
LINE
8
cam
10
-7.35341811461
20
37.5464193084
11
-7.82197637689
21
37.6924203407
0
LINE
8
cam
10
-7.82197637689
20
37.6924203407
11
-8.31730082179
21
37.8219408537
0
LINE
8
cam
10
-8.31730082179
20
37.8219408537
11
-8.80282350337
21
37.7345771896
0
LINE
8
cam
10
-8.80282350337
20
37.7345771896
11
-9.34504186659
21
37.8210337529
0
LINE
8
cam
10
-9.34504186659
20
37.8210337529
11
-9.90853324791
21
37.880849477
0
LINE
8
cam
10
-9.90853324791
20
37.880849477
11
-10.4902557792
21
37.9111782931
0
LINE
8
cam
10
-10.4902557792
20
37.9111782931
11
-11.0866874447
21
37.9096068057
0
LINE
8
cam
10
-11.0866874447
20
37.9096068057
11
-11.6939174854
21
37.8742237917
0
LINE
8
cam
10
-11.6939174854
20
37.8742237917
11
-12.3077410982
21
37.8036742587
0
LINE
8
cam
10
-12.3077410982
20
37.8036742587
11
-12.9237567622
21
37.6971979995
0
LINE
8
cam
10
-12.9237567622
20
37.6971979995
11
-13.5374650986
21
37.5546526191
0
LINE
8
cam
10
-13.5374650986
20
37.5546526191
11
-14.1443678789
21
37.3765210904
0
LINE
8
cam
10
-14.1443678789
20
37.3765210904
11
-14.7400656277
21
37.1639040205
0
LINE
8
cam
10
-14.7400656277
20
37.1639040205
11
-15.3203521738
21
36.9184969464
0
LINE
8
cam
10
-15.3203521738
20
36.9184969464
11
-15.8813044897
21
36.642553127
0
LINE
8
cam
10
-15.8813044897
20
36.642553127
11
-16.419366199
21
36.3388324311
0
LINE
8
cam
10
-16.419366199
20
36.3388324311
11
-16.9314232353
21
36.010537028
0
LINE
8
cam
10
-16.9314232353
20
36.010537028
11
-17.4148702857
21
35.6612346512
0
LINE
8
cam
10
-17.4148702857
20
35.6612346512
11
-17.8676668688
21
35.2947701987
0
LINE
8
cam
10
-17.8676668688
20
35.2947701987
11
-18.288382172
21
34.9151663376
0
LINE
8
cam
10
-18.288382172
20
34.9151663376
11
-18.6762281496
21
34.5265135511
0
LINE
8
cam
10
-18.6762281496
20
34.5265135511
11
-19.1203753235
21
34.3118091682
0
LINE
8
cam
10
-19.1203753235
20
34.3118091682
11
-19.4449709697
21
33.9158804683
0
LINE
8
cam
10
-19.4449709697
20
33.9158804683
11
-19.7382253131
21
33.5223515155
0
LINE
8
cam
10
-19.7382253131
20
33.5223515155
11
-20.0020379168
21
33.1342630668
0
LINE
8
cam
10
-20.0020379168
20
33.1342630668
11
-20.2389790441
21
32.7539861096
0
LINE
8
cam
10
-20.2389790441
20
32.7539861096
11
-20.4522983566
21
32.3830161539
0
LINE
8
cam
10
-20.4522983566
20
32.3830161539
11
-20.6459653573
21
32.0217355461
0
LINE
8
cam
10
-20.6459653573
20
32.0217355461
11
-20.8247754423
21
31.6691422094
0
LINE
8
cam
10
-20.8247754423
20
31.6691422094
11
-20.9945778564
21
31.3225621648
0
LINE
8
cam
10
-20.9945778564
20
31.3225621648
11
-21.1627108693
21
30.9774196613
0
LINE
8
cam
10
-21.1627108693
20
30.9774196613
11
-21.3387421643
21
30.6272824537
0
LINE
8
cam
10
-21.3387421643
20
30.6272824537
11
-21.53551152
21
30.2647096331
0
LINE
8
cam
10
-21.53551152
20
30.2647096331
11
-21.6596279914
21
29.7171087344
0
LINE
8
cam
10
-21.6596279914
20
29.7171087344
11
-21.9495244333
21
29.3209621887
0
LINE
8
cam
10
-21.9495244333
20
29.3209621887
11
-22.3128241971
21
28.9241590829
0
LINE
8
cam
10
-22.3128241971
20
28.9241590829
11
-22.7488194059
21
28.5582999014
0
LINE
8
cam
10
-22.7488194059
20
28.5582999014
11
-23.2315020935
21
28.2567005216
0
LINE
8
cam
10
-23.2315020935
20
28.2567005216
11
-23.721150074
21
28.033800817
0
LINE
8
cam
10
-23.721150074
20
28.033800817
11
-24.1874907549
21
27.8805089318
0
LINE
8
cam
10
-24.1874907549
20
27.8805089318
11
-24.7466442568
21
27.9316851367
0
LINE
8
cam
10
-24.7466442568
20
27.9316851367
11
-25.1522765754
21
27.856587522
0
LINE
8
cam
10
-25.1522765754
20
27.856587522
11
-25.53967351
21
27.7973701594
0
LINE
8
cam
10
-25.53967351
20
27.7973701594
11
-25.9198794952
21
27.7441210609
0
LINE
8
cam
10
-25.9198794952
20
27.7441210609
11
-26.3019685367
21
27.6897284922
0
LINE
8
cam
10
-26.3019685367
20
27.6897284922
11
-26.6925600823
21
27.6286273288
0
LINE
8
cam
10
-26.6925600823
20
27.6286273288
11
-27.096004753
21
27.5560809134
0
LINE
8
cam
10
-27.096004753
20
27.5560809134
11
-27.5147374395
21
27.4678382119
0
LINE
8
cam
10
-27.5147374395
20
27.4678382119
11
-27.9496211526
21
27.3600058511
0
LINE
8
cam
10
-27.9496211526
20
27.3600058511
11
-28.4002377786
21
27.2290310813
0
LINE
8
cam
10
-28.4002377786
20
27.2290310813
11
-28.8651266292
21
27.0717367612
0
LINE
8
cam
10
-28.8651266292
20
27.0717367612
11
-29.3419827703
21
26.8853766535
0
LINE
8
cam
10
-29.3419827703
20
26.8853766535
11
-29.6834277975
21
26.5293148927
0
LINE
8
cam
10
-29.6834277975
20
26.5293148927
11
-30.1729095609
21
26.2805517643
0
LINE
8
cam
10
-30.1729095609
20
26.2805517643
11
-30.663942465
21
25.9977317779
0
LINE
8
cam
10
-30.663942465
20
25.9977317779
11
-31.1523927097
21
25.6803403807
0
LINE
8
cam
10
-31.1523927097
20
25.6803403807
11
-31.6339923659
21
25.3284952837
0
LINE
8
cam
10
-31.6339923659
20
25.3284952837
11
-32.1044541746
21
24.9429489614
0
LINE
8
cam
10
-32.1044541746
20
24.9429489614
11
-32.5595799338
21
24.5250767231
0
LINE
8
cam
10
-32.5595799338
20
24.5250767231
11
-32.9953618999
21
24.0768506974
0
LINE
8
cam
10
-32.9953618999
20
24.0768506974
11
-33.4080763012
21
23.6008003529
0
LINE
8
cam
10
-33.4080763012
20
23.6008003529
11
-33.7943678789
21
23.0999604151
0
LINE
8
cam
10
-33.7943678789
20
23.0999604151
11
-34.1513243031
21
22.5778072407
0
LINE
8
cam
10
-34.1513243031
20
22.5778072407
11
-34.4765393215
21
22.0381848733
0
LINE
8
cam
10
-34.4765393215
20
22.0381848733
11
-34.7681635706
21
21.4852221354
0
LINE
8
cam
10
-34.7681635706
20
21.4852221354
11
-35.0249420917
21
20.9232421933
0
LINE
8
cam
10
-35.0249420917
20
20.9232421933
11
-35.2462377398
21
20.3566660588
0
LINE
8
cam
10
-35.2462377398
20
20.3566660588
11
-35.4320398337
21
19.7899114532
0
LINE
8
cam
10
-35.4320398337
20
19.7899114532
11
-35.5829575637
21
19.2272883295
0
LINE
8
cam
10
-35.5829575637
20
19.2272883295
11
-35.7001978426
21
18.6728921042
0
LINE
8
cam
10
-35.7001978426
20
18.6728921042
11
-35.7855274535
21
18.1304952492
0
LINE
8
cam
10
-35.7855274535
20
18.1304952492
11
-36.0186499953
21
17.695732596
0
LINE
8
cam
10
-36.0186499953
20
17.695732596
11
-36.0485323387
21
17.1846270154
0
LINE
8
cam
10
-36.0485323387
20
17.1846270154
11
-36.0544695714
21
16.6938848266
0
LINE
8
cam
10
-36.0544695714
20
16.6938848266
11
-36.0397857843
21
16.2248495184
0
LINE
8
cam
10
-36.0397857843
20
16.2248495184
11
-36.0079539958
21
15.7779284972
0
LINE
8
cam
10
-36.0079539958
20
15.7779284972
11
-35.9624822758
21
15.3524215527
0
LINE
8
cam
10
-35.9624822758
20
15.3524215527
11
-35.9068067574
21
14.9463047944
0
LINE
8
cam
10
-35.9068067574
20
14.9463047944
11
-35.8442179915
21
14.555948862
0
LINE
8
cam
10
-35.8442179915
20
14.555948862
11
-35.7778763913
21
14.1757523611
0
LINE
8
cam
10
-35.7778763913
20
14.1757523611
11
-35.7110291826
21
13.797700105
0
LINE
8
cam
10
-35.7110291826
20
13.797700105
11
-35.6476360048
21
13.4109645545
0
LINE
8
cam
10
-35.6476360048
20
13.4109645545
11
-35.5937108007
21
13.0019788555
0
LINE
8
cam
10
-35.5937108007
20
13.0019788555
11
-35.372251403
21
12.4860065909
0
LINE
8
cam
10
-35.372251403
20
12.4860065909
11
-35.3739334538
21
11.9951204499
0
LINE
8
cam
10
-35.3739334538
20
11.9951204499
11
-35.4346141231
21
11.4605577507
0
LINE
8
cam
10
-35.4346141231
20
11.4605577507
11
-35.5722950252
21
10.9082999014
0
LINE
8
cam
10
-35.5722950252
20
10.9082999014
11
-35.7855178548
21
10.3805871123
0
LINE
8
cam
10
-35.7855178548
20
10.3805871123
11
-36.0506342332
21
9.91244960153
0
LINE
8
cam
10
-36.0506342332
20
9.91244960153
11
-36.3378090598
21
9.51432568656
0
LINE
8
cam
10
-36.3378090598
20
9.51432568656
11
-36.8202543638
21
9.22706592378
0
LINE
8
cam
10
-36.8202543638
20
9.22706592378
11
-37.1042765326
21
8.92788598258
0
LINE
8
cam
10
-37.1042765326
20
8.92788598258
11
-37.3828801438
21
8.65227192493
0
LINE
8
cam
10
-37.3828801438
20
8.65227192493
11
-37.6591742125
21
8.38571302836
0
LINE
8
cam
10
-37.6591742125
20
8.38571302836
11
-37.9363195907
21
8.11712221222
0
LINE
8
cam
10
-37.9363195907
20
8.11712221222
11
-38.2164004262
21
7.83810638257
0
LINE
8
cam
10
-38.2164004262
20
7.83810638257
11
-38.5001523079
21
7.54227627203
0
LINE
8
cam
10
-38.5001523079
20
7.54227627203
11
-38.7870464089
21
7.22476152907
0
LINE
8
cam
10
-38.7870464089
20
7.22476152907
11
-39.0754924519
21
6.88190508362
0
LINE
8
cam
10
-39.0754924519
20
6.88190508362
11
-39.3630639222
21
6.51107846187
0
LINE
8
cam
10
-39.3630639222
20
6.51107846187
11
-39.6467116213
21
6.11056987345
0
LINE
8
cam
10
-39.6467116213
20
6.11056987345
11
-39.9229566204
21
5.67951237208
0
LINE
8
cam
10
-39.9229566204
20
5.67951237208
11
-39.989903598
21
5.19075600504
0
LINE
8
cam
10
-39.989903598
20
5.19075600504
11
-40.2396833649
21
4.7017922448
0
LINE
8
cam
10
-40.2396833649
20
4.7017922448
11
-40.4706999121
21
4.18436417
0
LINE
8
cam
10
-40.4706999121
20
4.18436417
11
-40.6793064785
21
3.6404852855
0
LINE
8
cam
10
-40.6793064785
20
3.6404852855
11
-40.8621194257
21
3.07275944726
0
LINE
8
cam
10
-40.8621194257
20
3.07275944726
11
-41.0161125818
21
2.48431540746
0
LINE
8
cam
10
-41.0161125818
20
2.48431540746
11
-41.1386979166
21
1.87873345603
0
LINE
8
cam
10
-41.1386979166
20
1.87873345603
11
-41.2277922854
21
1.25996477102
0
LINE
8
cam
10
-41.2277922854
20
1.25996477102
11
-41.281869878
21
0.632244513568
0
LINE
8
cam
10
-41.281869878
20
0.632244513568
11
-41.3
21
4.81270297052e-15
0
LINE
8
cam
10
-41.3
20
4.81270297052e-15
11
-41.281869878
21
-0.632244513568
0
LINE
8
cam
10
-41.281869878
20
-0.632244513568
11
-41.2277922854
21
-1.25996477102
0
LINE
8
cam
10
-41.2277922854
20
-1.25996477102
11
-41.1386979166
21
-1.87873345603
0
LINE
8
cam
10
-41.1386979166
20
-1.87873345603
11
-41.0161125818
21
-2.48431540746
0
LINE
8
cam
10
-41.0161125818
20
-2.48431540746
11
-40.8621194257
21
-3.07275944726
0
LINE
8
cam
10
-40.8621194257
20
-3.07275944726
11
-40.6793064785
21
-3.6404852855
0
LINE
8
cam
10
-40.6793064785
20
-3.6404852855
11
-40.4706999121
21
-4.18436417
0
LINE
8
cam
10
-40.4706999121
20
-4.18436417
11
-40.2396833649
21
-4.7017922448
0
LINE
8
cam
10
-40.2396833649
20
-4.7017922448
11
-39.989903598
21
-5.19075600504
0
LINE
8
cam
10
-39.989903598
20
-5.19075600504
11
-39.9229566204
21
-5.67951237208
0
LINE
8
cam
10
-39.9229566204
20
-5.67951237208
11
-39.6467116213
21
-6.11056987345
0
LINE
8
cam
10
-39.6467116213
20
-6.11056987345
11
-39.3630639222
21
-6.51107846187
0
LINE
8
cam
10
-39.3630639222
20
-6.51107846187
11
-39.0754924519
21
-6.88190508362
0
LINE
8
cam
10
-39.0754924519
20
-6.88190508362
11
-38.7870464089
21
-7.22476152907
0
LINE
8
cam
10
-38.7870464089
20
-7.22476152907
11
-38.5001523079
21
-7.54227627203
0
LINE
8
cam
10
-38.5001523079
20
-7.54227627203
11
-38.2164004262
21
-7.83810638257
0
LINE
8
cam
10
-38.2164004262
20
-7.83810638257
11
-37.9363195907
21
-8.11712221222
0
LINE
8
cam
10
-37.9363195907
20
-8.11712221222
11
-37.6591742125
21
-8.38571302836
0
LINE
8
cam
10
-37.6591742125
20
-8.38571302836
11
-37.3828801438
21
-8.65227192493
0
LINE
8
cam
10
-37.3828801438
20
-8.65227192493
11
-37.1042765326
21
-8.92788598258
0
LINE
8
cam
10
-37.1042765326
20
-8.92788598258
11
-36.8202543638
21
-9.22706592378
0
LINE
8
cam
10
-36.8202543638
20
-9.22706592378
11
-36.3378090598
21
-9.51432568656
0
LINE
8
cam
10
-36.3378090598
20
-9.51432568656
11
-36.0506342332
21
-9.91244960153
0
LINE
8
cam
10
-36.0506342332
20
-9.91244960153
11
-35.7855178548
21
-10.3805871123
0
LINE
8
cam
10
-35.7855178548
20
-10.3805871123
11
-35.5722950252
21
-10.9082999014
0
LINE
8
cam
10
-35.5722950252
20
-10.9082999014
11
-35.4346141231
21
-11.4605577507
0
LINE
8
cam
10
-35.4346141231
20
-11.4605577507
11
-35.3739334538
21
-11.9951204499
0
LINE
8
cam
10
-35.3739334538
20
-11.9951204499
11
-35.372251403
21
-12.4860065909
0
LINE
8
cam
10
-35.372251403
20
-12.4860065909
11
-35.5937108007
21
-13.0019788555
0
LINE
8
cam
10
-35.5937108007
20
-13.0019788555
11
-35.6476360048
21
-13.4109645545
0
LINE
8
cam
10
-35.6476360048
20
-13.4109645545
11
-35.7110291826
21
-13.797700105
0
LINE
8
cam
10
-35.7110291826
20
-13.797700105
11
-35.7778763913
21
-14.1757523611
0
LINE
8
cam
10
-35.7778763913
20
-14.1757523611
11
-35.8442179915
21
-14.555948862
0
LINE
8
cam
10
-35.8442179915
20
-14.555948862
11
-35.9068067574
21
-14.9463047944
0
LINE
8
cam
10
-35.9068067574
20
-14.9463047944
11
-35.9624822758
21
-15.3524215527
0
LINE
8
cam
10
-35.9624822758
20
-15.3524215527
11
-36.0079539958
21
-15.7779284972
0
LINE
8
cam
10
-36.0079539958
20
-15.7779284972
11
-36.0397857843
21
-16.2248495184
0
LINE
8
cam
10
-36.0397857843
20
-16.2248495184
11
-36.0544695714
21
-16.6938848266
0
LINE
8
cam
10
-36.0544695714
20
-16.6938848266
11
-36.0485323387
21
-17.1846270154
0
LINE
8
cam
10
-36.0485323387
20
-17.1846270154
11
-36.0186499953
21
-17.695732596
0
LINE
8
cam
10
-36.0186499953
20
-17.695732596
11
-35.7855274535
21
-18.1304952492
0
LINE
8
cam
10
-35.7855274535
20
-18.1304952492
11
-35.7001978426
21
-18.6728921042
0
LINE
8
cam
10
-35.7001978426
20
-18.6728921042
11
-35.5829575637
21
-19.2272883295
0
LINE
8
cam
10
-35.5829575637
20
-19.2272883295
11
-35.4320398337
21
-19.7899114532
0
LINE
8
cam
10
-35.4320398337
20
-19.7899114532
11
-35.2462377398
21
-20.3566660588
0
LINE
8
cam
10
-35.2462377398
20
-20.3566660588
11
-35.0249420917
21
-20.9232421933
0
LINE
8
cam
10
-35.0249420917
20
-20.9232421933
11
-34.7681635706
21
-21.4852221354
0
LINE
8
cam
10
-34.7681635706
20
-21.4852221354
11
-34.4765393215
21
-22.0381848733
0
LINE
8
cam
10
-34.4765393215
20
-22.0381848733
11
-34.1513243031
21
-22.5778072407
0
LINE
8
cam
10
-34.1513243031
20
-22.5778072407
11
-33.7943678789
21
-23.0999604151
0
LINE
8
cam
10
-33.7943678789
20
-23.0999604151
11
-33.4080763012
21
-23.6008003529
0
LINE
8
cam
10
-33.4080763012
20
-23.6008003529
11
-32.9953618999
21
-24.0768506974
0
LINE
8
cam
10
-32.9953618999
20
-24.0768506974
11
-32.5595799338
21
-24.5250767231
0
LINE
8
cam
10
-32.5595799338
20
-24.5250767231
11
-32.1044541746
21
-24.9429489614
0
LINE
8
cam
10
-32.1044541746
20
-24.9429489614
11
-31.6339923659
21
-25.3284952837
0
LINE
8
cam
10
-31.6339923659
20
-25.3284952837
11
-31.1523927097
21
-25.6803403807
0
LINE
8
cam
10
-31.1523927097
20
-25.6803403807
11
-30.663942465
21
-25.9977317779
0
LINE
8
cam
10
-30.663942465
20
-25.9977317779
11
-30.1729095609
21
-26.2805517643
0
LINE
8
cam
10
-30.1729095609
20
-26.2805517643
11
-29.6834277975
21
-26.5293148927
0
LINE
8
cam
10
-29.6834277975
20
-26.5293148927
11
-29.3419827703
21
-26.8853766535
0
LINE
8
cam
10
-29.3419827703
20
-26.8853766535
11
-28.8651266292
21
-27.0717367612
0
LINE
8
cam
10
-28.8651266292
20
-27.0717367612
11
-28.4002377786
21
-27.2290310813
0
LINE
8
cam
10
-28.4002377786
20
-27.2290310813
11
-27.9496211526
21
-27.3600058511
0
LINE
8
cam
10
-27.9496211526
20
-27.3600058511
11
-27.5147374395
21
-27.4678382119
0
LINE
8
cam
10
-27.5147374395
20
-27.4678382119
11
-27.096004753
21
-27.5560809134
0
LINE
8
cam
10
-27.096004753
20
-27.5560809134
11
-26.6925600823
21
-27.6286273288
0
LINE
8
cam
10
-26.6925600823
20
-27.6286273288
11
-26.3019685367
21
-27.6897284922
0
LINE
8
cam
10
-26.3019685367
20
-27.6897284922
11
-25.9198794952
21
-27.7441210609
0
LINE
8
cam
10
-25.9198794952
20
-27.7441210609
11
-25.53967351
21
-27.7973701594
0
LINE
8
cam
10
-25.53967351
20
-27.7973701594
11
-25.1522765754
21
-27.856587522
0
LINE
8
cam
10
-25.1522765754
20
-27.856587522
11
-24.7466442568
21
-27.9316851367
0
LINE
8
cam
10
-24.7466442568
20
-27.9316851367
11
-24.1874907549
21
-27.8805089318
0
LINE
8
cam
10
-24.1874907549
20
-27.8805089318
11
-23.721150074
21
-28.033800817
0
LINE
8
cam
10
-23.721150074
20
-28.033800817
11
-23.2315020935
21
-28.2567005216
0
LINE
8
cam
10
-23.2315020935
20
-28.2567005216
11
-22.7488194059
21
-28.5582999014
0
LINE
8
cam
10
-22.7488194059
20
-28.5582999014
11
-22.3128241971
21
-28.9241590829
0
LINE
8
cam
10
-22.3128241971
20
-28.9241590829
11
-21.9495244333
21
-29.3209621887
0
LINE
8
cam
10
-21.9495244333
20
-29.3209621887
11
-21.6596279914
21
-29.7171087344
0
LINE
8
cam
10
-21.6596279914
20
-29.7171087344
11
-21.53551152
21
-30.2647096331
0
LINE
8
cam
10
-21.53551152
20
-30.2647096331
11
-21.3387421643
21
-30.6272824537
0
LINE
8
cam
10
-21.3387421643
20
-30.6272824537
11
-21.1627108693
21
-30.9774196613
0
LINE
8
cam
10
-21.1627108693
20
-30.9774196613
11
-20.9945778564
21
-31.3225621648
0
LINE
8
cam
10
-20.9945778564
20
-31.3225621648
11
-20.8247754423
21
-31.6691422094
0
LINE
8
cam
10
-20.8247754423
20
-31.6691422094
11
-20.6459653573
21
-32.0217355461
0
LINE
8
cam
10
-20.6459653573
20
-32.0217355461
11
-20.4522983566
21
-32.3830161539
0
LINE
8
cam
10
-20.4522983566
20
-32.3830161539
11
-20.2389790441
21
-32.7539861096
0
LINE
8
cam
10
-20.2389790441
20
-32.7539861096
11
-20.0020379168
21
-33.1342630668
0
LINE
8
cam
10
-20.0020379168
20
-33.1342630668
11
-19.7382253131
21
-33.5223515155
0
LINE
8
cam
10
-19.7382253131
20
-33.5223515155
11
-19.4449709697
21
-33.9158804683
0
LINE
8
cam
10
-19.4449709697
20
-33.9158804683
11
-19.1203753235
21
-34.3118091682
0
LINE
8
cam
10
-19.1203753235
20
-34.3118091682
11
-18.6762281496
21
-34.5265135511
0
LINE
8
cam
10
-18.6762281496
20
-34.5265135511
11
-18.288382172
21
-34.9151663376
0
LINE
8
cam
10
-18.288382172
20
-34.9151663376
11
-17.8676668688
21
-35.2947701987
0
LINE
8
cam
10
-17.8676668688
20
-35.2947701987
11
-17.4148702857
21
-35.6612346512
0
LINE
8
cam
10
-17.4148702857
20
-35.6612346512
11
-16.9314232353
21
-36.010537028
0
LINE
8
cam
10
-16.9314232353
20
-36.010537028
11
-16.419366199
21
-36.3388324311
0
LINE
8
cam
10
-16.419366199
20
-36.3388324311
11
-15.8813044897
21
-36.642553127
0
LINE
8
cam
10
-15.8813044897
20
-36.642553127
11
-15.3203521738
21
-36.9184969464
0
LINE
8
cam
10
-15.3203521738
20
-36.9184969464
11
-14.7400656277
21
-37.1639040205
0
LINE
8
cam
10
-14.7400656277
20
-37.1639040205
11
-14.1443678789
21
-37.3765210904
0
LINE
8
cam
10
-14.1443678789
20
-37.3765210904
11
-13.5374650986
21
-37.5546526191
0
LINE
8
cam
10
-13.5374650986
20
-37.5546526191
11
-12.9237567622
21
-37.6971979995
0
LINE
8
cam
10
-12.9237567622
20
-37.6971979995
11
-12.3077410982
21
-37.8036742587
0
LINE
8
cam
10
-12.3077410982
20
-37.8036742587
11
-11.6939174854
21
-37.8742237917
0
LINE
8
cam
10
-11.6939174854
20
-37.8742237917
11
-11.0866874447
21
-37.9096068057
0
LINE
8
cam
10
-11.0866874447
20
-37.9096068057
11
-10.4902557792
21
-37.9111782931
0
LINE
8
cam
10
-10.4902557792
20
-37.9111782931
11
-9.90853324791
21
-37.880849477
0
LINE
8
cam
10
-9.90853324791
20
-37.880849477
11
-9.34504186659
21
-37.8210337529
0
LINE
8
cam
10
-9.34504186659
20
-37.8210337529
11
-8.80282350337
21
-37.7345771896
0
LINE
8
cam
10
-8.80282350337
20
-37.7345771896
11
-8.31730082179
21
-37.8219408537
0
LINE
8
cam
10
-8.31730082179
20
-37.8219408537
11
-7.82197637689
21
-37.6924203407
0
LINE
8
cam
10
-7.82197637689
20
-37.6924203407
11
-7.35341811461
21
-37.5464193084
0
LINE
8
cam
10
-7.35341811461
20
-37.5464193084
11
-6.91187656817
21
-37.3875143158
0
LINE
8
cam
10
-6.91187656817
20
-37.3875143158
11
-6.4966659823
21
-37.2191342952
0
LINE
8
cam
10
-6.4966659823
20
-37.2191342952
11
-6.10603636421
21
-37.0443992425
0
LINE
8
cam
10
-6.10603636421
20
-37.0443992425
11
-5.73700105622
21
-36.865951698
0
LINE
8
cam
10
-5.73700105622
20
-36.865951698
11
-5.38509149531
21
-36.6857996274
0
LINE
8
cam
10
-5.38509149531
20
-36.6857996274
11
-5.04400381762
21
-36.5052178362
0
LINE
8
cam
10
-5.04400381762
20
-36.5052178362
11
-4.70511167942
21
-36.3248177908
0
LINE
8
cam
10
-4.70511167942
20
-36.3248177908
11
-4.35689388334
21
-36.1450194386
0
LINE
8
cam
10
-4.35689388334
20
-36.1450194386
11
-3.98458917377
21
-35.9673499904
0
LINE
8
cam
10
-3.98458917377
20
-35.9673499904
11
-3.56230510671
21
-35.5972853887
0
LINE
8
cam
10
-3.56230510671
20
-35.5972853887
11
-3.09492486131
21
-35.4471929542
0
LINE
8
cam
10
-3.09492486131
20
-35.4471929542
11
-2.56777416474
21
-35.3397147415
0
LINE
8
cam
10
-2.56777416474
20
-35.3397147415
11
-2.0
21
-35.3
0
LINE
8
cam
10
-2.0
20
-35.3
11
-1.43222583526
21
-35.3397147415
0
LINE
8
cam
10
-1.43222583526
20
-35.3397147415
11
-0.905075138691
21
-35.4471929542
0
LINE
8
cam
10
-0.905075138691
20
-35.4471929542
11
-0.43769489329
21
-35.5972853887
0
LINE
8
cam
10
-0.43769489329
20
-35.5972853887
11
-0.01541082623
21
-35.9673499904
0
LINE
8
cam
10
-0.01541082623
20
-35.9673499904
11
0.356893883345
21
-36.1450194386
0
LINE
8
cam
10
0.356893883345
20
-36.1450194386
11
0.705111679422
21
-36.3248177908
0
LINE
8
cam
10
0.705111679422
20
-36.3248177908
11
1.04400381762
21
-36.5052178362
0
LINE
8
cam
10
1.04400381762
20
-36.5052178362
11
1.38509149531
21
-36.6857996274
0
LINE
8
cam
10
1.38509149531
20
-36.6857996274
11
1.73700105622
21
-36.865951698
0
LINE
8
cam
10
1.73700105622
20
-36.865951698
11
2.10603636421
21
-37.0443992425
0
LINE
8
cam
10
2.10603636421
20
-37.0443992425
11
2.4966659823
21
-37.2191342952
0
LINE
8
cam
10
2.4966659823
20
-37.2191342952
11
2.91187656817
21
-37.3875143158
0
LINE
8
cam
10
2.91187656817
20
-37.3875143158
11
3.35341811461
21
-37.5464193084
0
LINE
8
cam
10
3.35341811461
20
-37.5464193084
11
3.82197637689
21
-37.6924203407
0
LINE
8
cam
10
3.82197637689
20
-37.6924203407
11
4.31730082179
21
-37.8219408537
0
LINE
8
cam
10
4.31730082179
20
-37.8219408537
11
4.80282350337
21
-37.7345771896
0
LINE
8
cam
10
4.80282350337
20
-37.7345771896
11
5.34504186659
21
-37.8210337529
0
LINE
8
cam
10
5.34504186659
20
-37.8210337529
11
5.90853324791
21
-37.880849477
0
LINE
8
cam
10
5.90853324791
20
-37.880849477
11
6.49025577924
21
-37.9111782931
0
LINE
8
cam
10
6.49025577924
20
-37.9111782931
11
7.08668744466
21
-37.9096068057
0
LINE
8
cam
10
7.08668744466
20
-37.9096068057
11
7.69391748543
21
-37.8742237917
0
LINE
8
cam
10
7.69391748543
20
-37.8742237917
11
8.30774109818
21
-37.8036742587
0
LINE
8
cam
10
8.30774109818
20
-37.8036742587
11
8.92375676223
21
-37.6971979995
0
LINE
8
cam
10
8.92375676223
20
-37.6971979995
11
9.53746509862
21
-37.5546526191
0
LINE
8
cam
10
9.53746509862
20
-37.5546526191
11
10.1443678789
21
-37.3765210904
0
LINE
8
cam
10
10.1443678789
20
-37.3765210904
11
10.7400656277
21
-37.1639040205
0
LINE
8
cam
10
10.7400656277
20
-37.1639040205
11
11.3203521738
21
-36.9184969464
0
LINE
8
cam
10
11.3203521738
20
-36.9184969464
11
11.8813044897
21
-36.642553127
0
LINE
8
cam
10
11.8813044897
20
-36.642553127
11
12.419366199
21
-36.3388324311
0
LINE
8
cam
10
12.419366199
20
-36.3388324311
11
12.9314232353
21
-36.010537028
0
LINE
8
cam
10
12.9314232353
20
-36.010537028
11
13.4148702857
21
-35.6612346512
0
LINE
8
cam
10
13.4148702857
20
-35.6612346512
11
13.8676668688
21
-35.2947701987
0
LINE
8
cam
10
13.8676668688
20
-35.2947701987
11
14.288382172
21
-34.9151663376
0
LINE
8
cam
10
14.288382172
20
-34.9151663376
11
14.6762281496
21
-34.5265135511
0
LINE
8
cam
10
14.6762281496
20
-34.5265135511
11
15.1203753235
21
-34.3118091682
0
LINE
8
cam
10
15.1203753235
20
-34.3118091682
11
15.4449709697
21
-33.9158804683
0
LINE
8
cam
10
15.4449709697
20
-33.9158804683
11
15.7382253131
21
-33.5223515155
0
LINE
8
cam
10
15.7382253131
20
-33.5223515155
11
16.0020379168
21
-33.1342630668
0
LINE
8
cam
10
16.0020379168
20
-33.1342630668
11
16.2389790441
21
-32.7539861096
0
LINE
8
cam
10
16.2389790441
20
-32.7539861096
11
16.4522983566
21
-32.3830161539
0
LINE
8
cam
10
16.4522983566
20
-32.3830161539
11
16.6459653573
21
-32.0217355461
0
LINE
8
cam
10
16.6459653573
20
-32.0217355461
11
16.8247754423
21
-31.6691422094
0
LINE
8
cam
10
16.8247754423
20
-31.6691422094
11
16.9945778564
21
-31.3225621648
0
LINE
8
cam
10
16.9945778564
20
-31.3225621648
11
17.1627108693
21
-30.9774196613
0
LINE
8
cam
10
17.1627108693
20
-30.9774196613
11
17.3387421643
21
-30.6272824537
0
LINE
8
cam
10
17.3387421643
20
-30.6272824537
11
17.53551152
21
-30.2647096331
0
LINE
8
cam
10
17.53551152
20
-30.2647096331
11
17.6596279914
21
-29.7171087344
0
LINE
8
cam
10
17.6596279914
20
-29.7171087344
11
17.9495244333
21
-29.3209621887
0
LINE
8
cam
10
17.9495244333
20
-29.3209621887
11
18.3128241971
21
-28.9241590829
0
LINE
8
cam
10
18.3128241971
20
-28.9241590829
11
18.7488194059
21
-28.5582999014
0
LINE
8
cam
10
18.7488194059
20
-28.5582999014
11
19.2315020935
21
-28.2567005216
0
LINE
8
cam
10
19.2315020935
20
-28.2567005216
11
19.721150074
21
-28.033800817
0
LINE
8
cam
10
19.721150074
20
-28.033800817
11
20.1874907549
21
-27.8805089318
0
LINE
8
cam
10
20.1874907549
20
-27.8805089318
11
20.7466442568
21
-27.9316851367
0
LINE
8
cam
10
20.7466442568
20
-27.9316851367
11
21.1522765754
21
-27.856587522
0
LINE
8
cam
10
21.1522765754
20
-27.856587522
11
21.53967351
21
-27.7973701594
0
LINE
8
cam
10
21.53967351
20
-27.7973701594
11
21.9198794952
21
-27.7441210609
0
LINE
8
cam
10
21.9198794952
20
-27.7441210609
11
22.3019685367
21
-27.6897284922
0
LINE
8
cam
10
22.3019685367
20
-27.6897284922
11
22.6925600823
21
-27.6286273288
0
LINE
8
cam
10
22.6925600823
20
-27.6286273288
11
23.096004753
21
-27.5560809134
0
LINE
8
cam
10
23.096004753
20
-27.5560809134
11
23.5147374395
21
-27.4678382119
0
LINE
8
cam
10
23.5147374395
20
-27.4678382119
11
23.9496211526
21
-27.3600058511
0
LINE
8
cam
10
23.9496211526
20
-27.3600058511
11
24.4002377786
21
-27.2290310813
0
LINE
8
cam
10
24.4002377786
20
-27.2290310813
11
24.8651266292
21
-27.0717367612
0
LINE
8
cam
10
24.8651266292
20
-27.0717367612
11
25.3419827703
21
-26.8853766535
0
LINE
8
cam
10
25.3419827703
20
-26.8853766535
11
25.6834277975
21
-26.5293148927
0
LINE
8
cam
10
25.6834277975
20
-26.5293148927
11
26.1729095609
21
-26.2805517643
0
LINE
8
cam
10
26.1729095609
20
-26.2805517643
11
26.663942465
21
-25.9977317779
0
LINE
8
cam
10
26.663942465
20
-25.9977317779
11
27.1523927097
21
-25.6803403807
0
LINE
8
cam
10
27.1523927097
20
-25.6803403807
11
27.6339923659
21
-25.3284952837
0
LINE
8
cam
10
27.6339923659
20
-25.3284952837
11
28.1044541746
21
-24.9429489614
0
LINE
8
cam
10
28.1044541746
20
-24.9429489614
11
28.5595799338
21
-24.5250767231
0
LINE
8
cam
10
28.5595799338
20
-24.5250767231
11
28.9953618999
21
-24.0768506974
0
LINE
8
cam
10
28.9953618999
20
-24.0768506974
11
29.4080763012
21
-23.6008003529
0
LINE
8
cam
10
29.4080763012
20
-23.6008003529
11
29.7943678789
21
-23.0999604151
0
LINE
8
cam
10
29.7943678789
20
-23.0999604151
11
30.1513243031
21
-22.5778072407
0
LINE
8
cam
10
30.1513243031
20
-22.5778072407
11
30.4765393215
21
-22.0381848733
0
LINE
8
cam
10
30.4765393215
20
-22.0381848733
11
30.7681635706
21
-21.4852221354
0
LINE
8
cam
10
30.7681635706
20
-21.4852221354
11
31.0249420917
21
-20.9232421933
0
LINE
8
cam
10
31.0249420917
20
-20.9232421933
11
31.2462377398
21
-20.3566660588
0
LINE
8
cam
10
31.2462377398
20
-20.3566660588
11
31.4320398337
21
-19.7899114532
0
LINE
8
cam
10
31.4320398337
20
-19.7899114532
11
31.5829575637
21
-19.2272883295
0
LINE
8
cam
10
31.5829575637
20
-19.2272883295
11
31.7001978426
21
-18.6728921042
0
LINE
8
cam
10
31.7001978426
20
-18.6728921042
11
31.7855274535
21
-18.1304952492
0
LINE
8
cam
10
31.7855274535
20
-18.1304952492
11
32.0186499953
21
-17.695732596
0
LINE
8
cam
10
32.0186499953
20
-17.695732596
11
32.0485323387
21
-17.1846270154
0
LINE
8
cam
10
32.0485323387
20
-17.1846270154
11
32.0544695714
21
-16.6938848266
0
LINE
8
cam
10
32.0544695714
20
-16.6938848266
11
32.0397857843
21
-16.2248495184
0
LINE
8
cam
10
32.0397857843
20
-16.2248495184
11
32.0079539958
21
-15.7779284972
0
LINE
8
cam
10
32.0079539958
20
-15.7779284972
11
31.9624822758
21
-15.3524215527
0
LINE
8
cam
10
31.9624822758
20
-15.3524215527
11
31.9068067574
21
-14.9463047944
0
LINE
8
cam
10
31.9068067574
20
-14.9463047944
11
31.8442179915
21
-14.555948862
0
LINE
8
cam
10
31.8442179915
20
-14.555948862
11
31.7778763913
21
-14.1757523611
0
LINE
8
cam
10
31.7778763913
20
-14.1757523611
11
31.7110291826
21
-13.797700105
0
LINE
8
cam
10
31.7110291826
20
-13.797700105
11
31.6476360048
21
-13.4109645545
0
LINE
8
cam
10
31.6476360048
20
-13.4109645545
11
31.5937108007
21
-13.0019788555
0
LINE
8
cam
10
31.5937108007
20
-13.0019788555
11
31.372251403
21
-12.4860065909
0
LINE
8
cam
10
31.372251403
20
-12.4860065909
11
31.3739334538
21
-11.9951204499
0
LINE
8
cam
10
31.3739334538
20
-11.9951204499
11
31.4346141231
21
-11.4605577507
0
LINE
8
cam
10
31.4346141231
20
-11.4605577507
11
31.5722950252
21
-10.9082999014
0
LINE
8
cam
10
31.5722950252
20
-10.9082999014
11
31.7855178548
21
-10.3805871123
0
LINE
8
cam
10
31.7855178548
20
-10.3805871123
11
32.0506342332
21
-9.91244960153
0
LINE
8
cam
10
32.0506342332
20
-9.91244960153
11
32.3378090598
21
-9.51432568656
0
LINE
8
cam
10
32.3378090598
20
-9.51432568656
11
32.8202543638
21
-9.22706592378
0
LINE
8
cam
10
32.8202543638
20
-9.22706592378
11
33.1042765326
21
-8.92788598258
0
LINE
8
cam
10
33.1042765326
20
-8.92788598258
11
33.3828801438
21
-8.65227192493
0
LINE
8
cam
10
33.3828801438
20
-8.65227192493
11
33.6591742125
21
-8.38571302836
0
LINE
8
cam
10
33.6591742125
20
-8.38571302836
11
33.9363195907
21
-8.11712221222
0
LINE
8
cam
10
33.9363195907
20
-8.11712221222
11
34.2164004262
21
-7.83810638257
0
LINE
8
cam
10
34.2164004262
20
-7.83810638257
11
34.5001523079
21
-7.54227627203
0
LINE
8
cam
10
34.5001523079
20
-7.54227627203
11
34.7870464089
21
-7.22476152907
0
LINE
8
cam
10
34.7870464089
20
-7.22476152907
11
35.0754924519
21
-6.88190508362
0
LINE
8
cam
10
35.0754924519
20
-6.88190508362
11
35.3630639222
21
-6.51107846187
0
LINE
8
cam
10
35.3630639222
20
-6.51107846187
11
35.6467116213
21
-6.11056987345
0
LINE
8
cam
10
35.6467116213
20
-6.11056987345
11
35.9229566204
21
-5.67951237208
0
LINE
8
cam
10
35.9229566204
20
-5.67951237208
11
35.989903598
21
-5.19075600504
0
LINE
8
cam
10
35.989903598
20
-5.19075600504
11
36.2396833649
21
-4.7017922448
0
LINE
8
cam
10
36.2396833649
20
-4.7017922448
11
36.4706999121
21
-4.18436417
0
LINE
8
cam
10
36.4706999121
20
-4.18436417
11
36.6793064785
21
-3.6404852855
0
LINE
8
cam
10
36.6793064785
20
-3.6404852855
11
36.8621194257
21
-3.07275944726
0
LINE
8
cam
10
36.8621194257
20
-3.07275944726
11
37.0161125818
21
-2.48431540746
0
LINE
8
cam
10
37.0161125818
20
-2.48431540746
11
37.1386979166
21
-1.87873345603
0
LINE
8
cam
10
37.1386979166
20
-1.87873345603
11
37.2277922854
21
-1.25996477102
0
LINE
8
cam
10
37.2277922854
20
-1.25996477102
11
37.281869878
21
-0.632244513568
0
LINE
8
cam
10
37.281869878
20
-0.632244513568
11
37.3
21
-2.64287269383e-14
0
CIRCLE
8
cam
10
-2.0
20
0
40
2.5
0
CIRCLE
8
roller
10
40.0
20
0.0
40
2.5
0
CIRCLE
8
roller
10
33.6501413132
20
21.6256326982
40
2.5
0
CIRCLE
8
roller
10
16.6166005201
20
36.3852798142
40
2.5
0
CIRCLE
8
roller
10
-5.69259353093
20
39.5928576752
40
2.5
0
CIRCLE
8
roller
10
-26.1944293578
20
30.2299829742
40
2.5
0
CIRCLE
8
roller
10
-38.3797189446
20
11.2693022737
40
2.5
0
CIRCLE
8
roller
10
-38.3797189446
20
-11.2693022737
40
2.5
0
CIRCLE
8
roller
10
-26.1944293578
20
-30.2299829742
40
2.5
0
CIRCLE
8
roller
10
-5.69259353093
20
-39.5928576752
40
2.5
0
CIRCLE
8
roller
10
16.6166005201
20
-36.3852798142
40
2.5
0
CIRCLE
8
roller
10
33.6501413132
20
-21.6256326982
40
2.5
0
CIRCLE
8
roller
10
0
20
0
40
2.5
0
ENDSEC
0
EOF
